<?xml version="1.0" encoding="UTF-8"?>
<!DOCTYPE svg PUBLIC "-//W3C//DTD SVG 1.1//EN" "http://www.w3.org/Graphics/SVG/1.1/DTD/svg11.dtd">
<svg xmlns="http://www.w3.org/2000/svg" version="1.1" width="97px" height="94px" style="shape-rendering:geometricPrecision; text-rendering:geometricPrecision; image-rendering:optimizeQuality; fill-rule:evenodd; clip-rule:evenodd" xmlns:xlink="http://www.w3.org/1999/xlink">
<g><path style="opacity:0.173" fill="#3d300a" d="M 41.5,0.5 C 41.5,0.166667 41.5,-0.166667 41.5,-0.5C 46.8333,-0.5 52.1667,-0.5 57.5,-0.5C 58.5676,0.434475 59.901,0.767809 61.5,0.5C 61.5,0.833333 61.5,1.16667 61.5,1.5C 54.8627,0.724302 48.1961,0.390969 41.5,0.5 Z"/></g>
<g><path style="opacity:0.009" fill="#000000" d="M 61.5,0.5 C 61.5,0.166667 61.5,-0.166667 61.5,-0.5C 62.5,-0.5 63.5,-0.5 64.5,-0.5C 63.791,0.403972 62.791,0.737305 61.5,0.5 Z"/></g>
<g><path style="opacity:0.008" fill="#000000" d="M 35.5,0.5 C 36.8333,1.16667 36.8333,1.16667 35.5,0.5 Z"/></g>
<g><path style="opacity:0.999" fill="#e4b006" d="M 41.5,0.5 C 48.1961,0.390969 54.8627,0.724302 61.5,1.5C 73.3502,4.08668 83.3502,9.75335 91.5,18.5C 91.5,19.8333 90.8333,20.5 89.5,20.5C 80.8362,19.2268 72.1695,19.2268 63.5,20.5C 60.5049,20.2938 57.8383,20.9605 55.5,22.5C 55.5,22.8333 55.5,23.1667 55.5,23.5C 54.1667,23.5 52.8333,23.5 51.5,23.5C 50.8333,22.8333 50.1667,22.1667 49.5,21.5C 49.1667,21.5 48.8333,21.5 48.5,21.5C 47.5,20.1667 46.5,18.8333 45.5,17.5C 45.0269,16.0937 44.0269,15.427 42.5,15.5C 40.8333,14.5 39.5,13.1667 38.5,11.5C 38.5,9.16667 38.5,6.83333 38.5,4.5C 39.9063,4.02694 40.573,3.02694 40.5,1.5C 40.5,0.833333 40.8333,0.5 41.5,0.5 Z"/></g>
<g><path style="opacity:0.01" fill="#000000" d="M 65.5,1.5 C 65.8966,0.474981 66.5632,0.308314 67.5,1C 66.9056,1.46434 66.2389,1.63101 65.5,1.5 Z"/></g>
<g><path style="opacity:0.012" fill="#000000" d="M 34.5,1.5 C 34.8333,1.5 35.1667,1.5 35.5,1.5C 35.3147,2.17014 34.9813,2.17014 34.5,1.5 Z"/></g>
<g><path style="opacity:0.949" fill="#6e2827" d="M 31.5,-0.5 C 32.5,-0.5 33.5,-0.5 34.5,-0.5C 34.5,0.166667 34.5,0.833333 34.5,1.5C 33.8333,1.83333 33.1667,2.16667 32.5,2.5C 32.0831,1.87605 31.4164,1.54272 30.5,1.5C 26.888,2.81243 23.2214,3.81243 19.5,4.5C 23.3491,2.4401 27.3491,0.773429 31.5,-0.5 Z"/></g>
<g><path style="opacity:0.012" fill="#000000" d="M 33.5,3.5 C 34.8333,4.16667 34.8333,4.16667 33.5,3.5 Z"/></g>
<g><path style="opacity:0.722" fill="#6a520d" d="M 40.5,1.5 C 40.573,3.02694 39.9063,4.02694 38.5,4.5C 38.427,2.97306 39.0937,1.97306 40.5,1.5 Z"/></g>
<g><path style="opacity:0.012" fill="#000000" d="M 14.5,4.5 C 15.8333,5.16667 15.8333,5.16667 14.5,4.5 Z"/></g>
<g><path style="opacity:1" fill="#ee5050" d="M 32.5,2.5 C 31.701,5.42994 31.3677,8.42994 31.5,11.5C 30.5,12.1667 29.5,12.8333 28.5,13.5C 25.6798,13.087 23.6798,14.087 22.5,16.5C 21.1411,15.9935 20.1411,14.9935 19.5,13.5C 17.4864,15.1829 15.8198,17.1829 14.5,19.5C 15.1667,20.5 15.8333,21.5 16.5,22.5C 15.5,23.3333 14.5,24.1667 13.5,25C 14.4714,30.0717 14.8047,35.2384 14.5,40.5C 9.96723,40.2831 5.6339,39.2831 1.5,37.5C 1.09324,31.8387 0.759906,26.172 0.5,20.5C 1.90614,17.5865 3.90614,15.0865 6.5,13C 10.2071,9.15046 14.5404,6.31713 19.5,4.5C 23.2214,3.81243 26.888,2.81243 30.5,1.5C 31.4164,1.54272 32.0831,1.87605 32.5,2.5 Z"/></g>
<g><path style="opacity:0.011" fill="#000000" d="M 32.5,5.5 C 33.6129,6.94639 33.7796,8.61305 33,10.5C 32.5065,8.86586 32.3398,7.19919 32.5,5.5 Z"/></g>
<g><path style="opacity:0.961" fill="#70570f" d="M 38.5,4.5 C 38.5,6.83333 38.5,9.16667 38.5,11.5C 35.8333,9.16667 35.8333,6.83333 38.5,4.5 Z"/></g>
<g><path style="opacity:0.004" fill="#000000" d="M 7.5,9.5 C 8.83333,10.1667 8.83333,10.1667 7.5,9.5 Z"/></g>
<g><path style="opacity:0.008" fill="#000000" d="M 7.5,10.5 C 6.83333,11.1667 6.83333,11.1667 7.5,10.5 Z"/></g>
<g><path style="opacity:0.008" fill="#000000" d="M 33.5,11.5 C 34.8333,12.1667 34.8333,12.1667 33.5,11.5 Z"/></g>
<g><path style="opacity:0.067" fill="#1d0c0a" d="M 31.5,11.5 C 32.0431,11.56 32.3764,11.8933 32.5,12.5C 31.3112,13.4287 29.9778,13.762 28.5,13.5C 29.5,12.8333 30.5,12.1667 31.5,11.5 Z"/></g>
<g><path style="opacity:1" fill="#712a28" d="M 28.5,13.5 C 28.5,13.8333 28.5,14.1667 28.5,14.5C 26.6203,14.2291 25.287,14.8958 24.5,16.5C 23.8333,16.5 23.1667,16.5 22.5,16.5C 23.6798,14.087 25.6798,13.087 28.5,13.5 Z"/></g>
<g><path style="opacity:0.009" fill="#000000" d="M 28.5,15.5 C 28.5,15.1667 28.5,14.8333 28.5,14.5C 32.5,14.8333 32.5,15.1667 28.5,15.5 Z"/></g>
<g><path style="opacity:0.008" fill="#000000" d="M 28.5,15.5 C 28.1034,16.525 27.4368,16.6917 26.5,16C 27.0944,15.5357 27.7611,15.369 28.5,15.5 Z"/></g>
<g><path style="opacity:0.008" fill="#000000" d="M 0.5,16.5 C 1.83333,17.1667 1.83333,17.1667 0.5,16.5 Z"/></g>
<g><path style="opacity:0.996" fill="#a53b39" d="M 22.5,16.5 C 22.5,16.8333 22.5,17.1667 22.5,17.5C 21.8333,17.5 21.5,17.8333 21.5,18.5C 20.8333,18.5 20.5,18.8333 20.5,19.5C 19.8333,19.5 19.5,19.8333 19.5,20.5C 18.6618,20.8417 18.3284,21.5084 18.5,22.5C 17.6618,22.8417 17.3284,23.5084 17.5,24.5C 16.596,25.209 16.2627,26.209 16.5,27.5C 15.5151,31.6344 15.1818,35.9677 15.5,40.5C 15.1667,40.5 14.8333,40.5 14.5,40.5C 14.8047,35.2384 14.4714,30.0717 13.5,25C 14.5,24.1667 15.5,23.3333 16.5,22.5C 15.8333,21.5 15.1667,20.5 14.5,19.5C 15.8198,17.1829 17.4864,15.1829 19.5,13.5C 20.1411,14.9935 21.1411,15.9935 22.5,16.5 Z"/></g>
<g><path style="opacity:0.012" fill="#000000" d="M 24.5,16.5 C 25.8333,17.1667 25.8333,17.1667 24.5,16.5 Z"/></g>
<g><path style="opacity:0.01" fill="#000000" d="M 31.5,17.5 C 32.2506,16.4265 33.2506,16.2599 34.5,17C 33.552,17.4828 32.552,17.6495 31.5,17.5 Z"/></g>
<g><path style="opacity:0.009" fill="#000000" d="M 35.5,17.5 C 36.2506,16.4265 37.2506,16.2599 38.5,17C 37.552,17.4828 36.552,17.6495 35.5,17.5 Z"/></g>
<g><path style="opacity:0.596" fill="#4d3c0a" d="M 42.5,15.5 C 44.0269,15.427 45.0269,16.0937 45.5,17.5C 43.9731,17.573 42.9731,16.9063 42.5,15.5 Z"/></g>
<g><path style="opacity:0.008" fill="#000000" d="M -0.5,17.5 C -0.166667,17.5 0.166667,17.5 0.5,17.5C 0.31468,18.1701 -0.0186536,18.1701 -0.5,17.5 Z"/></g>
<g><path style="opacity:0.016" fill="#000000" d="M 22.5,17.5 C 23.8333,18.1667 23.8333,18.1667 22.5,17.5 Z"/></g>
<g><path style="opacity:0.008" fill="#000000" d="M 39.5,17.5 C 40.8333,18.1667 40.8333,18.1667 39.5,17.5 Z"/></g>
<g><path style="opacity:0.02" fill="#000000" d="M 21.5,18.5 C 21.8333,18.5 22.1667,18.5 22.5,18.5C 22.3147,19.1701 21.9813,19.1701 21.5,18.5 Z"/></g>
<g><path style="opacity:0.008" fill="#000000" d="M 94.5,19.5 C 93.8333,18.1667 93.8333,18.1667 94.5,19.5 Z"/></g>
<g><path style="opacity:0.02" fill="#000000" d="M 20.5,19.5 C 20.8333,19.5 21.1667,19.5 21.5,19.5C 21.3147,20.1701 20.9813,20.1701 20.5,19.5 Z"/></g>
<g><path style="opacity:0.004" fill="#000000" d="M 41.5,19.5 C 42.8333,20.1667 42.8333,20.1667 41.5,19.5 Z"/></g>
<g><path style="opacity:0.004" fill="#000000" d="M 94.5,19.5 C 95.8333,20.1667 95.8333,20.1667 94.5,19.5 Z"/></g>
<g><path style="opacity:0.01" fill="#000000" d="M 19.5,20.5 C 19.8333,20.5 20.1667,20.5 20.5,20.5C 20.6716,21.4916 20.3382,22.1583 19.5,22.5C 19.5,21.8333 19.5,21.1667 19.5,20.5 Z"/></g>
<g><path style="opacity:0.498" fill="#382b08" d="M 91.5,18.5 C 92.1667,18.8333 92.8333,19.1667 93.5,19.5C 93.5,20.1667 93.5,20.8333 93.5,21.5C 92.1667,21.5 90.8333,21.5 89.5,21.5C 89.5,21.1667 89.5,20.8333 89.5,20.5C 90.8333,20.5 91.5,19.8333 91.5,18.5 Z"/></g>
<g><path style="opacity:0.999" fill="#271b3b" d="M 43.5,30.5 C 42.0937,30.9731 41.427,31.9731 41.5,33.5C 40.5084,33.3284 39.8417,33.6618 39.5,34.5C 38.5084,34.3284 37.8417,34.6618 37.5,35.5C 33.4682,35.8144 30.1348,34.4811 27.5,31.5C 25.1628,21.1705 29.1628,17.1705 39.5,19.5C 39.838,21.6552 39.838,23.9885 39.5,26.5C 40.8333,26.5 42.1667,26.5 43.5,26.5C 43.5,27.8333 43.5,29.1667 43.5,30.5 Z"/></g>
<g><path style="opacity:0.014" fill="#000000" d="M 48.5,21.5 C 48.631,22.2389 48.4643,22.9056 48,23.5C 47.3083,22.5632 47.475,21.8966 48.5,21.5 Z"/></g>
<g><path style="opacity:0.061" fill="#1d1603" d="M 63.5,20.5 C 62.1667,21.1667 60.8333,21.8333 59.5,22.5C 58.1667,22.5 56.8333,22.5 55.5,22.5C 57.8383,20.9605 60.5049,20.2938 63.5,20.5 Z"/></g>
<g><path style="opacity:0.008" fill="#000000" d="M 89.5,21.5 C 89.5,21.8333 89.5,22.1667 89.5,22.5C 81.555,23.4368 73.555,23.7701 65.5,23.5C 64.3572,21.8993 65.0239,21.2326 67.5,21.5C 74.8304,22.6799 82.1637,22.6799 89.5,21.5 Z"/></g>
<g><path style="opacity:0.012" fill="#000000" d="M 93.5,21.5 C 94.8333,22.1667 94.8333,22.1667 93.5,21.5 Z"/></g>
<g><path style="opacity:0.01" fill="#000000" d="M 18.5,22.5 C 18.8333,22.5 19.1667,22.5 19.5,22.5C 19.6716,23.4916 19.3382,24.1583 18.5,24.5C 18.5,23.8333 18.5,23.1667 18.5,22.5 Z"/></g>
<g><path style="opacity:0.012" fill="#000000" d="M 40.5,22.5 C 41.5735,23.2506 41.7401,24.2506 41,25.5C 40.5172,24.552 40.3505,23.552 40.5,22.5 Z"/></g>
<g><path style="opacity:0.009" fill="#000000" d="M 59.5,22.5 C 61.5648,22.5172 63.5648,22.8505 65.5,23.5C 65.5,23.8333 65.5,24.1667 65.5,24.5C 63.8333,24.5 62.1667,24.5 60.5,24.5C 60.1667,23.8333 59.8333,23.1667 59.5,22.5 Z"/></g>
<g><path style="opacity:0.009" fill="#000000" d="M 89.5,22.5 C 93.2762,22.4692 93.4429,23.1359 90,24.5C 88.3164,24.3166 88.1498,23.6499 89.5,22.5 Z"/></g>
<g><path style="opacity:0.009" fill="#000000" d="M 24.5,23.5 C 25.6225,25.2884 25.7891,27.2884 25,29.5C 24.5045,27.5273 24.3379,25.5273 24.5,23.5 Z"/></g>
<g><path style="opacity:0.088" fill="#1b1503" d="M 49.5,21.5 C 50.1667,22.1667 50.8333,22.8333 51.5,23.5C 51.5,23.8333 51.5,24.1667 51.5,24.5C 49.9519,24.1788 49.2852,23.1788 49.5,21.5 Z"/></g>
<g><path style="opacity:0.009" fill="#000000" d="M 55.5,23.5 C 57.2161,23.6287 58.8828,23.962 60.5,24.5C 60.5,24.8333 60.5,25.1667 60.5,25.5C 58.302,25.8799 56.6354,25.2132 55.5,23.5 Z"/></g>
<g><path style="opacity:0.008" fill="#000000" d="M 17.5,24.5 C 17.8333,24.5 18.1667,24.5 18.5,24.5C 18.7373,25.791 18.404,26.791 17.5,27.5C 17.5,26.5 17.5,25.5 17.5,24.5 Z"/></g>
<g><path style="opacity:0.004" fill="#000000" d="M 42.5,24.5 C 43.8333,25.1667 43.8333,25.1667 42.5,24.5 Z"/></g>
<g><path style="opacity:0.008" fill="#000000" d="M 51.5,25.5 C 51.5,25.1667 51.5,24.8333 51.5,24.5C 55.8057,25.0658 56.139,25.7325 52.5,26.5C 52.5,25.8333 52.1667,25.5 51.5,25.5 Z"/></g>
<g><path style="opacity:0.008" fill="#000000" d="M 51.5,25.5 C 52.1667,25.5 52.5,25.8333 52.5,26.5C 52.5,26.8333 52.5,27.1667 52.5,27.5C 50.5759,27.2893 50.2426,26.6226 51.5,25.5 Z"/></g>
<g><path style="opacity:0.995" fill="#d5b422" d="M 65.5,24.5 C 73.253,24.201 80.9196,24.5343 88.5,25.5C 88.1667,26.1667 87.8333,26.8333 87.5,27.5C 87.5,27.8333 87.5,28.1667 87.5,28.5C 85.901,28.2322 84.5676,28.5655 83.5,29.5C 82.209,29.2627 81.209,29.596 80.5,30.5C 79.209,30.2627 78.209,30.596 77.5,31.5C 76.5084,31.3284 75.8417,31.6618 75.5,32.5C 74.5084,32.3284 73.8417,32.6618 73.5,33.5C 72.5084,33.3284 71.8417,33.6618 71.5,34.5C 70.5084,34.3284 69.8417,34.6618 69.5,35.5C 68.5084,35.3284 67.8417,35.6618 67.5,36.5C 66.5084,36.3284 65.8417,36.6618 65.5,37.5C 64.8333,37.5 64.5,37.8333 64.5,38.5C 63.5084,38.3284 62.8417,38.6618 62.5,39.5C 61.8333,39.5 61.1667,39.5 60.5,39.5C 56.4998,36.6027 53.6664,37.6027 52,42.5C 50.575,41.7877 49.075,41.621 47.5,42C 49.2658,39.904 50.5991,37.5707 51.5,35C 50.9341,34.0053 50.2674,33.172 49.5,32.5C 49.5,32.1667 49.5,31.8333 49.5,31.5C 51.3912,29.9837 53.3912,28.6504 55.5,27.5C 57.3057,26.9759 58.9724,26.3092 60.5,25.5C 62.4147,25.7845 64.0813,25.4511 65.5,24.5 Z"/></g>
<g><path style="opacity:0.525" fill="#40360e" d="M 88.5,25.5 C 89.675,25.281 90.675,25.6143 91.5,26.5C 90.3112,27.4287 88.9778,27.762 87.5,27.5C 87.8333,26.8333 88.1667,26.1667 88.5,25.5 Z"/></g>
<g><path style="opacity:0.072" fill="#230f0d" d="M -0.5,20.5 C -0.166667,20.5 0.166667,20.5 0.5,20.5C 0.759906,26.172 1.09324,31.8387 1.5,37.5C 0.833333,35.1667 0.166667,32.8333 -0.5,30.5C -0.5,27.1667 -0.5,23.8333 -0.5,20.5 Z"/></g>
<g><path style="opacity:0.008" fill="#000000" d="M 16.5,27.5 C 16.8333,27.5 17.1667,27.5 17.5,27.5C 17.8195,32.3633 17.4861,37.03 16.5,41.5C 16.5,36.8333 16.5,32.1667 16.5,27.5 Z"/></g>
<g><path style="opacity:0.008" fill="#000000" d="M 44.5,30.5 C 44.3505,29.448 44.5172,28.448 45,27.5C 45.7401,28.7494 45.5735,29.7494 44.5,30.5 Z"/></g>
<g><path style="opacity:0.01" fill="#000000" d="M 87.5,29.5 C 87.5,29.1667 87.5,28.8333 87.5,28.5C 92.8333,28.8333 92.8333,29.1667 87.5,29.5 Z"/></g>
<g><path style="opacity:0.271" fill="#362e0f" d="M 52.5,27.5 C 53.5,27.5 54.5,27.5 55.5,27.5C 53.3912,28.6504 51.3912,29.9837 49.5,31.5C 49.5,30.5 49.5,29.5 49.5,28.5C 50.791,28.7373 51.791,28.404 52.5,27.5 Z"/></g>
<g><path style="opacity:0.008" fill="#000000" d="M 83.5,30.5 C 83.5,30.1667 83.5,29.8333 83.5,29.5C 84.8333,29.5 86.1667,29.5 87.5,29.5C 86.4324,30.4345 85.099,30.7678 83.5,30.5 Z"/></g>
<g><path style="opacity:0.012" fill="#000000" d="M 26.5,31.5 C 25.8333,30.1667 25.8333,30.1667 26.5,31.5 Z"/></g>
<g><path style="opacity:0.012" fill="#000000" d="M 43.5,30.5 C 43.8333,30.5 44.1667,30.5 44.5,30.5C 44.3147,31.1701 43.9813,31.1701 43.5,30.5 Z"/></g>
<g><path style="opacity:0.008" fill="#000000" d="M 80.5,31.5 C 80.5,31.1667 80.5,30.8333 80.5,30.5C 81.5,30.5 82.5,30.5 83.5,30.5C 82.791,31.404 81.791,31.7373 80.5,31.5 Z"/></g>
<g><path style="opacity:0.008" fill="#000000" d="M 26.5,31.5 C 26.8333,31.5 27.1667,31.5 27.5,31.5C 27.3147,32.1701 26.9813,32.1701 26.5,31.5 Z"/></g>
<g><path style="opacity:0.007" fill="#000000" d="M 77.5,32.5 C 77.5,32.1667 77.5,31.8333 77.5,31.5C 78.5,31.5 79.5,31.5 80.5,31.5C 79.791,32.404 78.791,32.7373 77.5,32.5 Z"/></g>
<g><path style="opacity:0.004" fill="#000000" d="M 94.5,32.5 C 93.8333,31.1667 93.8333,31.1667 94.5,32.5 Z"/></g>
<g><path style="opacity:0.004" fill="#000000" d="M 42.5,32.5 C 43.8333,33.1667 43.8333,33.1667 42.5,32.5 Z"/></g>
<g><path style="opacity:0.01" fill="#000000" d="M 75.5,33.5 C 75.5,33.1667 75.5,32.8333 75.5,32.5C 76.1667,32.5 76.8333,32.5 77.5,32.5C 77.1583,33.3382 76.4916,33.6716 75.5,33.5 Z"/></g>
<g><path style="opacity:0.008" fill="#000000" d="M 94.5,32.5 C 95.6225,34.2884 95.7891,36.2884 95,38.5C 94.5045,36.5273 94.3379,34.5273 94.5,32.5 Z"/></g>
<g><path style="opacity:0.004" fill="#000000" d="M 41.5,33.5 C 41.8333,33.5 42.1667,33.5 42.5,33.5C 42.3147,34.1701 41.9813,34.1701 41.5,33.5 Z"/></g>
<g><path style="opacity:0.008" fill="#000000" d="M 73.5,34.5 C 73.5,34.1667 73.5,33.8333 73.5,33.5C 74.1667,33.5 74.8333,33.5 75.5,33.5C 75.1583,34.3382 74.4916,34.6716 73.5,34.5 Z"/></g>
<g><path style="opacity:0.999" fill="#37aa85" d="M 90.5,48.5 C 90.5,49.5 90.5,50.5 90.5,51.5C 89.596,52.209 89.2627,53.209 89.5,54.5C 88.6618,54.8417 88.3284,55.5084 88.5,56.5C 87.596,57.209 87.2627,58.209 87.5,59.5C 86.6618,59.8417 86.3284,60.5084 86.5,61.5C 85.0937,61.9731 84.427,62.9731 84.5,64.5C 83.6618,64.8417 83.3284,65.5084 83.5,66.5C 82.8333,66.5 82.5,66.8333 82.5,67.5C 81.6618,67.8417 81.3284,68.5084 81.5,69.5C 80.8333,69.5 80.5,69.8333 80.5,70.5C 79.8333,70.5 79.5,70.8333 79.5,71.5C 77.457,72.5794 76.1237,74.246 75.5,76.5C 73.246,77.1237 71.5794,78.457 70.5,80.5C 69.8333,80.5 69.5,80.8333 69.5,81.5C 68.8333,81.5 68.5,81.8333 68.5,82.5C 67.5084,82.3284 66.8417,82.6618 66.5,83.5C 65.8333,83.5 65.5,83.8333 65.5,84.5C 63.9731,84.427 62.9731,85.0937 62.5,86.5C 61.5084,86.3284 60.8417,86.6618 60.5,87.5C 59.8333,87.5 59.5,87.8333 59.5,88.5C 58.8333,88.5 58.1667,88.5 57.5,88.5C 58.3387,86.6161 59.672,85.2828 61.5,84.5C 63.9312,83.2591 63.9312,82.0924 61.5,81C 63.2852,79.8372 65.2852,79.1705 67.5,79C 69.208,76.9565 71.208,75.2899 73.5,74C 67.8146,70.4884 63.8146,65.6551 61.5,59.5C 66.239,53.7014 70.239,47.368 73.5,40.5C 73.3764,39.8933 73.0431,39.56 72.5,39.5C 75.0878,37.3754 78.0878,36.0421 81.5,35.5C 85.1974,34.9922 88.8641,34.3255 92.5,33.5C 91.8333,38.5 91.1667,43.5 90.5,48.5 Z"/></g>
<g><path style="opacity:0.004" fill="#000000" d="M 39.5,35.5 C 39.5,35.1667 39.5,34.8333 39.5,34.5C 40.1667,34.5 40.8333,34.5 41.5,34.5C 41.1583,35.3382 40.4916,35.6716 39.5,35.5 Z"/></g>
<g><path style="opacity:0.01" fill="#000000" d="M 71.5,34.5 C 72.1667,34.5 72.8333,34.5 73.5,34.5C 72.8333,35.8333 72.1667,35.8333 71.5,34.5 Z"/></g>
<g><path style="opacity:0.008" fill="#000000" d="M 37.5,36.5 C 37.5,36.1667 37.5,35.8333 37.5,35.5C 38.1667,35.5 38.8333,35.5 39.5,35.5C 39.1583,36.3382 38.4916,36.6716 37.5,36.5 Z"/></g>
<g><path style="opacity:0.016" fill="#000000" d="M 69.5,35.5 C 70.8333,36.1667 70.8333,36.1667 69.5,35.5 Z"/></g>
<g><path style="opacity:0.007" fill="#000000" d="M 37.5,36.5 C 36.0536,37.6129 34.3869,37.7796 32.5,37C 34.1341,36.5065 35.8008,36.3398 37.5,36.5 Z"/></g>
<g><path style="opacity:0.008" fill="#000000" d="M 67.5,37.5 C 67.5,37.1667 67.5,36.8333 67.5,36.5C 68.1667,36.5 68.8333,36.5 69.5,36.5C 69.1583,37.3382 68.4916,37.6716 67.5,37.5 Z"/></g>
<g><path style="opacity:0.073" fill="#11231c" d="M 93.5,32.5 C 93.5,34.8333 93.5,37.1667 93.5,39.5C 92.5489,40.9187 92.2155,42.5853 92.5,44.5C 91.5655,45.5676 91.2322,46.901 91.5,48.5C 91.1667,48.5 90.8333,48.5 90.5,48.5C 91.1667,43.5 91.8333,38.5 92.5,33.5C 88.8641,34.3255 85.1974,34.9922 81.5,35.5C 85.1629,33.5841 89.1629,32.5841 93.5,32.5 Z"/></g>
<g><path style="opacity:0.008" fill="#000000" d="M 65.5,38.5 C 65.5,38.1667 65.5,37.8333 65.5,37.5C 66.1667,37.5 66.8333,37.5 67.5,37.5C 67.1583,38.3382 66.4916,38.6716 65.5,38.5 Z"/></g>
<g><path style="opacity:0.996" fill="#caaa21" d="M 49.5,32.5 C 50.2674,33.172 50.9341,34.0053 51.5,35C 50.5991,37.5707 49.2658,39.904 47.5,42C 49.075,41.621 50.575,41.7877 52,42.5C 53.6664,37.6027 56.4998,36.6027 60.5,39.5C 60.5,39.8333 60.5,40.1667 60.5,40.5C 59.8333,40.5 59.5,40.8333 59.5,41.5C 58.5084,41.3284 57.8417,41.6618 57.5,42.5C 56.8333,42.5 56.5,42.8333 56.5,43.5C 54.9731,43.427 53.9731,44.0937 53.5,45.5C 52.5084,45.3284 51.8417,45.6618 51.5,46.5C 49.1667,46.5 46.8333,46.5 44.5,46.5C 42.7516,44.8401 42.2516,42.8401 43,40.5C 45.0308,37.6447 47.1975,34.978 49.5,32.5 Z"/></g>
<g><path style="opacity:0.012" fill="#000000" d="M 64.5,38.5 C 64.8333,38.5 65.1667,38.5 65.5,38.5C 65.3147,39.1701 64.9813,39.1701 64.5,38.5 Z"/></g>
<g><path style="opacity:0.016" fill="#000000" d="M 62.5,39.5 C 63.8333,40.1667 63.8333,40.1667 62.5,39.5 Z"/></g>
<g><path style="opacity:0.009" fill="#000000" d="M 93.5,39.5 C 94.5983,40.6009 94.765,41.9343 94,43.5C 93.51,42.2068 93.3433,40.8734 93.5,39.5 Z"/></g>
<g><path style="opacity:0.007" fill="#000000" d="M 40.5,40.5 C 41.5735,41.2506 41.7401,42.2506 41,43.5C 40.5172,42.552 40.3505,41.552 40.5,40.5 Z"/></g>
<g><path style="opacity:0.006" fill="#000000" d="M 60.5,41.5 C 60.5,41.1667 60.5,40.8333 60.5,40.5C 61.1667,40.5 61.8333,40.5 62.5,40.5C 62.1583,41.3382 61.4916,41.6716 60.5,41.5 Z"/></g>
<g><path style="opacity:0.016" fill="#000000" d="M 59.5,41.5 C 59.8333,41.5 60.1667,41.5 60.5,41.5C 60.3147,42.1701 59.9813,42.1701 59.5,41.5 Z"/></g>
<g><path style="opacity:0.009" fill="#000000" d="M 17.5,45.5 C 17.3505,44.448 17.5172,43.448 18,42.5C 18.7401,43.7494 18.5735,44.7494 17.5,45.5 Z"/></g>
<g><path style="opacity:0.006" fill="#000000" d="M 57.5,43.5 C 57.5,43.1667 57.5,42.8333 57.5,42.5C 58.1667,42.5 58.8333,42.5 59.5,42.5C 59.1583,43.3382 58.4916,43.6716 57.5,43.5 Z"/></g>
<g><path style="opacity:0.999" fill="#4fc1d4" d="M 72.5,39.5 C 73.0431,39.56 73.3764,39.8933 73.5,40.5C 70.239,47.368 66.239,53.7014 61.5,59.5C 56.8091,63.1973 52.1424,66.864 47.5,70.5C 40.0058,74.1059 32.3392,77.1059 24.5,79.5C 19.0994,75.1023 14.4327,70.1023 10.5,64.5C 9.83333,62.5 9.16667,60.5 8.5,58.5C 8.36899,57.7611 8.53566,57.0944 9,56.5C 12.9549,56.6295 17.1216,56.6295 21.5,56.5C 23.9024,58.9092 26.5691,60.9092 29.5,62.5C 33.5463,64.7976 37.8796,65.131 42.5,63.5C 44.8333,63.1667 46.1667,61.8333 46.5,59.5C 47.3578,56.9499 48.3578,54.4499 49.5,52C 57.0544,47.6089 64.721,43.4422 72.5,39.5 Z"/></g>
<g><path style="opacity:1" fill="#3dabc4" d="M 1.5,37.5 C 5.6339,39.2831 9.96723,40.2831 14.5,40.5C 14.8333,40.5 15.1667,40.5 15.5,40.5C 15.5,41.1667 15.8333,41.5 16.5,41.5C 16.2322,43.099 16.5655,44.4324 17.5,45.5C 17.2627,46.791 17.596,47.791 18.5,48.5C 18.461,51.089 19.461,53.089 21.5,54.5C 21.5,55.1667 21.5,55.8333 21.5,56.5C 17.1216,56.6295 12.9549,56.6295 9,56.5C 8.53566,57.0944 8.36899,57.7611 8.5,58.5C 7.83333,57.8333 7.16667,57.1667 6.5,56.5C 5.5376,52.6052 4.20427,48.9385 2.5,45.5C 2.16667,42.8333 1.83333,40.1667 1.5,37.5 Z"/></g>
<g><path style="opacity:0.016" fill="#000000" d="M 56.5,43.5 C 56.8333,43.5 57.1667,43.5 57.5,43.5C 57.3147,44.1701 56.9813,44.1701 56.5,43.5 Z"/></g>
<g><path style="opacity:0.008" fill="#000000" d="M 56.5,44.5 C 55.8333,45.1667 55.8333,45.1667 56.5,44.5 Z"/></g>
<g><path style="opacity:0.01" fill="#000000" d="M 92.5,44.5 C 93.5735,45.2506 93.7401,46.2506 93,47.5C 92.5172,46.552 92.3505,45.552 92.5,44.5 Z"/></g>
<g><path style="opacity:0.008" fill="#000000" d="M 2.5,45.5 C 2.64945,46.552 2.48278,47.552 2,48.5C 1.25988,47.2506 1.42654,46.2506 2.5,45.5 Z"/></g>
<g><path style="opacity:0.012" fill="#000000" d="M 53.5,45.5 C 54.8333,46.1667 54.8333,46.1667 53.5,45.5 Z"/></g>
<g><path style="opacity:0.01" fill="#000000" d="M 18.5,48.5 C 18.369,47.7611 18.5357,47.0944 19,46.5C 19.6917,47.4368 19.525,48.1034 18.5,48.5 Z"/></g>
<g><path style="opacity:0.008" fill="#000000" d="M 44.5,46.5 C 44.5,46.8333 44.5,47.1667 44.5,47.5C 43.8299,47.0187 43.8299,46.6853 44.5,46.5 Z"/></g>
<g><path style="opacity:0.006" fill="#000000" d="M 51.5,47.5 C 51.5,47.1667 51.5,46.8333 51.5,46.5C 52.1667,46.5 52.8333,46.5 53.5,46.5C 53.1583,47.3382 52.4916,47.6716 51.5,47.5 Z"/></g>
<g><path style="opacity:0.01" fill="#000000" d="M 44.5,47.5 C 45.2389,47.369 45.9056,47.5357 46.5,48C 45.5632,48.6917 44.8966,48.525 44.5,47.5 Z"/></g>
<g><path style="opacity:0.009" fill="#000000" d="M 51.5,47.5 C 50.7494,48.5735 49.7494,48.7401 48.5,48C 49.448,47.5172 50.448,47.3505 51.5,47.5 Z"/></g>
<g><path style="opacity:0.012" fill="#000000" d="M 54.5,47.5 C 55.8333,48.1667 55.8333,48.1667 54.5,47.5 Z"/></g>
<g><path style="opacity:0.008" fill="#000000" d="M 91.5,48.5 C 92.8333,49.5 92.8333,50.5 91.5,51.5C 91.5,50.5 91.5,49.5 91.5,48.5 Z"/></g>
<g><path style="opacity:0.01" fill="#000000" d="M 2.5,49.5 C 3.52502,49.8966 3.69169,50.5632 3,51.5C 2.53566,50.9056 2.36899,50.2389 2.5,49.5 Z"/></g>
<g><path style="opacity:0.009" fill="#000000" d="M 90.5,51.5 C 90.8333,51.5 91.1667,51.5 91.5,51.5C 91.7373,52.791 91.404,53.791 90.5,54.5C 90.5,53.5 90.5,52.5 90.5,51.5 Z"/></g>
<g><path style="opacity:0.008" fill="#000000" d="M 3.5,52.5 C 4.52502,52.8966 4.69169,53.5632 4,54.5C 3.53566,53.9056 3.36899,53.2389 3.5,52.5 Z"/></g>
<g><path style="opacity:0.01" fill="#000000" d="M 46.5,52.5 C 47.525,52.8966 47.6917,53.5632 47,54.5C 46.5357,53.9056 46.369,53.2389 46.5,52.5 Z"/></g>
<g><path style="opacity:0.012" fill="#000000" d="M 21.5,53.5 C 22.8333,54.1667 22.8333,54.1667 21.5,53.5 Z"/></g>
<g><path style="opacity:0.01" fill="#000000" d="M 89.5,54.5 C 89.8333,54.5 90.1667,54.5 90.5,54.5C 90.6716,55.4916 90.3382,56.1583 89.5,56.5C 89.5,55.8333 89.5,55.1667 89.5,54.5 Z"/></g>
<g><path style="opacity:0.008" fill="#000000" d="M 6.5,56.5 C 6.63101,57.2389 6.46434,57.9056 6,58.5C 5.30831,57.5632 5.47498,56.8966 6.5,56.5 Z"/></g>
<g><path style="opacity:0.008" fill="#000000" d="M 88.5,56.5 C 88.8333,56.5 89.1667,56.5 89.5,56.5C 89.1667,59.1667 88.8333,59.1667 88.5,56.5 Z"/></g>
<g><path style="opacity:0.012" fill="#000000" d="M 6.5,59.5 C 7.83333,60.1667 7.83333,60.1667 6.5,59.5 Z"/></g>
<g><path style="opacity:0.012" fill="#000000" d="M 87.5,59.5 C 88.8333,60.1667 88.8333,60.1667 87.5,59.5 Z"/></g>
<g><path style="opacity:0.01" fill="#000000" d="M 29.5,62.5 C 29.8966,61.475 30.5632,61.3083 31.5,62C 30.9056,62.4643 30.2389,62.631 29.5,62.5 Z"/></g>
<g><path style="opacity:0.776" fill="#28555d" d="M 46.5,59.5 C 46.1667,61.8333 44.8333,63.1667 42.5,63.5C 43.5,61.8333 44.8333,60.5 46.5,59.5 Z"/></g>
<g><path style="opacity:0.012" fill="#000000" d="M 86.5,61.5 C 87.8333,62.1667 87.8333,62.1667 86.5,61.5 Z"/></g>
<g><path style="opacity:0.008" fill="#000000" d="M 85.5,63.5 C 86.8333,64.1667 86.8333,64.1667 85.5,63.5 Z"/></g>
<g><path style="opacity:0.012" fill="#000000" d="M 10.5,64.5 C 9.83333,65.1667 9.83333,65.1667 10.5,64.5 Z"/></g>
<g><path style="opacity:0.008" fill="#000000" d="M 84.5,64.5 C 84.8333,64.5 85.1667,64.5 85.5,64.5C 85.6716,65.4916 85.3382,66.1583 84.5,66.5C 84.5,65.8333 84.5,65.1667 84.5,64.5 Z"/></g>
<g><path style="opacity:1" fill="#42d096" d="M 61.5,59.5 C 63.8146,65.6551 67.8146,70.4884 73.5,74C 71.208,75.2899 69.208,76.9565 67.5,79C 65.2852,79.1705 63.2852,79.8372 61.5,81C 63.9312,82.0924 63.9312,83.2591 61.5,84.5C 59.4048,83.588 57.4048,82.4213 55.5,81C 52.5862,77.5996 49.9195,74.0996 47.5,70.5C 52.1424,66.864 56.8091,63.1973 61.5,59.5 Z"/></g>
<g><path style="opacity:0.008" fill="#000000" d="M 10.5,66.5 C 11.8333,67.1667 11.8333,67.1667 10.5,66.5 Z"/></g>
<g><path style="opacity:0.012" fill="#000000" d="M 83.5,66.5 C 83.8333,66.5 84.1667,66.5 84.5,66.5C 84.3147,67.1701 83.9813,67.1701 83.5,66.5 Z"/></g>
<g><path style="opacity:0.006" fill="#000000" d="M 82.5,67.5 C 82.8333,67.5 83.1667,67.5 83.5,67.5C 83.6716,68.4916 83.3382,69.1583 82.5,69.5C 82.5,68.8333 82.5,68.1667 82.5,67.5 Z"/></g>
<g><path style="opacity:0.012" fill="#000000" d="M 81.5,69.5 C 81.8333,69.5 82.1667,69.5 82.5,69.5C 82.3147,70.1701 81.9813,70.1701 81.5,69.5 Z"/></g>
<g><path style="opacity:0.016" fill="#000000" d="M 80.5,70.5 C 80.8333,70.5 81.1667,70.5 81.5,70.5C 81.3147,71.1701 80.9813,71.1701 80.5,70.5 Z"/></g>
<g><path style="opacity:0.012" fill="#000000" d="M 79.5,71.5 C 79.8333,71.5 80.1667,71.5 80.5,71.5C 80.3147,72.1701 79.9813,72.1701 79.5,71.5 Z"/></g>
<g><path style="opacity:1" fill="#55de98" d="M 47.5,70.5 C 49.9195,74.0996 52.5862,77.5996 55.5,81C 57.4048,82.4213 59.4048,83.588 61.5,84.5C 59.672,85.2828 58.3387,86.6161 57.5,88.5C 57.5,88.8333 57.5,89.1667 57.5,89.5C 56.5084,89.3284 55.8417,89.6618 55.5,90.5C 54.5084,90.3284 53.8417,90.6618 53.5,91.5C 52.5084,91.3284 51.8417,91.6618 51.5,92.5C 50.5084,92.3284 49.8417,92.6618 49.5,93.5C 47.8333,93.5 46.1667,93.5 44.5,93.5C 44.1583,92.6618 43.4916,92.3284 42.5,92.5C 42.5,92.1667 42.5,91.8333 42.5,91.5C 42.9175,90.7784 43.5842,90.2784 44.5,90C 41.5823,88.8502 38.5823,88.0169 35.5,87.5C 33.8333,86.8333 32.1667,86.1667 30.5,85.5C 28.1939,83.8606 26.1939,81.8606 24.5,79.5C 32.3392,77.1059 40.0058,74.1059 47.5,70.5 Z"/></g>
<g><path style="opacity:0.012" fill="#000000" d="M 75.5,76.5 C 76.8333,77.1667 76.8333,77.1667 75.5,76.5 Z"/></g>
<g><path style="opacity:0.012" fill="#000000" d="M 70.5,80.5 C 71.8333,81.1667 71.8333,81.1667 70.5,80.5 Z"/></g>
<g><path style="opacity:0.016" fill="#000000" d="M 69.5,81.5 C 69.8333,81.5 70.1667,81.5 70.5,81.5C 70.3147,82.1701 69.9813,82.1701 69.5,81.5 Z"/></g>
<g><path style="opacity:0.012" fill="#000000" d="M 68.5,82.5 C 68.8333,82.5 69.1667,82.5 69.5,82.5C 69.3147,83.1701 68.9813,83.1701 68.5,82.5 Z"/></g>
<g><path style="opacity:0.006" fill="#000000" d="M 66.5,84.5 C 66.5,84.1667 66.5,83.8333 66.5,83.5C 67.1667,83.5 67.8333,83.5 68.5,83.5C 68.1583,84.3382 67.4916,84.6716 66.5,84.5 Z"/></g>
<g><path style="opacity:0.016" fill="#000000" d="M 65.5,84.5 C 65.8333,84.5 66.1667,84.5 66.5,84.5C 66.3147,85.1701 65.9813,85.1701 65.5,84.5 Z"/></g>
<g><path style="opacity:0.016" fill="#000000" d="M 30.5,85.5 C 30.5,85.8333 30.5,86.1667 30.5,86.5C 29.8299,86.0187 29.8299,85.6853 30.5,85.5 Z"/></g>
<g><path style="opacity:0.008" fill="#000000" d="M 65.5,85.5 C 64.8333,86.1667 64.8333,86.1667 65.5,85.5 Z"/></g>
<g><path style="opacity:0.008" fill="#000000" d="M 30.5,86.5 C 31.8333,87.1667 31.8333,87.1667 30.5,86.5 Z"/></g>
<g><path style="opacity:0.016" fill="#000000" d="M 62.5,86.5 C 63.8333,87.1667 63.8333,87.1667 62.5,86.5 Z"/></g>
<g><path style="opacity:0.008" fill="#000000" d="M 60.5,88.5 C 60.5,88.1667 60.5,87.8333 60.5,87.5C 61.1667,87.5 61.8333,87.5 62.5,87.5C 62.1583,88.3382 61.4916,88.6716 60.5,88.5 Z"/></g>
<g><path style="opacity:1" fill="#3d9a6a" d="M 35.5,87.5 C 38.5823,88.0169 41.5823,88.8502 44.5,90C 43.5842,90.2784 42.9175,90.7784 42.5,91.5C 39.6689,90.9213 37.3356,89.588 35.5,87.5 Z"/></g>
<g><path style="opacity:0.012" fill="#000000" d="M 59.5,88.5 C 59.8333,88.5 60.1667,88.5 60.5,88.5C 60.3147,89.1701 59.9813,89.1701 59.5,88.5 Z"/></g>
<g><path style="opacity:0.012" fill="#000000" d="M 57.5,89.5 C 58.8333,90.1667 58.8333,90.1667 57.5,89.5 Z"/></g>
<g><path style="opacity:0.008" fill="#000000" d="M 55.5,91.5 C 55.5,91.1667 55.5,90.8333 55.5,90.5C 56.1667,90.5 56.8333,90.5 57.5,90.5C 57.1583,91.3382 56.4916,91.6716 55.5,91.5 Z"/></g>
<g><path style="opacity:0.008" fill="#000000" d="M 53.5,92.5 C 53.5,92.1667 53.5,91.8333 53.5,91.5C 54.1667,91.5 54.8333,91.5 55.5,91.5C 55.1583,92.3382 54.4916,92.6716 53.5,92.5 Z"/></g>
<g><path style="opacity:0.008" fill="#000000" d="M 40.5,93.5 C 40.8417,92.6618 41.5084,92.3284 42.5,92.5C 42.5,92.8333 42.5,93.1667 42.5,93.5C 41.8333,93.5 41.1667,93.5 40.5,93.5 Z"/></g>
<g><path style="opacity:0.008" fill="#000000" d="M 51.5,93.5 C 51.5,93.1667 51.5,92.8333 51.5,92.5C 52.1667,92.5 52.8333,92.5 53.5,92.5C 53.5,92.8333 53.5,93.1667 53.5,93.5C 52.8333,93.5 52.1667,93.5 51.5,93.5 Z"/></g>
</svg>
