<svg width="36" height="36" viewBox="0 0 103 36" fill="none" xmlns="http://www.w3.org/2000/svg">    <path d="M82.163 35.7237C74.687 35.7237 67.779 31.9689 63.684 25.6794C62.811 24.3395 63.189 22.5451 64.527 21.6719C65.865 20.7987 67.657 21.1763 68.53 22.5162C71.553 27.1597 76.649 29.9317 82.163 29.9317C87.675 29.9317 92.772 27.1597 95.796 22.5162C96.668 21.1763 98.461 20.7984 99.798 21.6719C101.137 22.5454 101.514 24.3395 100.642 25.6794C96.546 31.9689 89.638 35.7237 82.163 35.7237ZM72.296 20.498C75.057 20.498 77.593 19.5168 79.081 17.8726C79.658 17.2394 79.915 16.6123 79.915 15.8405C79.915 14.4292 78.914 13.4429 77.478 13.4429C76.594 13.4429 76.078 13.7283 75.648 14.0392C75.027 14.5052 73.989 15.2842 72.337 15.2842C69.284 15.2842 67.917 12.8518 67.917 10.4419C67.917 8.03209 69.284 5.6007 72.337 5.6007C73.994 5.6007 75.031 6.38072 75.655 6.85078C76.079 7.15663 76.595 7.44092 77.479 7.44092C78.914 7.44092 79.915 6.45564 79.915 5.04443C79.915 4.26031 79.666 3.65169 79.082 3.01228C77.592 1.36912 75.056 0.387939 72.296 0.387939C66.209 0.387939 61.958 4.52202 61.958 10.4419C61.958 16.3629 66.209 20.498 72.296 20.498ZM82.284 10.4419C82.284 4.70984 86.602 0.387939 92.328 0.387939C98.051 0.387939 102.367 4.70984 102.367 10.4419C102.367 16.175 98.051 20.498 92.328 20.498C86.602 20.498 82.284 16.175 82.284 10.4419ZM92.328 15.2011C95.064 15.2011 96.495 12.8066 96.495 10.4419C96.495 8.07725 95.064 5.68384 92.328 5.68384C89.589 5.68384 88.156 8.07725 88.156 10.4419C88.156 12.8066 89.589 15.2011 92.328 15.2011ZM25.4075 0.387939C23.5685 0.387939" fill="currentColor" /></svg>