<?xml version="1.0" standalone="no"?>
<!DOCTYPE svg PUBLIC "-//W3C//DTD SVG 20010904//EN"
 "http://www.w3.org/TR/2001/REC-SVG-20010904/DTD/svg10.dtd">
<svg version="1.0" xmlns="http://www.w3.org/2000/svg"
 width="119.000000pt" height="157.000000pt" viewBox="0 0 119.000000 157.000000"
 preserveAspectRatio="xMidYMid meet">

<g transform="translate(0.000000,157.000000) scale(0.100000,-0.100000)"
fill="yellow" stroke="none">
<path d="M895 1552 c-143 -1 -267 -5 -275 -9 -8 -3 -24 -5 -34 -4 -13 2 -17
-2 -13 -13 4 -11 1 -13 -10 -9 -8 3 -18 0 -23 -6 -4 -7 -16 -14 -26 -15 -10
-2 -18 -9 -16 -15 1 -6 -4 -11 -11 -11 -16 0 -145 -66 -168 -86 -8 -8 -20 -14
-26 -14 -6 0 -16 -7 -23 -15 -7 -8 -21 -15 -31 -15 -11 0 -19 -4 -19 -10 0 -5
-13 -10 -30 -10 -16 0 -30 -5 -30 -11 0 -16 -26 -39 -45 -39 -8 0 -18 -7 -21
-15 -4 -8 -10 -13 -14 -10 -4 3 -11 -2 -14 -11 -3 -8 -10 -12 -16 -9 -6 4 -10
69 -10 166 0 99 -4 159 -10 159 -6 0 -10 -65 -10 -174 0 -106 -4 -177 -10
-181 -6 -4 -10 -107 -9 -278 0 -161 4 -264 9 -252 5 12 9 -34 10 -125 l1 -145
61 -35 c146 -84 222 -130 213 -130 -12 0 76 -56 203 -129 l92 -53 43 24 c145
82 524 302 535 311 15 12 18 347 2 347 -6 0 -10 105 -10 295 0 190 4 295 10
295 16 0 13 227 -2 231 -7 2 -130 3 -273 1z m245 -530 c0 -309 -3 -337 -42
-361 -10 -6 -18 -8 -17 -4 3 19 -2 27 -10 15 -4 -7 -17 -15 -27 -16 -10 -2
-18 -9 -16 -16 2 -8 -3 -10 -13 -7 -8 4 -15 2 -15 -2 0 -5 -13 -14 -30 -19
-21 -8 -28 -16 -24 -26 3 -9 1 -16 -6 -16 -6 0 -8 5 -5 10 3 6 -1 10 -9 10 -9
0 -16 -4 -16 -10 0 -5 -6 -10 -14 -10 -9 0 -13 -7 -11 -20 3 -14 -2 -20 -14
-20 -27 0 -33 12 -15 31 17 19 11 39 -12 39 -16 0 -19 16 -4 25 19 11 10 33
-15 39 -20 5 -24 10 -17 24 14 26 4 40 -24 34 -23 -4 -24 -2 -18 23 7 27 6 28
-25 22 -28 -6 -31 -4 -31 18 0 25 -23 35 -35 15 -10 -16 -23 -12 -30 10 -8 25
-30 26 -45 3 -10 -17 -10 -17 -20 0 -15 23 -37 22 -45 -4 -5 -15 -10 -18 -18
-10 -19 19 -47 13 -47 -10 0 -18 -4 -20 -30 -14 -27 6 -30 4 -30 -19 0 -21 -5
-26 -26 -26 -23 0 -25 -3 -20 -25 5 -21 2 -27 -20 -36 -21 -7 -24 -13 -16 -21
16 -16 15 -38 -2 -38 -20 0 -29 -30 -11 -36 20 -8 19 -24 -2 -39 -18 -13 -10
-35 13 -35 16 0 19 -16 4 -25 -19 -11 -10 -33 15 -39 22 -6 24 -9 15 -26 -14
-26 -4 -43 20 -35 15 5 19 0 22 -22 3 -24 7 -28 31 -25 15 1 27 -2 27 -8 0 -6
-4 -8 -10 -5 -5 3 -10 1 -10 -4 0 -6 5 -11 11 -11 5 0 8 -4 4 -9 -3 -5 -18 -8
-33 -6 -19 2 -34 -5 -50 -24 -13 -14 -20 -19 -16 -11 6 12 5 13 -7 3 -15 -12
-53 6 -266 128 l-43 24 0 138 c0 115 2 137 15 137 8 0 15 7 15 16 0 8 4 12 10
9 13 -8 70 26 70 42 0 7 6 10 14 7 8 -3 17 0 21 5 3 6 11 9 16 6 5 -4 6 2 2
11 -5 13 -3 16 10 11 9 -3 27 3 41 14 14 11 26 17 26 12 0 -4 7 0 14 10 8 10
24 20 37 22 12 3 26 10 29 16 4 6 11 11 16 11 21 1 55 23 69 44 8 13 21 21 29
18 19 -7 105 41 157 89 10 9 19 12 19 6 0 -5 5 -7 10 -4 6 4 8 11 5 16 -4 5 1
9 9 9 9 0 16 3 16 8 0 11 58 34 70 27 5 -3 10 2 10 12 0 15 2 16 10 3 8 -12 2
-23 -27 -47 l-36 -33 62 0 c62 0 63 0 41 18 l-22 18 27 33 28 33 23 -29 c28
-34 30 -49 7 -62 -13 -8 2 -10 59 -11 l77 0 -50 75 c-36 53 -49 81 -44 95 3
11 11 20 16 20 6 0 7 -5 4 -10 -4 -6 9 -3 29 6 19 10 33 20 31 24 -6 10 29 37
43 32 7 -2 12 2 12 8 0 7 7 10 15 6 9 -3 15 1 15 11 0 13 3 13 16 3 8 -8 14
-9 13 -4 -3 19 1 34 11 34 6 0 10 -106 10 -298z m-570 -347 c0 -47 -4 -67 -14
-71 -8 -3 -42 9 -76 26 l-62 31 22 24 c27 29 77 54 108 55 21 0 22 -4 22 -65z
m103 49 c41 -21 67 -44 67 -59 0 -15 -115 -69 -129 -61 -6 4 -11 35 -11 72 0
58 2 64 20 64 12 0 35 -7 53 -16z m-199 -130 c31 -20 56 -40 56 -44 0 -9 -106
-80 -119 -80 -13 0 -21 27 -21 73 0 49 9 87 20 87 4 0 33 -16 64 -36z m300 14
c9 -35 7 -108 -3 -108 -5 0 -11 -7 -13 -15 -2 -12 -15 -8 -61 21 -32 20 -57
40 -55 45 4 11 100 77 114 78 7 1 14 -9 18 -21z m-174 -58 c0 -11 -7 -20 -15
-20 -8 0 -15 9 -15 20 0 11 7 20 15 20 8 0 15 -9 15 -20z m-36 -66 c8 -22 7
-97 -2 -109 -13 -19 -41 -16 -79 8 -71 45 -72 52 -6 86 67 35 79 37 87 15z
m94 -1 c19 -11 30 -25 30 -40 0 -19 -3 -21 -14 -12 -13 11 -18 5 -15 -15 1 -5
-7 -6 -19 -3 -11 3 -18 2 -16 -1 2 -4 -2 -13 -10 -20 -12 -11 -14 -6 -14 32 0
48 7 76 20 76 5 0 22 -8 38 -17z"/>
<path d="M1090 679 c0 -5 5 -7 10 -4 6 3 10 8 10 11 0 2 -4 4 -10 4 -5 0 -10
-5 -10 -11z"/>
<path d="M860 550 c-9 -6 -10 -10 -3 -10 6 0 15 5 18 10 8 12 4 12 -15 0z"/>
</g>
</svg>
