<svg xmlns="http://www.w3.org/2000/svg" viewBox="0 0 224 24">
    <path fill="#E24D42" d="M5,3H19A2,2 0 0,1 21,5V19A2,2 0 0,1 19,21H5A2,2 0 0,1 3,19V5A2,2 0 0,1 5,3M11,7A2,2 0 0,0 9,9V15A2,2 0 0,0 11,17H13A2,2 0 0,0 15,15V14H13V15H11V9H13V10H15V9A2,2 0 0,0 13,7H11Z" />
    <path
            fill-rule="evenodd"
            clip-rule="evenodd"
            style="stroke:currentColor;stroke-width:0.2mm"
            d="M 82.6 14.2 L 80.58 14.2 A 0.564 0.564 0 0 1 80.409 14.175 A 0.46 0.46 0 0 1 80.22 14.06 A 0.473 0.473 0 0 1 80.083 13.761 A 0.641 0.641 0 0 1 80.08 13.7 L 80.08 0.7 A 0.564 0.564 0 0 1 80.105 0.529 A 0.46 0.46 0 0 1 80.22 0.34 A 0.473 0.473 0 0 1 80.519 0.203 A 0.641 0.641 0 0 1 80.58 0.2 L 82.4 0.2 A 1.019 1.019 0 0 1 82.56 0.212 Q 82.643 0.225 82.709 0.253 A 0.412 0.412 0 0 1 82.84 0.34 Q 82.948 0.448 82.996 0.52 A 0.368 0.368 0 0 1 83.02 0.56 L 88.36 8.9 L 88.36 0.7 A 0.564 0.564 0 0 1 88.385 0.529 A 0.46 0.46 0 0 1 88.5 0.34 A 0.462 0.462 0 0 1 88.834 0.2 A 0.57 0.57 0 0 1 88.84 0.2 L 90.88 0.2 A 0.564 0.564 0 0 1 91.051 0.225 A 0.46 0.46 0 0 1 91.24 0.34 A 0.473 0.473 0 0 1 91.377 0.639 A 0.641 0.641 0 0 1 91.38 0.7 L 91.38 13.7 A 0.497 0.497 0 0 1 91.24 14.05 A 0.465 0.465 0 0 1 90.907 14.2 A 0.624 0.624 0 0 1 90.88 14.2 L 89.04 14.2 A 0.944 0.944 0 0 1 88.885 14.188 Q 88.804 14.175 88.741 14.146 A 0.377 0.377 0 0 1 88.61 14.05 Q 88.49 13.912 88.43 13.85 A 1.187 1.187 0 0 0 88.42 13.84 L 83.1 5.76 L 83.1 13.7 A 0.564 0.564 0 0 1 83.075 13.871 A 0.46 0.46 0 0 1 82.96 14.06 A 0.473 0.473 0 0 1 82.661 14.197 A 0.641 0.641 0 0 1 82.6 14.2 Z M 37.7 14.2 L 28.48 14.2 A 0.564 0.564 0 0 1 28.309 14.175 A 0.46 0.46 0 0 1 28.12 14.06 A 0.473 0.473 0 0 1 27.983 13.761 A 0.641 0.641 0 0 1 27.98 13.7 L 27.98 0.7 A 0.564 0.564 0 0 1 28.005 0.529 A 0.46 0.46 0 0 1 28.12 0.34 A 0.473 0.473 0 0 1 28.419 0.203 A 0.641 0.641 0 0 1 28.48 0.2 L 37.54 0.2 A 0.564 0.564 0 0 1 37.711 0.225 A 0.46 0.46 0 0 1 37.9 0.34 A 0.473 0.473 0 0 1 38.037 0.639 A 0.641 0.641 0 0 1 38.04 0.7 L 38.04 2.3 A 0.462 0.462 0 0 1 37.904 2.636 A 0.551 0.551 0 0 1 37.9 2.64 A 0.473 0.473 0 0 1 37.601 2.777 A 0.641 0.641 0 0 1 37.54 2.78 L 31.06 2.78 L 31.06 5.92 L 37.1 5.92 A 0.564 0.564 0 0 1 37.271 5.945 A 0.46 0.46 0 0 1 37.46 6.06 A 0.473 0.473 0 0 1 37.597 6.359 A 0.641 0.641 0 0 1 37.6 6.42 L 37.6 7.9 A 0.462 0.462 0 0 1 37.464 8.236 A 0.551 0.551 0 0 1 37.46 8.24 A 0.473 0.473 0 0 1 37.161 8.377 A 0.641 0.641 0 0 1 37.1 8.38 L 31.06 8.38 L 31.06 11.62 L 37.7 11.62 A 0.564 0.564 0 0 1 37.871 11.645 A 0.46 0.46 0 0 1 38.06 11.76 A 0.473 0.473 0 0 1 38.197 12.059 A 0.641 0.641 0 0 1 38.2 12.12 L 38.2 13.7 A 0.564 0.564 0 0 1 38.175 13.871 A 0.46 0.46 0 0 1 38.06 14.06 A 0.473 0.473 0 0 1 37.761 14.197 A 0.641 0.641 0 0 1 37.7 14.2 Z M 77.2 14.2 L 67.98 14.2 A 0.564 0.564 0 0 1 67.809 14.175 A 0.46 0.46 0 0 1 67.62 14.06 A 0.473 0.473 0 0 1 67.483 13.761 A 0.641 0.641 0 0 1 67.48 13.7 L 67.48 0.7 A 0.564 0.564 0 0 1 67.505 0.529 A 0.46 0.46 0 0 1 67.62 0.34 A 0.473 0.473 0 0 1 67.919 0.203 A 0.641 0.641 0 0 1 67.98 0.2 L 77.04 0.2 A 0.564 0.564 0 0 1 77.211 0.225 A 0.46 0.46 0 0 1 77.4 0.34 A 0.473 0.473 0 0 1 77.537 0.639 A 0.641 0.641 0 0 1 77.54 0.7 L 77.54 2.3 A 0.462 0.462 0 0 1 77.404 2.636 A 0.551 0.551 0 0 1 77.4 2.64 A 0.473 0.473 0 0 1 77.101 2.777 A 0.641 0.641 0 0 1 77.04 2.78 L 70.56 2.78 L 70.56 5.92 L 76.6 5.92 A 0.564 0.564 0 0 1 76.771 5.945 A 0.46 0.46 0 0 1 76.96 6.06 A 0.473 0.473 0 0 1 77.097 6.359 A 0.641 0.641 0 0 1 77.1 6.42 L 77.1 7.9 A 0.462 0.462 0 0 1 76.964 8.236 A 0.551 0.551 0 0 1 76.96 8.24 A 0.473 0.473 0 0 1 76.661 8.377 A 0.641 0.641 0 0 1 76.6 8.38 L 70.56 8.38 L 70.56 11.62 L 77.2 11.62 A 0.564 0.564 0 0 1 77.371 11.645 A 0.46 0.46 0 0 1 77.56 11.76 A 0.473 0.473 0 0 1 77.697 12.059 A 0.641 0.641 0 0 1 77.7 12.12 L 77.7 13.7 A 0.564 0.564 0 0 1 77.675 13.871 A 0.46 0.46 0 0 1 77.56 14.06 A 0.473 0.473 0 0 1 77.261 14.197 A 0.641 0.641 0 0 1 77.2 14.2 Z M 40.18 10.04 L 42.32 10.04 Q 42.493 10.04 42.613 10.089 A 0.44 0.44 0 0 1 42.72 10.15 A 1.359 1.359 0 0 1 42.903 10.325 A 1.631 1.631 0 0 1 42.98 10.42 A 1.867 1.867 0 0 0 43.191 10.796 A 2.515 2.515 0 0 0 43.43 11.08 A 1.924 1.924 0 0 0 43.791 11.368 Q 43.965 11.478 44.179 11.569 A 3.46 3.46 0 0 0 44.28 11.61 Q 44.724 11.783 45.343 11.813 A 5.585 5.585 0 0 0 45.62 11.82 Q 46.92 11.82 47.57 11.4 A 1.563 1.563 0 0 0 47.95 11.064 A 1.252 1.252 0 0 0 48.22 10.26 A 1.253 1.253 0 0 0 48.16 9.864 A 1.034 1.034 0 0 0 47.87 9.42 A 1.89 1.89 0 0 0 47.586 9.21 Q 47.265 9.012 46.77 8.84 Q 46.037 8.586 44.835 8.293 A 42.097 42.097 0 0 0 44.78 8.28 Q 43.497 8.006 42.543 7.594 A 7.873 7.873 0 0 1 42.23 7.45 A 4.585 4.585 0 0 1 41.411 6.946 A 3.386 3.386 0 0 1 40.65 6.13 A 2.843 2.843 0 0 1 40.642 6.117 Q 40.122 5.313 40.12 4.128 A 5.696 5.696 0 0 1 40.12 4.12 A 3.702 3.702 0 0 1 40.404 2.661 A 3.548 3.548 0 0 1 40.78 1.99 A 4.119 4.119 0 0 1 41.991 0.87 A 5.309 5.309 0 0 1 42.64 0.53 Q 43.84 0 45.5 0 A 8.5 8.5 0 0 1 46.688 0.079 A 6.207 6.207 0 0 1 47.87 0.36 A 6.338 6.338 0 0 1 48.788 0.76 A 4.729 4.729 0 0 1 49.59 1.3 A 5.066 5.066 0 0 1 50.189 1.89 A 3.836 3.836 0 0 1 50.64 2.54 Q 51 3.2 51.02 3.82 A 0.406 0.406 0 0 1 50.931 4.073 A 0.539 0.539 0 0 1 50.9 4.11 A 0.389 0.389 0 0 1 50.617 4.24 A 0.487 0.487 0 0 1 50.6 4.24 L 48.36 4.24 A 0.861 0.861 0 0 1 48.148 4.215 A 0.731 0.731 0 0 1 48 4.16 Q 47.84 4.08 47.74 3.88 A 1.262 1.262 0 0 0 47.462 3.343 Q 47.33 3.187 47.14 3.047 A 2.548 2.548 0 0 0 47.03 2.97 Q 46.514 2.629 45.73 2.586 A 4.227 4.227 0 0 0 45.5 2.58 Q 44.818 2.58 44.335 2.754 A 1.968 1.968 0 0 0 43.95 2.94 A 1.163 1.163 0 0 0 43.4 3.776 A 1.673 1.673 0 0 0 43.38 4.04 A 1.317 1.317 0 0 0 43.444 4.457 A 1.128 1.128 0 0 0 43.67 4.85 A 1.412 1.412 0 0 0 43.917 5.068 Q 44.177 5.252 44.587 5.407 A 4.927 4.927 0 0 0 44.65 5.43 A 13.245 13.245 0 0 0 45.125 5.591 Q 45.678 5.768 46.43 5.967 A 41.199 41.199 0 0 0 46.48 5.98 A 19.787 19.787 0 0 1 47.66 6.257 Q 48.209 6.405 48.672 6.571 A 8.776 8.776 0 0 1 49.34 6.84 A 4.781 4.781 0 0 1 50.111 7.275 Q 50.543 7.579 50.834 7.953 A 2.824 2.824 0 0 1 50.96 8.13 A 3.028 3.028 0 0 1 51.377 9.133 Q 51.48 9.586 51.48 10.12 A 3.996 3.996 0 0 1 51.294 11.361 A 3.427 3.427 0 0 1 50.73 12.42 A 4.407 4.407 0 0 1 49.398 13.548 A 5.7 5.7 0 0 1 48.67 13.89 Q 47.379 14.393 45.671 14.4 A 11.834 11.834 0 0 1 45.62 14.4 A 10.938 10.938 0 0 1 44.269 14.321 Q 43.216 14.19 42.41 13.84 A 5.838 5.838 0 0 1 41.466 13.329 Q 40.929 12.966 40.561 12.512 A 3.551 3.551 0 0 1 40.46 12.38 A 3.695 3.695 0 0 1 39.924 11.36 A 3.241 3.241 0 0 1 39.76 10.46 A 0.406 0.406 0 0 1 39.849 10.207 A 0.539 0.539 0 0 1 39.88 10.17 A 0.389 0.389 0 0 1 40.163 10.04 A 0.487 0.487 0 0 1 40.18 10.04 Z M 11.66 5.16 L 9.38 5.16 A 0.779 0.779 0 0 1 9.227 5.146 Q 9.092 5.119 9 5.04 A 0.526 0.526 0 0 1 8.902 4.925 Q 8.829 4.813 8.78 4.64 Q 8.48 3.46 7.78 3.02 Q 7.08 2.58 6.04 2.58 A 3.652 3.652 0 0 0 5.224 2.666 Q 4.544 2.822 4.08 3.26 A 2.097 2.097 0 0 0 3.597 3.978 Q 3.335 4.594 3.3 5.52 Q 3.24 7.16 3.3 8.88 A 5.69 5.69 0 0 0 3.386 9.698 Q 3.563 10.651 4.08 11.14 Q 4.783 11.804 5.982 11.82 A 4.456 4.456 0 0 0 6.04 11.82 A 3.995 3.995 0 0 0 6.831 11.746 Q 7.368 11.637 7.79 11.37 Q 8.5 10.92 8.78 9.76 A 1.431 1.431 0 0 1 8.829 9.608 Q 8.89 9.453 8.974 9.373 A 0.361 0.361 0 0 1 9 9.35 Q 9.14 9.24 9.38 9.24 L 11.66 9.24 Q 11.84 9.24 11.97 9.36 A 0.389 0.389 0 0 1 12.1 9.643 A 0.487 0.487 0 0 1 12.1 9.66 A 4.804 4.804 0 0 1 11.894 10.907 A 4.218 4.218 0 0 1 11.62 11.58 A 4.566 4.566 0 0 1 10.442 13.03 A 5.25 5.25 0 0 1 10.38 13.08 A 5.419 5.419 0 0 1 9.075 13.845 A 6.59 6.59 0 0 1 8.48 14.06 A 7.562 7.562 0 0 1 7.012 14.352 A 9.571 9.571 0 0 1 6.04 14.4 Q 4.387 14.4 3.174 13.913 A 5.354 5.354 0 0 1 2.85 13.77 Q 1.54 13.14 0.82 11.93 Q 0.105 10.728 0.021 9.004 A 9.089 9.089 0 0 1 0.02 8.98 Q 0 8.16 0 7.22 Q 0 6.28 0.02 5.42 A 7.4 7.4 0 0 1 0.214 4.013 A 5.399 5.399 0 0 1 0.83 2.49 Q 1.56 1.28 2.88 0.64 Q 4.152 0.024 5.906 0.001 A 10.416 10.416 0 0 1 6.04 0 Q 7.38 0 8.48 0.34 A 6.147 6.147 0 0 1 9.68 0.85 A 5.179 5.179 0 0 1 10.38 1.32 A 4.645 4.645 0 0 1 11.47 2.55 A 4.411 4.411 0 0 1 11.62 2.82 A 4.41 4.41 0 0 1 12.071 4.35 A 5.272 5.272 0 0 1 12.1 4.74 A 0.408 0.408 0 0 1 12.064 4.914 A 0.401 0.401 0 0 1 11.97 5.04 Q 11.84 5.16 11.66 5.16 Z M 64.8 5.16 L 62.52 5.16 A 0.779 0.779 0 0 1 62.367 5.146 Q 62.232 5.119 62.14 5.04 A 0.526 0.526 0 0 1 62.042 4.925 Q 61.969 4.813 61.92 4.64 Q 61.62 3.46 60.92 3.02 Q 60.22 2.58 59.18 2.58 A 3.652 3.652 0 0 0 58.364 2.666 Q 57.684 2.822 57.22 3.26 A 2.097 2.097 0 0 0 56.737 3.978 Q 56.475 4.594 56.44 5.52 Q 56.38 7.16 56.44 8.88 A 5.69 5.69 0 0 0 56.526 9.698 Q 56.703 10.651 57.22 11.14 Q 57.923 11.804 59.122 11.82 A 4.456 4.456 0 0 0 59.18 11.82 A 3.995 3.995 0 0 0 59.971 11.746 Q 60.508 11.637 60.93 11.37 Q 61.64 10.92 61.92 9.76 A 1.431 1.431 0 0 1 61.969 9.608 Q 62.03 9.453 62.114 9.373 A 0.361 0.361 0 0 1 62.14 9.35 Q 62.28 9.24 62.52 9.24 L 64.8 9.24 Q 64.98 9.24 65.11 9.36 A 0.389 0.389 0 0 1 65.24 9.643 A 0.487 0.487 0 0 1 65.24 9.66 A 4.804 4.804 0 0 1 65.034 10.907 A 4.218 4.218 0 0 1 64.76 11.58 A 4.566 4.566 0 0 1 63.582 13.03 A 5.25 5.25 0 0 1 63.52 13.08 A 5.419 5.419 0 0 1 62.215 13.845 A 6.59 6.59 0 0 1 61.62 14.06 A 7.562 7.562 0 0 1 60.152 14.352 A 9.571 9.571 0 0 1 59.18 14.4 Q 57.527 14.4 56.314 13.913 A 5.354 5.354 0 0 1 55.99 13.77 Q 54.68 13.14 53.96 11.93 Q 53.245 10.728 53.161 9.004 A 9.089 9.089 0 0 1 53.16 8.98 Q 53.14 8.16 53.14 7.22 Q 53.14 6.28 53.16 5.42 A 7.4 7.4 0 0 1 53.354 4.013 A 5.399 5.399 0 0 1 53.97 2.49 Q 54.7 1.28 56.02 0.64 Q 57.292 0.024 59.046 0.001 A 10.416 10.416 0 0 1 59.18 0 Q 60.52 0 61.62 0.34 A 6.147 6.147 0 0 1 62.82 0.85 A 5.179 5.179 0 0 1 63.52 1.32 A 4.645 4.645 0 0 1 64.61 2.55 A 4.411 4.411 0 0 1 64.76 2.82 A 4.41 4.41 0 0 1 65.211 4.35 A 5.272 5.272 0 0 1 65.24 4.74 A 0.408 0.408 0 0 1 65.204 4.914 A 0.401 0.401 0 0 1 65.11 5.04 Q 64.98 5.16 64.8 5.16 Z M 17.02 14.2 L 14.84 14.2 A 0.564 0.564 0 0 1 14.669 14.175 A 0.46 0.46 0 0 1 14.48 14.06 A 0.473 0.473 0 0 1 14.343 13.761 A 0.641 0.641 0 0 1 14.34 13.7 L 14.34 0.7 A 0.564 0.564 0 0 1 14.365 0.529 A 0.46 0.46 0 0 1 14.48 0.34 A 0.473 0.473 0 0 1 14.779 0.203 A 0.641 0.641 0 0 1 14.84 0.2 L 20.14 0.2 Q 22.021 0.2 23.302 0.851 A 4.535 4.535 0 0 1 24.08 1.35 A 3.734 3.734 0 0 1 25.449 3.748 A 5.577 5.577 0 0 1 25.52 4.66 Q 25.52 6.12 24.82 7.1 A 4.179 4.179 0 0 1 23.013 8.53 A 4.992 4.992 0 0 1 22.94 8.56 L 25.76 13.56 Q 25.82 13.68 25.82 13.78 A 0.406 0.406 0 0 1 25.731 14.033 A 0.539 0.539 0 0 1 25.7 14.07 A 0.389 0.389 0 0 1 25.417 14.2 A 0.487 0.487 0 0 1 25.4 14.2 L 23.18 14.2 A 1.084 1.084 0 0 1 22.974 14.182 Q 22.857 14.159 22.767 14.109 A 0.533 0.533 0 0 1 22.64 14.01 Q 22.51 13.873 22.433 13.752 A 0.996 0.996 0 0 1 22.38 13.66 L 19.94 9.08 L 17.52 9.08 L 17.52 13.7 A 0.564 0.564 0 0 1 17.495 13.871 A 0.46 0.46 0 0 1 17.38 14.06 A 0.473 0.473 0 0 1 17.081 14.197 A 0.641 0.641 0 0 1 17.02 14.2 Z M 99.96 14.2 L 94.84 14.2 A 0.564 0.564 0 0 1 94.669 14.175 A 0.46 0.46 0 0 1 94.48 14.06 A 0.473 0.473 0 0 1 94.343 13.761 A 0.641 0.641 0 0 1 94.34 13.7 L 94.34 0.7 A 0.564 0.564 0 0 1 94.365 0.529 A 0.46 0.46 0 0 1 94.48 0.34 A 0.473 0.473 0 0 1 94.779 0.203 A 0.641 0.641 0 0 1 94.84 0.2 L 99.86 0.2 Q 101.46 0.2 102.637 0.603 A 5.534 5.534 0 0 1 103.2 0.83 A 4.702 4.702 0 0 1 104.702 1.923 A 4.485 4.485 0 0 1 105.25 2.67 A 5.165 5.165 0 0 1 105.815 4.117 Q 105.981 4.826 106 5.66 A 89.404 89.404 0 0 1 106.012 6.289 Q 106.016 6.538 106.018 6.766 A 50.695 50.695 0 0 1 106.02 7.2 A 52.764 52.764 0 0 1 106.016 7.816 Q 106.012 8.131 106.005 8.482 A 91.755 91.755 0 0 1 106 8.72 A 8.982 8.982 0 0 1 105.868 10.025 Q 105.742 10.721 105.502 11.299 A 4.853 4.853 0 0 1 105.26 11.8 Q 104.58 13.02 103.26 13.61 A 6.206 6.206 0 0 1 101.979 14.013 Q 101.074 14.2 99.96 14.2 Z M 110.94 13.8 A 5.648 5.648 0 0 0 111.082 13.862 Q 112.357 14.4 114.08 14.4 Q 115.88 14.4 117.2 13.8 Q 118.52 13.2 119.26 11.99 Q 120 10.78 120.06 8.94 Q 120.1 8.08 120.1 7.23 Q 120.1 6.38 120.06 5.5 Q 120.02 3.7 119.26 2.47 Q 118.5 1.24 117.17 0.62 A 6.387 6.387 0 0 0 115.636 0.136 A 8.481 8.481 0 0 0 114.08 0 A 8.759 8.759 0 0 0 112.658 0.11 A 6.456 6.456 0 0 0 110.97 0.62 Q 109.64 1.24 108.89 2.47 Q 108.445 3.2 108.243 4.132 A 7.655 7.655 0 0 0 108.08 5.5 Q 108.06 6.38 108.06 7.23 Q 108.06 8.08 108.08 8.94 Q 108.14 10.78 108.88 11.99 Q 109.62 13.2 110.94 13.8 Z M 97.52 2.78 L 97.52 11.62 L 99.86 11.62 A 5.481 5.481 0 0 0 100.532 11.581 Q 101.09 11.512 101.5 11.32 Q 102.14 11.02 102.45 10.37 A 2.97 2.97 0 0 0 102.654 9.778 Q 102.725 9.479 102.756 9.128 A 6.415 6.415 0 0 0 102.78 8.68 A 98.964 98.964 0 0 0 102.797 8.163 Q 102.805 7.884 102.81 7.64 Q 102.82 7.18 102.81 6.72 Q 102.8 6.26 102.78 5.7 Q 102.755 4.744 102.449 4.109 A 2.161 2.161 0 0 0 102.01 3.49 Q 101.28 2.78 99.76 2.78 L 97.52 2.78 Z M 114.08 11.82 A 3.107 3.107 0 0 0 114.986 11.694 A 2.496 2.496 0 0 0 115.99 11.11 A 2.216 2.216 0 0 0 116.522 10.296 Q 116.659 9.949 116.723 9.517 A 5.528 5.528 0 0 0 116.78 8.84 Q 116.82 7.96 116.82 7.19 A 33.369 33.369 0 0 0 116.801 6.089 A 39.404 39.404 0 0 0 116.78 5.56 A 5.134 5.134 0 0 0 116.722 4.862 Q 116.665 4.5 116.553 4.199 A 2.575 2.575 0 0 0 116.4 3.86 A 2.572 2.572 0 0 0 115.983 3.289 A 2.126 2.126 0 0 0 115.45 2.89 A 2.674 2.674 0 0 0 114.594 2.617 A 3.482 3.482 0 0 0 114.08 2.58 Q 113.3 2.58 112.7 2.89 A 2.16 2.16 0 0 0 111.878 3.644 A 2.722 2.722 0 0 0 111.75 3.86 Q 111.465 4.398 111.385 5.189 A 6.054 6.054 0 0 0 111.36 5.56 Q 111.34 6.42 111.34 7.19 Q 111.34 7.96 111.36 8.84 A 5.437 5.437 0 0 0 111.452 9.671 Q 111.536 10.102 111.693 10.441 A 2.189 2.189 0 0 0 112.16 11.11 A 2.515 2.515 0 0 0 113.576 11.785 A 3.482 3.482 0 0 0 114.08 11.82 Z M 17.52 2.7 L 17.52 6.54 L 20.08 6.54 Q 20.768 6.54 21.233 6.345 A 1.579 1.579 0 0 0 21.71 6.04 A 1.636 1.636 0 0 0 22.182 5.194 A 2.474 2.474 0 0 0 22.24 4.64 Q 22.24 3.74 21.72 3.22 A 1.576 1.576 0 0 0 21.138 2.86 Q 20.892 2.77 20.588 2.731 A 3.965 3.965 0 0 0 20.08 2.7 L 17.52 2.7 Z"
            fill="currentColor"
            transform="translate(25,5)"
    ></path>-->
</svg>
