<svg width="32" height="24" viewBox="0 0 32 24" fill="none" xmlns="http://www.w3.org/2000/svg">
<g>
<path fill-rule="evenodd" clip-rule="evenodd" d="M24.3481 14.0672C22.533 17.2743 20.3563 19.0776 15.6489 19.598C10.4618 20.1771 6.17492 16.8088 4.48156 14.2944C6.64105 15.0536 8.94167 15.3339 11.2218 15.1154C15.4497 14.7306 17.8624 13.0702 19.5927 10.3506C19.8546 9.94378 20.5629 8.66828 19.3234 8.23945C18.1871 7.84727 17.143 7.83627 16.3314 9.02014C15.0143 10.9517 13.4722 11.6921 10.2442 12.044C5.9425 12.5021 0.777569 9.67256 0.179913 10.2627C-0.889966 11.3182 2.58161 22.9224 15.3759 22.7795C19.9837 22.7281 23.2192 21.1668 26.2481 17.2816C26.9859 16.3396 26.7572 15.1961 25.9492 14.1222C25.4512 13.4587 24.7429 13.4111 24.3629 14.0818" fill="currentColor"/>
<path fill-rule="evenodd" clip-rule="evenodd" d="M27.7123 7.10689C29.4278 2.66462 27.7713 -0.131961 27.1368 -1.24653e-05C26.6203 0.11361 25.6611 3.03481 24.296 4.73548C19.7066 2.64629 16.8253 4.54489 16.8917 5.55283C16.9471 6.39217 20.7249 5.7874 24.2702 8.85154C28.0369 12.0953 28.1476 15.6102 29.2249 15.5956C30.0881 15.5956 31.9217 12.1759 27.7123 7.10689Z" fill="currentColor"/>
</g>
</svg>