<svg viewBox="0 0 248 40" xmlns="http://www.w3.org/2000/svg" xmlns:xlink="http://www.w3.org/1999/xlink"
     zoomAndPan="magnify">
    <path fill-rule="evenodd" clip-rule="evenodd"
          d="M34.728 0.275L2.245 15.267c-3.748 1.749 -2.498 7.246 1.499 7.246h13.743v13.743c0 3.998 5.497 5.248 7.246 1.499l14.992 -32.483c1.249 -2.999 -1.999 -6.248 -4.998 -4.998z"
          fill="#E24D42" transform="translate(0,1) scale(0.9)"></path>
    <path fill-rule="evenodd" clip-rule="evenodd" style="stroke:#FFFFFF;stroke-width:0.2mm;"
          d="M 79.359 8.313 L 86.465 8.313 L 86.465 10.743 L 82.977 11.393 A 5.821 5.821 0 0 1 83.646 12.64 A 6.785 6.785 0 0 1 83.775 12.998 A 5.943 5.943 0 0 1 84.051 14.404 A 7.114 7.114 0 0 1 84.071 14.955 A 7.459 7.459 0 0 1 83.762 17.157 A 5.823 5.823 0 0 1 81.873 19.974 Q 79.674 21.802 75.815 21.802 A 20.794 20.794 0 0 1 74.042 21.657 A 19.301 19.301 0 0 1 74.015 21.653 Q 73.434 22.009 73.091 22.427 A 2.495 2.495 0 0 0 72.994 22.553 A 1.849 1.849 0 0 0 72.642 23.657 A 1.152 1.152 0 0 0 72.705 24.045 A 0.986 0.986 0 0 0 72.994 24.464 Q 73.253 24.689 73.696 24.829 A 3.772 3.772 0 0 0 74.043 24.919 A 5.965 5.965 0 0 0 74.608 25.009 Q 74.924 25.046 75.288 25.059 A 12.127 12.127 0 0 0 75.74 25.067 L 79.284 25.067 Q 82.661 25.067 84.443 26.496 A 4.608 4.608 0 0 1 86.083 29.24 A 7.059 7.059 0 0 1 86.224 30.689 A 6.749 6.749 0 0 1 85.764 33.229 Q 85.13 34.806 83.621 35.897 A 7.914 7.914 0 0 1 83.329 36.098 A 9.973 9.973 0 0 1 80.71 37.285 Q 79.447 37.665 77.914 37.843 A 25.327 25.327 0 0 1 74.998 38 Q 70.823 38 68.597 36.497 Q 66.509 35.088 66.379 32.618 A 6.328 6.328 0 0 1 66.37 32.285 A 4.995 4.995 0 0 1 66.658 30.564 A 4.451 4.451 0 0 1 67.558 29.084 A 5.351 5.351 0 0 1 69.162 27.895 Q 69.842 27.558 70.676 27.343 A 9.78 9.78 0 0 1 70.953 27.275 A 3.613 3.613 0 0 1 69.68 26.318 A 4.338 4.338 0 0 1 69.515 26.116 Q 68.912 25.327 68.912 24.362 A 3.4 3.4 0 0 1 69.065 23.326 A 2.892 2.892 0 0 1 69.562 22.396 Q 70.065 21.763 70.958 21.164 A 10.673 10.673 0 0 1 71.51 20.818 A 5.593 5.593 0 0 1 68.922 18.583 A 6.312 6.312 0 0 1 68.024 16.073 A 8.131 8.131 0 0 1 67.947 14.937 A 8.743 8.743 0 0 1 68.122 13.145 A 6.365 6.365 0 0 1 68.894 11.142 Q 69.84 9.574 71.658 8.749 Q 73.477 7.923 76.056 7.923 A 10.925 10.925 0 0 1 76.638 7.939 A 14.165 14.165 0 0 1 77.271 7.988 A 28.63 28.63 0 0 1 77.907 8.057 A 23.007 23.007 0 0 1 78.496 8.136 A 11.29 11.29 0 0 1 78.762 8.179 Q 79.136 8.243 79.359 8.313 Z M 41.154 15.475 L 41.154 28.871 L 36.794 28.871 L 36.794 16.291 A 9.304 9.304 0 0 0 36.707 14.975 Q 36.611 14.304 36.408 13.762 A 3.701 3.701 0 0 0 35.811 12.701 A 3.096 3.096 0 0 0 34.264 11.701 Q 33.604 11.504 32.768 11.504 A 7.577 7.577 0 0 0 31.271 11.641 Q 30.424 11.812 29.788 12.196 A 3.51 3.51 0 0 0 28.621 13.341 A 6.389 6.389 0 0 0 27.914 14.951 Q 27.461 16.486 27.461 18.666 L 27.461 28.871 L 23.101 28.871 L 23.101 8.331 L 26.496 8.331 L 27.109 11.114 L 27.35 11.114 Q 28.018 10.038 29.01 9.342 A 7.354 7.354 0 0 1 31.16 8.316 A 8.269 8.269 0 0 1 31.237 8.294 A 9.309 9.309 0 0 1 33.807 7.941 A 10.828 10.828 0 0 1 35.965 8.143 Q 37.928 8.543 39.216 9.732 Q 40.732 11.133 41.063 13.857 A 13.467 13.467 0 0 1 41.154 15.475 Z M 149.031 15.048 L 149.031 28.871 L 145.933 28.871 L 145.098 25.958 L 144.949 25.958 A 12.194 12.194 0 0 1 144.063 26.974 A 9.235 9.235 0 0 1 143.15 27.795 A 6.329 6.329 0 0 1 141.306 28.784 A 7.315 7.315 0 0 1 141.007 28.88 Q 140.011 29.177 138.66 29.23 A 15.478 15.478 0 0 1 138.047 29.242 A 8.529 8.529 0 0 1 136.205 29.051 A 6.901 6.901 0 0 1 134.763 28.565 Q 133.316 27.888 132.481 26.496 A 5.514 5.514 0 0 1 131.854 24.919 Q 131.646 24.038 131.646 22.971 A 6.732 6.732 0 0 1 131.925 20.976 A 5.079 5.079 0 0 1 134.011 18.202 A 8.257 8.257 0 0 1 135.999 17.248 Q 138.079 16.547 141.164 16.439 L 144.727 16.31 L 144.727 15.233 A 7.229 7.229 0 0 0 144.653 14.158 Q 144.569 13.607 144.393 13.17 A 2.652 2.652 0 0 0 143.734 12.19 A 3.256 3.256 0 0 0 142.429 11.474 Q 141.936 11.33 141.346 11.293 A 6.597 6.597 0 0 0 140.942 11.281 A 10.1 10.1 0 0 0 137.954 11.727 A 21.104 21.104 0 0 0 135.134 12.821 L 133.724 9.741 A 14.364 14.364 0 0 1 135.656 8.898 A 18.155 18.155 0 0 1 137.147 8.442 A 15.777 15.777 0 0 1 141.146 7.941 A 14.07 14.07 0 0 1 143.344 8.102 Q 145.65 8.467 147.037 9.667 A 5.357 5.357 0 0 1 148.608 12.088 Q 148.899 12.965 148.99 14.035 A 11.957 11.957 0 0 1 149.031 15.048 Z M 18.184 17.256 L 18.184 19.594 L 4.472 19.594 A 9.656 9.656 0 0 0 4.677 21.406 Q 5.048 23.111 6.077 24.195 A 5.001 5.001 0 0 0 8.617 25.619 A 7.602 7.602 0 0 0 10.372 25.81 A 17.469 17.469 0 0 0 12.239 25.714 A 12.952 12.952 0 0 0 13.907 25.429 Q 15.475 25.049 17.145 24.307 L 17.145 27.851 Q 15.605 28.574 14.009 28.908 A 14.375 14.375 0 0 1 12.55 29.131 Q 11.81 29.207 10.971 29.231 A 27.47 27.47 0 0 1 10.187 29.242 A 13.174 13.174 0 0 1 7.429 28.966 A 10.254 10.254 0 0 1 4.871 28.064 A 8.424 8.424 0 0 1 1.29 24.548 A 9.788 9.788 0 0 1 0.323 21.927 Q 0.061 20.747 0.012 19.381 A 17.837 17.837 0 0 1 0 18.74 A 17.01 17.01 0 0 1 0.193 16.108 Q 0.421 14.653 0.919 13.439 A 9.825 9.825 0 0 1 1.169 12.877 A 9.009 9.009 0 0 1 2.81 10.5 A 8.001 8.001 0 0 1 4.453 9.203 A 8.9 8.9 0 0 1 7.858 8.041 A 11.407 11.407 0 0 1 9.389 7.941 A 11.167 11.167 0 0 1 11.643 8.158 A 8.215 8.215 0 0 1 14.102 9.073 A 7.584 7.584 0 0 1 17.126 12.283 A 9.394 9.394 0 0 1 17.974 14.84 Q 18.177 15.932 18.184 17.175 A 15.752 15.752 0 0 1 18.184 17.256 Z M 64.218 17.256 L 64.218 19.594 L 50.506 19.594 A 9.656 9.656 0 0 0 50.712 21.406 Q 51.083 23.111 52.111 24.195 A 5.001 5.001 0 0 0 54.652 25.619 A 7.602 7.602 0 0 0 56.406 25.81 A 17.469 17.469 0 0 0 58.273 25.714 A 12.952 12.952 0 0 0 59.941 25.429 Q 61.509 25.049 63.179 24.307 L 63.179 27.851 Q 61.639 28.574 60.043 28.908 A 14.375 14.375 0 0 1 58.584 29.131 Q 57.844 29.207 57.005 29.231 A 27.47 27.47 0 0 1 56.221 29.242 A 13.174 13.174 0 0 1 53.463 28.966 A 10.254 10.254 0 0 1 50.905 28.064 A 8.424 8.424 0 0 1 47.324 24.548 A 9.788 9.788 0 0 1 46.357 21.927 Q 46.095 20.747 46.046 19.381 A 17.837 17.837 0 0 1 46.034 18.74 A 17.01 17.01 0 0 1 46.227 16.108 Q 46.455 14.653 46.953 13.439 A 9.825 9.825 0 0 1 47.203 12.877 A 9.009 9.009 0 0 1 48.844 10.5 A 8.001 8.001 0 0 1 50.487 9.203 A 8.9 8.9 0 0 1 53.892 8.041 A 11.407 11.407 0 0 1 55.423 7.941 A 11.167 11.167 0 0 1 57.677 8.158 A 8.215 8.215 0 0 1 60.136 9.073 A 7.584 7.584 0 0 1 63.16 12.283 A 9.394 9.394 0 0 1 64.008 14.84 Q 64.211 15.932 64.218 17.175 A 15.752 15.752 0 0 1 64.218 17.256 Z M 107.172 17.256 L 107.172 19.594 L 93.46 19.594 A 9.656 9.656 0 0 0 93.666 21.406 Q 94.037 23.111 95.065 24.195 A 5.001 5.001 0 0 0 97.606 25.619 A 7.602 7.602 0 0 0 99.361 25.81 A 17.469 17.469 0 0 0 101.228 25.714 A 12.952 12.952 0 0 0 102.895 25.429 Q 104.463 25.049 106.133 24.307 L 106.133 27.851 Q 104.593 28.574 102.997 28.908 A 14.375 14.375 0 0 1 101.539 29.131 Q 100.799 29.207 99.959 29.231 A 27.47 27.47 0 0 1 99.175 29.242 A 13.174 13.174 0 0 1 96.417 28.966 A 10.254 10.254 0 0 1 93.859 28.064 A 8.424 8.424 0 0 1 90.278 24.548 A 9.788 9.788 0 0 1 89.311 21.927 Q 89.049 20.747 89 19.381 A 17.837 17.837 0 0 1 88.988 18.74 A 17.01 17.01 0 0 1 89.181 16.108 Q 89.409 14.653 89.907 13.439 A 9.825 9.825 0 0 1 90.157 12.877 A 9.009 9.009 0 0 1 91.799 10.5 A 8.001 8.001 0 0 1 93.442 9.203 A 8.9 8.9 0 0 1 96.846 8.041 A 11.407 11.407 0 0 1 98.377 7.941 A 11.167 11.167 0 0 1 100.631 8.158 A 8.215 8.215 0 0 1 103.09 9.073 A 7.584 7.584 0 0 1 106.114 12.283 A 9.394 9.394 0 0 1 106.962 14.84 Q 107.165 15.932 107.172 17.175 A 15.752 15.752 0 0 1 107.172 17.256 Z M 116.468 0 L 116.468 28.871 L 112.089 28.871 L 112.089 0 L 116.468 0 Z M 155.136 8.331 L 159.496 8.331 L 159.496 28.871 L 155.136 28.871 L 155.136 8.331 Z M 77.67 28.778 L 74.442 28.778 A 6.507 6.507 0 0 0 73.339 28.868 A 4.897 4.897 0 0 0 72.308 29.159 Q 71.38 29.539 70.87 30.263 A 2.772 2.772 0 0 0 70.397 31.478 A 3.651 3.651 0 0 0 70.36 32.007 Q 70.36 33.417 71.612 34.178 A 4.502 4.502 0 0 0 72.725 34.649 Q 73.745 34.938 75.165 34.938 A 19.498 19.498 0 0 0 76.775 34.876 Q 77.561 34.811 78.236 34.677 A 9.495 9.495 0 0 0 79.006 34.493 A 7.487 7.487 0 0 0 79.988 34.142 Q 80.493 33.918 80.883 33.635 A 3.597 3.597 0 0 0 81.362 33.222 A 2.722 2.722 0 0 0 82.16 31.265 A 3.211 3.211 0 0 0 82.108 30.664 Q 82.042 30.322 81.897 30.055 A 1.627 1.627 0 0 0 81.659 29.725 A 2.108 2.108 0 0 0 81.08 29.294 Q 80.814 29.156 80.483 29.062 A 4.403 4.403 0 0 0 80.156 28.982 Q 79.409 28.83 78.393 28.791 A 19.03 19.03 0 0 0 77.67 28.778 Z M 144.708 20.837 L 144.708 19.056 L 142.055 19.148 A 17.788 17.788 0 0 0 140.544 19.26 Q 138.46 19.51 137.472 20.262 A 3.199 3.199 0 0 0 136.175 22.583 A 4.277 4.277 0 0 0 136.154 23.008 A 4.018 4.018 0 0 0 136.235 23.838 Q 136.341 24.342 136.589 24.718 A 2.081 2.081 0 0 0 137.064 25.225 A 3.214 3.214 0 0 0 138.23 25.778 Q 138.681 25.894 139.209 25.916 A 6.029 6.029 0 0 0 139.457 25.921 A 6.542 6.542 0 0 0 141.23 25.691 A 5.11 5.11 0 0 0 143.215 24.631 A 4.133 4.133 0 0 0 144.515 22.48 Q 144.708 21.737 144.708 20.837 Z M 76.019 18.944 A 5.527 5.527 0 0 0 77.092 18.847 Q 77.705 18.726 78.175 18.453 A 2.74 2.74 0 0 0 78.858 17.896 A 3.444 3.444 0 0 0 79.568 16.586 Q 79.785 15.862 79.785 14.937 Q 79.785 13.6 79.39 12.694 A 3.12 3.12 0 0 0 78.83 11.819 Q 77.962 10.876 76.338 10.789 A 6.318 6.318 0 0 0 76 10.78 A 5.083 5.083 0 0 0 74.896 10.893 Q 74.178 11.053 73.649 11.439 A 2.907 2.907 0 0 0 73.208 11.838 A 3.346 3.346 0 0 0 72.53 13.03 Q 72.358 13.538 72.293 14.159 A 7.763 7.763 0 0 0 72.252 14.974 A 5.919 5.919 0 0 0 72.36 16.14 Q 72.573 17.2 73.208 17.896 Q 74.09 18.864 75.741 18.938 A 6.215 6.215 0 0 0 76.019 18.944 Z M 4.565 16.477 L 13.916 16.477 A 8.468 8.468 0 0 0 13.783 15.046 A 6.415 6.415 0 0 0 13.406 13.749 Q 12.914 12.562 11.922 11.894 A 3.736 3.736 0 0 0 10.692 11.368 Q 10.099 11.226 9.389 11.226 A 5.159 5.159 0 0 0 7.846 11.446 A 4.128 4.128 0 0 0 6.058 12.562 Q 5.016 13.657 4.679 15.589 A 10.329 10.329 0 0 0 4.565 16.477 Z M 50.599 16.477 L 59.95 16.477 A 8.468 8.468 0 0 0 59.817 15.046 A 6.415 6.415 0 0 0 59.44 13.749 Q 58.948 12.562 57.956 11.894 A 3.736 3.736 0 0 0 56.726 11.368 Q 56.133 11.226 55.423 11.226 A 5.159 5.159 0 0 0 53.88 11.446 A 4.128 4.128 0 0 0 52.092 12.562 Q 51.05 13.657 50.713 15.589 A 10.329 10.329 0 0 0 50.599 16.477 Z M 93.553 16.477 L 102.904 16.477 A 8.468 8.468 0 0 0 102.772 15.046 A 6.415 6.415 0 0 0 102.394 13.749 Q 101.903 12.562 100.91 11.894 A 3.736 3.736 0 0 0 99.681 11.368 Q 99.087 11.226 98.377 11.226 A 5.159 5.159 0 0 0 96.834 11.446 A 4.128 4.128 0 0 0 95.047 12.562 Q 94.004 13.657 93.667 15.589 A 10.329 10.329 0 0 0 93.553 16.477 Z M 122.112 25.806 A 4.6 4.6 0 0 0 122.053 26.57 A 4.791 4.791 0 0 0 122.08 27.09 Q 122.125 27.5 122.244 27.831 A 2.006 2.006 0 0 0 122.841 28.713 Q 123.63 29.372 124.762 29.372 A 3.716 3.716 0 0 0 125.006 29.364 A 2.914 2.914 0 0 0 126.701 28.713 Q 127.275 28.245 127.441 27.359 A 4.295 4.295 0 0 0 127.508 26.57 A 4.773 4.773 0 0 0 127.474 25.981 Q 127.423 25.578 127.3 25.257 A 1.865 1.865 0 0 0 126.701 24.427 A 2.894 2.894 0 0 0 125.782 23.951 A 3.44 3.44 0 0 0 124.762 23.806 A 3.774 3.774 0 0 0 124.316 23.831 A 2.881 2.881 0 0 0 122.841 24.427 A 1.802 1.802 0 0 0 122.323 25.097 Q 122.179 25.407 122.112 25.806 Z M 157.344 0.464 Q 158.346 0.464 159.079 1.002 Q 159.812 1.54 159.812 2.857 Q 159.812 4.156 159.079 4.704 A 2.754 2.754 0 0 1 157.605 5.241 A 3.484 3.484 0 0 1 157.344 5.251 A 3.275 3.275 0 0 1 156.497 5.146 A 2.56 2.56 0 0 1 155.591 4.704 A 1.664 1.664 0 0 1 155.044 3.939 Q 154.939 3.656 154.9 3.304 A 4.034 4.034 0 0 1 154.876 2.857 Q 154.876 2.078 155.126 1.572 A 1.569 1.569 0 0 1 155.591 1.002 A 2.644 2.644 0 0 1 156.785 0.506 A 3.541 3.541 0 0 1 157.344 0.464 Z"
          fill="#FFFFFF" transform="translate(40,0)"></path>
</svg>