<svg xmlns="http://www.w3.org/2000/svg" version="1.1" xmlns:xlink="http://www.w3.org/1999/xlink"
     xmlns:svgjs="http://svgjs.dev/svgjs" viewBox="0 0 600 1000" opacity="0.4">
    <g fill="#ffffff" fill-opacity="1"><g transform="translate(392.205456, 136.397201)"><g><path d="M 28.046875 -51.453125 C 32.722656 -51.453125 36.742188 -50.554688 40.109375 -48.765625 C 43.484375 -46.972656 46.085938 -44.375 47.921875 -40.96875 C 49.765625 -37.570312 50.6875 -33.414062 50.6875 -28.5 L 50.6875 -21.8125 L 18.109375 -21.8125 C 18.265625 -17.925781 19.429688 -14.875 21.609375 -12.65625 C 23.796875 -10.445312 26.832031 -9.34375 30.71875 -9.34375 C 33.9375 -9.34375 36.882812 -9.675781 39.5625 -10.34375 C 42.25 -11.007812 45.007812 -12.003906 47.84375 -13.328125 L 47.84375 -2.671875 C 45.34375 -1.429688 42.726562 -0.523438 40 0.046875 C 37.269531 0.617188 33.960938 0.90625 30.078125 0.90625 C 25.023438 0.90625 20.546875 -0.0234375 16.640625 -1.890625 C 12.742188 -3.765625 9.6875 -6.613281 7.46875 -10.4375 C 5.257812 -14.257812 4.15625 -19.078125 4.15625 -24.890625 C 4.15625 -30.796875 5.15625 -35.710938 7.15625 -39.640625 C 9.164062 -43.566406 11.960938 -46.515625 15.546875 -48.484375 C 19.128906 -50.460938 23.296875 -51.453125 28.046875 -51.453125 Z M 28.140625 -41.65625 C 25.460938 -41.65625 23.242188 -40.796875 21.484375 -39.078125 C 19.722656 -37.359375 18.707031 -34.660156 18.4375 -30.984375 L 37.765625 -30.984375 C 37.734375 -33.035156 37.363281 -34.859375 36.65625 -36.453125 C 35.945312 -38.046875 34.890625 -39.3125 33.484375 -40.25 C 32.085938 -41.1875 30.304688 -41.65625 28.140625 -41.65625 Z M 28.140625 -41.65625 "/></g></g></g><g fill="#ffffff" fill-opacity="1"><g transform="translate(443.072508, 136.397201)"><g><path d="M 35.90625 -51.453125 C 41.300781 -51.453125 45.640625 -49.984375 48.921875 -47.046875 C 52.203125 -44.109375 53.84375 -39.40625 53.84375 -32.9375 L 53.84375 0 L 40.0625 0 L 40.0625 -29.5 C 40.0625 -33.113281 39.40625 -35.835938 38.09375 -37.671875 C 36.789062 -39.515625 34.738281 -40.4375 31.9375 -40.4375 C 27.71875 -40.4375 24.835938 -39.003906 23.296875 -36.140625 C 21.765625 -33.273438 21 -29.148438 21 -23.765625 L 21 0 L 7.234375 0 L 7.234375 -50.5 L 17.75 -50.5 L 19.609375 -44.046875 L 20.375 -44.046875 C 21.457031 -45.796875 22.800781 -47.210938 24.40625 -48.296875 C 26.019531 -49.378906 27.8125 -50.175781 29.78125 -50.6875 C 31.757812 -51.195312 33.800781 -51.453125 35.90625 -51.453125 Z M 35.90625 -51.453125 "/></g></g></g><g fill="#ffffff" fill-opacity="1"><g transform="translate(500.083202, 136.397201)"><g><path d="M 28.046875 -51.453125 C 32.722656 -51.453125 36.742188 -50.554688 40.109375 -48.765625 C 43.484375 -46.972656 46.085938 -44.375 47.921875 -40.96875 C 49.765625 -37.570312 50.6875 -33.414062 50.6875 -28.5 L 50.6875 -21.8125 L 18.109375 -21.8125 C 18.265625 -17.925781 19.429688 -14.875 21.609375 -12.65625 C 23.796875 -10.445312 26.832031 -9.34375 30.71875 -9.34375 C 33.9375 -9.34375 36.882812 -9.675781 39.5625 -10.34375 C 42.25 -11.007812 45.007812 -12.003906 47.84375 -13.328125 L 47.84375 -2.671875 C 45.34375 -1.429688 42.726562 -0.523438 40 0.046875 C 37.269531 0.617188 33.960938 0.90625 30.078125 0.90625 C 25.023438 0.90625 20.546875 -0.0234375 16.640625 -1.890625 C 12.742188 -3.765625 9.6875 -6.613281 7.46875 -10.4375 C 5.257812 -14.257812 4.15625 -19.078125 4.15625 -24.890625 C 4.15625 -30.796875 5.15625 -35.710938 7.15625 -39.640625 C 9.164062 -43.566406 11.960938 -46.515625 15.546875 -48.484375 C 19.128906 -50.460938 23.296875 -51.453125 28.046875 -51.453125 Z M 28.140625 -41.65625 C 25.460938 -41.65625 23.242188 -40.796875 21.484375 -39.078125 C 19.722656 -37.359375 18.707031 -34.660156 18.4375 -30.984375 L 37.765625 -30.984375 C 37.734375 -33.035156 37.363281 -34.859375 36.65625 -36.453125 C 35.945312 -38.046875 34.890625 -39.3125 33.484375 -40.25 C 32.085938 -41.1875 30.304688 -41.65625 28.140625 -41.65625 Z M 28.140625 -41.65625 "/></g></g></g><g fill="#ffffff" fill-opacity="1"><g transform="translate(550.950259, 136.397201)"><g><path d="M 22 22.21875 C 14.945312 22.21875 9.5625 20.988281 5.84375 18.53125 C 2.125 16.082031 0.265625 12.644531 0.265625 8.21875 C 0.265625 5.175781 1.210938 2.628906 3.109375 0.578125 C 5.015625 -1.460938 7.800781 -2.921875 11.46875 -3.796875 C 10.050781 -4.398438 8.816406 -5.382812 7.765625 -6.75 C 6.710938 -8.125 6.1875 -9.578125 6.1875 -11.109375 C 6.1875 -13.035156 6.742188 -14.640625 7.859375 -15.921875 C 8.972656 -17.203125 10.582031 -18.460938 12.6875 -19.703125 C 10.039062 -20.835938 7.941406 -22.671875 6.390625 -25.203125 C 4.835938 -27.734375 4.0625 -30.71875 4.0625 -34.15625 C 4.0625 -37.820312 4.867188 -40.941406 6.484375 -43.515625 C 8.097656 -46.097656 10.445312 -48.066406 13.53125 -49.421875 C 16.613281 -50.773438 20.367188 -51.453125 24.796875 -51.453125 C 25.734375 -51.453125 26.816406 -51.390625 28.046875 -51.265625 C 29.285156 -51.148438 30.421875 -51.015625 31.453125 -50.859375 C 32.492188 -50.710938 33.195312 -50.59375 33.5625 -50.5 L 51.1875 -50.5 L 51.1875 -43.5 L 43.28125 -41.46875 C 44 -40.351562 44.535156 -39.160156 44.890625 -37.890625 C 45.253906 -36.628906 45.4375 -35.289062 45.4375 -33.875 C 45.4375 -28.457031 43.546875 -24.234375 39.765625 -21.203125 C 35.992188 -18.179688 30.75 -16.671875 24.03125 -16.671875 C 22.4375 -16.753906 20.929688 -16.875 19.515625 -17.03125 C 18.816406 -16.488281 18.285156 -15.914062 17.921875 -15.3125 C 17.566406 -14.707031 17.390625 -14.078125 17.390625 -13.421875 C 17.390625 -12.753906 17.664062 -12.203125 18.21875 -11.765625 C 18.78125 -11.328125 19.625 -10.992188 20.75 -10.765625 C 21.882812 -10.546875 23.296875 -10.4375 24.984375 -10.4375 L 33.5625 -10.4375 C 39.101562 -10.4375 43.328125 -9.242188 46.234375 -6.859375 C 49.140625 -4.484375 50.59375 -0.992188 50.59375 3.609375 C 50.59375 9.515625 48.128906 14.09375 43.203125 17.34375 C 38.285156 20.59375 31.21875 22.21875 22 22.21875 Z M 22.59375 13.234375 C 25.875 13.234375 28.695312 12.925781 31.0625 12.3125 C 33.425781 11.695312 35.238281 10.820312 36.5 9.6875 C 37.757812 8.5625 38.390625 7.210938 38.390625 5.640625 C 38.390625 4.378906 38.019531 3.378906 37.28125 2.640625 C 36.550781 1.898438 35.441406 1.378906 33.953125 1.078125 C 32.460938 0.773438 30.554688 0.625 28.234375 0.625 L 21.09375 0.625 C 19.40625 0.625 17.890625 0.894531 16.546875 1.4375 C 15.210938 1.988281 14.15625 2.75 13.375 3.71875 C 12.59375 4.695312 12.203125 5.835938 12.203125 7.140625 C 12.203125 9.035156 13.109375 10.523438 14.921875 11.609375 C 16.742188 12.691406 19.300781 13.234375 22.59375 13.234375 Z M 24.796875 -25.078125 C 27.390625 -25.078125 29.285156 -25.875 30.484375 -27.46875 C 31.691406 -29.0625 32.296875 -31.226562 32.296875 -33.96875 C 32.296875 -37.007812 31.671875 -39.289062 30.421875 -40.8125 C 29.171875 -42.332031 27.296875 -43.09375 24.796875 -43.09375 C 22.265625 -43.09375 20.367188 -42.332031 19.109375 -40.8125 C 17.847656 -39.289062 17.21875 -37.007812 17.21875 -33.96875 C 17.21875 -31.226562 17.835938 -29.0625 19.078125 -27.46875 C 20.328125 -25.875 22.234375 -25.078125 24.796875 -25.078125 Z M 24.796875 -25.078125 "/></g></g></g><g fill="#ffffff" fill-opacity="1"><g transform="translate(599.423097, 136.397201)"><g><path d="M 28.046875 -51.453125 C 32.722656 -51.453125 36.742188 -50.554688 40.109375 -48.765625 C 43.484375 -46.972656 46.085938 -44.375 47.921875 -40.96875 C 49.765625 -37.570312 50.6875 -33.414062 50.6875 -28.5 L 50.6875 -21.8125 L 18.109375 -21.8125 C 18.265625 -17.925781 19.429688 -14.875 21.609375 -12.65625 C 23.796875 -10.445312 26.832031 -9.34375 30.71875 -9.34375 C 33.9375 -9.34375 36.882812 -9.675781 39.5625 -10.34375 C 42.25 -11.007812 45.007812 -12.003906 47.84375 -13.328125 L 47.84375 -2.671875 C 45.34375 -1.429688 42.726562 -0.523438 40 0.046875 C 37.269531 0.617188 33.960938 0.90625 30.078125 0.90625 C 25.023438 0.90625 20.546875 -0.0234375 16.640625 -1.890625 C 12.742188 -3.765625 9.6875 -6.613281 7.46875 -10.4375 C 5.257812 -14.257812 4.15625 -19.078125 4.15625 -24.890625 C 4.15625 -30.796875 5.15625 -35.710938 7.15625 -39.640625 C 9.164062 -43.566406 11.960938 -46.515625 15.546875 -48.484375 C 19.128906 -50.460938 23.296875 -51.453125 28.046875 -51.453125 Z M 28.140625 -41.65625 C 25.460938 -41.65625 23.242188 -40.796875 21.484375 -39.078125 C 19.722656 -37.359375 18.707031 -34.660156 18.4375 -30.984375 L 37.765625 -30.984375 C 37.734375 -33.035156 37.363281 -34.859375 36.65625 -36.453125 C 35.945312 -38.046875 34.890625 -39.3125 33.484375 -40.25 C 32.085938 -41.1875 30.304688 -41.65625 28.140625 -41.65625 Z M 28.140625 -41.65625 "/></g></g></g><g fill="#ffffff" fill-opacity="1"><g transform="translate(650.290144, 136.397201)"><g><path d="M 21 0 L 7.234375 0 L 7.234375 -70.296875 L 21 -70.296875 Z M 21 0 "/></g></g></g><g fill="#ffffff" fill-opacity="1"><g transform="translate(674.730499, 136.397201)"><g><path d="M 5.28125 -6.453125 C 5.28125 -9.285156 6.054688 -11.273438 7.609375 -12.421875 C 9.160156 -13.566406 11.035156 -14.140625 13.234375 -14.140625 C 15.367188 -14.140625 17.210938 -13.566406 18.765625 -12.421875 C 20.316406 -11.273438 21.09375 -9.285156 21.09375 -6.453125 C 21.09375 -3.742188 20.316406 -1.785156 18.765625 -0.578125 C 17.210938 0.617188 15.367188 1.21875 13.234375 1.21875 C 11.035156 1.21875 9.160156 0.617188 7.609375 -0.578125 C 6.054688 -1.785156 5.28125 -3.742188 5.28125 -6.453125 Z M 5.28125 -6.453125 "/></g></g></g><g fill="#ffffff" fill-opacity="1"><g transform="translate(697.318732, 136.397201)"><g><path d="M 27.921875 -51.546875 C 34.691406 -51.546875 39.882812 -50.066406 43.5 -47.109375 C 47.113281 -44.160156 48.921875 -39.675781 48.921875 -33.65625 L 48.921875 0 L 39.296875 0 L 36.640625 -6.859375 L 36.28125 -6.859375 C 34.832031 -5.054688 33.351562 -3.582031 31.84375 -2.4375 C 30.34375 -1.289062 28.613281 -0.445312 26.65625 0.09375 C 24.695312 0.632812 22.316406 0.90625 19.515625 0.90625 C 16.535156 0.90625 13.863281 0.332031 11.5 -0.8125 C 9.132812 -1.957031 7.273438 -3.710938 5.921875 -6.078125 C 4.566406 -8.441406 3.890625 -11.445312 3.890625 -15.09375 C 3.890625 -20.445312 5.769531 -24.394531 9.53125 -26.9375 C 13.289062 -29.488281 18.9375 -30.898438 26.46875 -31.171875 L 35.234375 -31.4375 L 35.234375 -33.65625 C 35.234375 -36.300781 34.539062 -38.238281 33.15625 -39.46875 C 31.769531 -40.707031 29.84375 -41.328125 27.375 -41.328125 C 24.9375 -41.328125 22.539062 -40.976562 20.1875 -40.28125 C 17.84375 -39.59375 15.492188 -38.722656 13.140625 -37.671875 L 8.578125 -46.984375 C 11.265625 -48.398438 14.269531 -49.515625 17.59375 -50.328125 C 20.925781 -51.140625 24.367188 -51.546875 27.921875 -51.546875 Z M 35.234375 -23.40625 L 29.90625 -23.21875 C 25.445312 -23.09375 22.351562 -22.289062 20.625 -20.8125 C 18.894531 -19.34375 18.03125 -17.40625 18.03125 -15 C 18.03125 -12.882812 18.644531 -11.382812 19.875 -10.5 C 21.113281 -9.613281 22.722656 -9.171875 24.703125 -9.171875 C 27.660156 -9.171875 30.15625 -10.039062 32.1875 -11.78125 C 34.21875 -13.53125 35.234375 -16.019531 35.234375 -19.25 Z M 35.234375 -23.40625 "/></g></g></g><g fill="#ffffff" fill-opacity="1"><g transform="translate(749.405477, 136.397201)"><g><path d="M 21 -50.5 L 21 0 L 7.234375 0 L 7.234375 -50.5 Z M 14.140625 -70.296875 C 16.191406 -70.296875 17.953125 -69.816406 19.421875 -68.859375 C 20.898438 -67.910156 21.640625 -66.144531 21.640625 -63.5625 C 21.640625 -61 20.898438 -59.226562 19.421875 -58.25 C 17.953125 -57.269531 16.191406 -56.78125 14.140625 -56.78125 C 12.054688 -56.78125 10.285156 -57.269531 8.828125 -58.25 C 7.367188 -59.226562 6.640625 -61 6.640625 -63.5625 C 6.640625 -66.144531 7.367188 -67.910156 8.828125 -68.859375 C 10.285156 -69.816406 12.054688 -70.296875 14.140625 -70.296875 Z M 14.140625 -70.296875 "/></g></g></g><g fill="#d5e6fe" fill-opacity="1"><g transform="translate(401.038231, 181.347201)"><g><path d="M 8.484375 0 L 1.671875 0 L 1.671875 -19.21875 L 8.53125 -19.21875 C 10.46875 -19.21875 12.132812 -18.832031 13.53125 -18.0625 C 14.925781 -17.300781 16 -16.203125 16.75 -14.765625 C 17.507812 -13.335938 17.890625 -11.625 17.890625 -9.625 C 17.890625 -7.625 17.507812 -5.90625 16.75 -4.46875 C 16 -3.03125 14.921875 -1.925781 13.515625 -1.15625 C 12.109375 -0.382812 10.429688 0 8.484375 0 Z M 5.734375 -3.484375 L 8.3125 -3.484375 C 10.125 -3.484375 11.492188 -3.96875 12.421875 -4.9375 C 13.359375 -5.914062 13.828125 -7.476562 13.828125 -9.625 C 13.828125 -11.757812 13.359375 -13.3125 12.421875 -14.28125 C 11.492188 -15.25 10.128906 -15.734375 8.328125 -15.734375 L 5.734375 -15.734375 Z M 5.734375 -3.484375 "/></g></g></g><g fill="#d5e6fe" fill-opacity="1"><g transform="translate(419.615269, 181.347201)"><g><path d="M 8.15625 0.28125 C 6.6875 0.28125 5.414062 -0.0195312 4.34375 -0.625 C 3.269531 -1.226562 2.445312 -2.082031 1.875 -3.1875 C 1.300781 -4.300781 1.015625 -5.617188 1.015625 -7.140625 C 1.015625 -8.617188 1.300781 -9.914062 1.875 -11.03125 C 2.445312 -12.15625 3.257812 -13.03125 4.3125 -13.65625 C 5.363281 -14.28125 6.59375 -14.59375 8 -14.59375 C 9.269531 -14.59375 10.414062 -14.320312 11.4375 -13.78125 C 12.457031 -13.25 13.269531 -12.441406 13.875 -11.359375 C 14.476562 -10.273438 14.78125 -8.914062 14.78125 -7.28125 L 14.78125 -6.1875 L 4.96875 -6.1875 L 4.96875 -6.171875 C 4.96875 -5.097656 5.257812 -4.25 5.84375 -3.625 C 6.4375 -3.007812 7.234375 -2.703125 8.234375 -2.703125 C 8.898438 -2.703125 9.476562 -2.84375 9.96875 -3.125 C 10.457031 -3.40625 10.800781 -3.820312 11 -4.375 L 14.6875 -4.125 C 14.40625 -2.789062 13.691406 -1.722656 12.546875 -0.921875 C 11.410156 -0.117188 9.945312 0.28125 8.15625 0.28125 Z M 4.96875 -8.65625 L 11.015625 -8.65625 C 11.003906 -9.519531 10.726562 -10.226562 10.1875 -10.78125 C 9.644531 -11.332031 8.9375 -11.609375 8.0625 -11.609375 C 7.175781 -11.609375 6.445312 -11.320312 5.875 -10.75 C 5.3125 -10.175781 5.007812 -9.476562 4.96875 -8.65625 Z M 4.96875 -8.65625 "/></g></g></g><g fill="#d5e6fe" fill-opacity="1"><g transform="translate(434.76845, 181.347201)"><g><path d="M 5.59375 -19.21875 L 5.59375 0 L 1.59375 0 L 1.59375 -19.21875 Z M 5.59375 -19.21875 "/></g></g></g><g fill="#d5e6fe" fill-opacity="1"><g transform="translate(441.319791, 181.347201)"><g><path d="M 1.59375 0 L 1.59375 -14.40625 L 5.59375 -14.40625 L 5.59375 0 Z M 3.59375 -16.265625 C 3.007812 -16.265625 2.503906 -16.460938 2.078125 -16.859375 C 1.648438 -17.265625 1.4375 -17.742188 1.4375 -18.296875 C 1.4375 -18.847656 1.648438 -19.320312 2.078125 -19.71875 C 2.503906 -20.113281 3.007812 -20.3125 3.59375 -20.3125 C 4.1875 -20.3125 4.695312 -20.113281 5.125 -19.71875 C 5.550781 -19.320312 5.765625 -18.847656 5.765625 -18.296875 C 5.765625 -17.742188 5.550781 -17.265625 5.125 -16.859375 C 4.695312 -16.460938 4.1875 -16.265625 3.59375 -16.265625 Z M 3.59375 -16.265625 "/></g></g></g><g fill="#d5e6fe" fill-opacity="1"><g transform="translate(447.871131, 181.347201)"><g><path d="M 15.03125 -14.40625 L 10 0 L 5.484375 0 L 0.453125 -14.40625 L 4.671875 -14.40625 L 7.671875 -4.09375 L 7.8125 -4.09375 L 10.796875 -14.40625 Z M 15.03125 -14.40625 "/></g></g></g><g fill="#d5e6fe" fill-opacity="1"><g transform="translate(462.71477, 181.347201)"><g><path d="M 8.15625 0.28125 C 6.6875 0.28125 5.414062 -0.0195312 4.34375 -0.625 C 3.269531 -1.226562 2.445312 -2.082031 1.875 -3.1875 C 1.300781 -4.300781 1.015625 -5.617188 1.015625 -7.140625 C 1.015625 -8.617188 1.300781 -9.914062 1.875 -11.03125 C 2.445312 -12.15625 3.257812 -13.03125 4.3125 -13.65625 C 5.363281 -14.28125 6.59375 -14.59375 8 -14.59375 C 9.269531 -14.59375 10.414062 -14.320312 11.4375 -13.78125 C 12.457031 -13.25 13.269531 -12.441406 13.875 -11.359375 C 14.476562 -10.273438 14.78125 -8.914062 14.78125 -7.28125 L 14.78125 -6.1875 L 4.96875 -6.1875 L 4.96875 -6.171875 C 4.96875 -5.097656 5.257812 -4.25 5.84375 -3.625 C 6.4375 -3.007812 7.234375 -2.703125 8.234375 -2.703125 C 8.898438 -2.703125 9.476562 -2.84375 9.96875 -3.125 C 10.457031 -3.40625 10.800781 -3.820312 11 -4.375 L 14.6875 -4.125 C 14.40625 -2.789062 13.691406 -1.722656 12.546875 -0.921875 C 11.410156 -0.117188 9.945312 0.28125 8.15625 0.28125 Z M 4.96875 -8.65625 L 11.015625 -8.65625 C 11.003906 -9.519531 10.726562 -10.226562 10.1875 -10.78125 C 9.644531 -11.332031 8.9375 -11.609375 8.0625 -11.609375 C 7.175781 -11.609375 6.445312 -11.320312 5.875 -10.75 C 5.3125 -10.175781 5.007812 -9.476562 4.96875 -8.65625 Z M 4.96875 -8.65625 "/></g></g></g><g fill="#d5e6fe" fill-opacity="1"><g transform="translate(477.867954, 181.347201)"><g><path d="M 1.59375 0 L 1.59375 -14.40625 L 5.46875 -14.40625 L 5.46875 -11.890625 L 5.625 -11.890625 C 5.882812 -12.785156 6.320312 -13.460938 6.9375 -13.921875 C 7.550781 -14.390625 8.265625 -14.625 9.078125 -14.625 C 9.472656 -14.625 9.832031 -14.578125 10.15625 -14.484375 C 10.488281 -14.390625 10.785156 -14.257812 11.046875 -14.09375 L 9.859375 -10.796875 C 9.671875 -10.890625 9.460938 -10.96875 9.234375 -11.03125 C 9.015625 -11.09375 8.765625 -11.125 8.484375 -11.125 C 7.679688 -11.125 7 -10.847656 6.4375 -10.296875 C 5.875 -9.742188 5.59375 -9.03125 5.59375 -8.15625 L 5.59375 0 Z M 1.59375 0 "/></g></g></g><g fill="#d5e6fe" fill-opacity="1"><g transform="translate(488.556067, 181.347201)"><g><path d="M 1.59375 0 L 1.59375 -14.40625 L 5.59375 -14.40625 L 5.59375 0 Z M 3.59375 -16.265625 C 3.007812 -16.265625 2.503906 -16.460938 2.078125 -16.859375 C 1.648438 -17.265625 1.4375 -17.742188 1.4375 -18.296875 C 1.4375 -18.847656 1.648438 -19.320312 2.078125 -19.71875 C 2.503906 -20.113281 3.007812 -20.3125 3.59375 -20.3125 C 4.1875 -20.3125 4.695312 -20.113281 5.125 -19.71875 C 5.550781 -19.320312 5.765625 -18.847656 5.765625 -18.296875 C 5.765625 -17.742188 5.550781 -17.265625 5.125 -16.859375 C 4.695312 -16.460938 4.1875 -16.265625 3.59375 -16.265625 Z M 3.59375 -16.265625 "/></g></g></g><g fill="#d5e6fe" fill-opacity="1"><g transform="translate(495.10741, 181.347201)"><g><path d="M 5.59375 -8.328125 L 5.59375 0 L 1.59375 0 L 1.59375 -14.40625 L 5.40625 -14.40625 L 5.40625 -11.875 L 5.578125 -11.875 C 5.898438 -12.707031 6.429688 -13.367188 7.171875 -13.859375 C 7.921875 -14.347656 8.832031 -14.59375 9.90625 -14.59375 C 11.40625 -14.59375 12.609375 -14.109375 13.515625 -13.140625 C 14.421875 -12.179688 14.875 -10.859375 14.875 -9.171875 L 14.875 0 L 10.890625 0 L 10.890625 -8.46875 C 10.890625 -9.34375 10.660156 -10.03125 10.203125 -10.53125 C 9.753906 -11.03125 9.128906 -11.28125 8.328125 -11.28125 C 7.515625 -11.28125 6.851562 -11.019531 6.34375 -10.5 C 5.84375 -9.988281 5.59375 -9.265625 5.59375 -8.328125 Z M 5.59375 -8.328125 "/></g></g></g><g fill="#d5e6fe" fill-opacity="1"><g transform="translate(510.89847, 181.347201)"><g><path d="M 8.09375 5.609375 C 6.144531 5.609375 4.617188 5.226562 3.515625 4.46875 C 2.410156 3.707031 1.738281 2.78125 1.5 1.6875 L 5.203125 1.1875 C 5.359375 1.570312 5.671875 1.925781 6.140625 2.25 C 6.617188 2.570312 7.300781 2.734375 8.1875 2.734375 C 9.050781 2.734375 9.765625 2.523438 10.328125 2.109375 C 10.898438 1.703125 11.1875 1.023438 11.1875 0.078125 L 11.1875 -2.546875 L 11.015625 -2.546875 C 10.753906 -1.953125 10.289062 -1.410156 9.625 -0.921875 C 8.957031 -0.441406 8.050781 -0.203125 6.90625 -0.203125 C 5.820312 -0.203125 4.835938 -0.453125 3.953125 -0.953125 C 3.066406 -1.460938 2.363281 -2.238281 1.84375 -3.28125 C 1.320312 -4.320312 1.0625 -5.640625 1.0625 -7.234375 C 1.0625 -8.867188 1.328125 -10.226562 1.859375 -11.3125 C 2.398438 -12.40625 3.109375 -13.222656 3.984375 -13.765625 C 4.867188 -14.316406 5.835938 -14.59375 6.890625 -14.59375 C 7.703125 -14.59375 8.378906 -14.457031 8.921875 -14.1875 C 9.460938 -13.914062 9.898438 -13.578125 10.234375 -13.171875 C 10.578125 -12.773438 10.835938 -12.378906 11.015625 -11.984375 L 11.171875 -11.984375 L 11.171875 -14.40625 L 15.140625 -14.40625 L 15.140625 0.140625 C 15.140625 1.335938 14.835938 2.34375 14.234375 3.15625 C 13.628906 3.96875 12.796875 4.578125 11.734375 4.984375 C 10.679688 5.398438 9.46875 5.609375 8.09375 5.609375 Z M 8.171875 -3.203125 C 9.140625 -3.203125 9.882812 -3.554688 10.40625 -4.265625 C 10.9375 -4.984375 11.203125 -5.976562 11.203125 -7.25 C 11.203125 -8.507812 10.9375 -9.519531 10.40625 -10.28125 C 9.882812 -11.039062 9.140625 -11.421875 8.171875 -11.421875 C 7.179688 -11.421875 6.425781 -11.03125 5.90625 -10.25 C 5.394531 -9.476562 5.140625 -8.476562 5.140625 -7.25 C 5.140625 -6.007812 5.398438 -5.023438 5.921875 -4.296875 C 6.441406 -3.566406 7.191406 -3.203125 8.171875 -3.203125 Z M 8.171875 -3.203125 "/></g></g></g><g fill="#d5e6fe" fill-opacity="1"><g transform="translate(526.989703, 181.347201)"><g/></g></g><g fill="#d5e6fe" fill-opacity="1"><g transform="translate(532.481067, 181.347201)"><g><path d="M 8.09375 5.609375 C 6.144531 5.609375 4.617188 5.226562 3.515625 4.46875 C 2.410156 3.707031 1.738281 2.78125 1.5 1.6875 L 5.203125 1.1875 C 5.359375 1.570312 5.671875 1.925781 6.140625 2.25 C 6.617188 2.570312 7.300781 2.734375 8.1875 2.734375 C 9.050781 2.734375 9.765625 2.523438 10.328125 2.109375 C 10.898438 1.703125 11.1875 1.023438 11.1875 0.078125 L 11.1875 -2.546875 L 11.015625 -2.546875 C 10.753906 -1.953125 10.289062 -1.410156 9.625 -0.921875 C 8.957031 -0.441406 8.050781 -0.203125 6.90625 -0.203125 C 5.820312 -0.203125 4.835938 -0.453125 3.953125 -0.953125 C 3.066406 -1.460938 2.363281 -2.238281 1.84375 -3.28125 C 1.320312 -4.320312 1.0625 -5.640625 1.0625 -7.234375 C 1.0625 -8.867188 1.328125 -10.226562 1.859375 -11.3125 C 2.398438 -12.40625 3.109375 -13.222656 3.984375 -13.765625 C 4.867188 -14.316406 5.835938 -14.59375 6.890625 -14.59375 C 7.703125 -14.59375 8.378906 -14.457031 8.921875 -14.1875 C 9.460938 -13.914062 9.898438 -13.578125 10.234375 -13.171875 C 10.578125 -12.773438 10.835938 -12.378906 11.015625 -11.984375 L 11.171875 -11.984375 L 11.171875 -14.40625 L 15.140625 -14.40625 L 15.140625 0.140625 C 15.140625 1.335938 14.835938 2.34375 14.234375 3.15625 C 13.628906 3.96875 12.796875 4.578125 11.734375 4.984375 C 10.679688 5.398438 9.46875 5.609375 8.09375 5.609375 Z M 8.171875 -3.203125 C 9.140625 -3.203125 9.882812 -3.554688 10.40625 -4.265625 C 10.9375 -4.984375 11.203125 -5.976562 11.203125 -7.25 C 11.203125 -8.507812 10.9375 -9.519531 10.40625 -10.28125 C 9.882812 -11.039062 9.140625 -11.421875 8.171875 -11.421875 C 7.179688 -11.421875 6.425781 -11.03125 5.90625 -10.25 C 5.394531 -9.476562 5.140625 -8.476562 5.140625 -7.25 C 5.140625 -6.007812 5.398438 -5.023438 5.921875 -4.296875 C 6.441406 -3.566406 7.191406 -3.203125 8.171875 -3.203125 Z M 8.171875 -3.203125 "/></g></g></g><g fill="#d5e6fe" fill-opacity="1"><g transform="translate(548.5723, 181.347201)"><g><path d="M 1.59375 0 L 1.59375 -14.40625 L 5.46875 -14.40625 L 5.46875 -11.890625 L 5.625 -11.890625 C 5.882812 -12.785156 6.320312 -13.460938 6.9375 -13.921875 C 7.550781 -14.390625 8.265625 -14.625 9.078125 -14.625 C 9.472656 -14.625 9.832031 -14.578125 10.15625 -14.484375 C 10.488281 -14.390625 10.785156 -14.257812 11.046875 -14.09375 L 9.859375 -10.796875 C 9.671875 -10.890625 9.460938 -10.96875 9.234375 -11.03125 C 9.015625 -11.09375 8.765625 -11.125 8.484375 -11.125 C 7.679688 -11.125 7 -10.847656 6.4375 -10.296875 C 5.875 -9.742188 5.59375 -9.03125 5.59375 -8.15625 L 5.59375 0 Z M 1.59375 0 "/></g></g></g><g fill="#d5e6fe" fill-opacity="1"><g transform="translate(559.260413, 181.347201)"><g><path d="M 8.15625 0.28125 C 6.6875 0.28125 5.414062 -0.0195312 4.34375 -0.625 C 3.269531 -1.226562 2.445312 -2.082031 1.875 -3.1875 C 1.300781 -4.300781 1.015625 -5.617188 1.015625 -7.140625 C 1.015625 -8.617188 1.300781 -9.914062 1.875 -11.03125 C 2.445312 -12.15625 3.257812 -13.03125 4.3125 -13.65625 C 5.363281 -14.28125 6.59375 -14.59375 8 -14.59375 C 9.269531 -14.59375 10.414062 -14.320312 11.4375 -13.78125 C 12.457031 -13.25 13.269531 -12.441406 13.875 -11.359375 C 14.476562 -10.273438 14.78125 -8.914062 14.78125 -7.28125 L 14.78125 -6.1875 L 4.96875 -6.1875 L 4.96875 -6.171875 C 4.96875 -5.097656 5.257812 -4.25 5.84375 -3.625 C 6.4375 -3.007812 7.234375 -2.703125 8.234375 -2.703125 C 8.898438 -2.703125 9.476562 -2.84375 9.96875 -3.125 C 10.457031 -3.40625 10.800781 -3.820312 11 -4.375 L 14.6875 -4.125 C 14.40625 -2.789062 13.691406 -1.722656 12.546875 -0.921875 C 11.410156 -0.117188 9.945312 0.28125 8.15625 0.28125 Z M 4.96875 -8.65625 L 11.015625 -8.65625 C 11.003906 -9.519531 10.726562 -10.226562 10.1875 -10.78125 C 9.644531 -11.332031 8.9375 -11.609375 8.0625 -11.609375 C 7.175781 -11.609375 6.445312 -11.320312 5.875 -10.75 C 5.3125 -10.175781 5.007812 -9.476562 4.96875 -8.65625 Z M 4.96875 -8.65625 "/></g></g></g><g fill="#d5e6fe" fill-opacity="1"><g transform="translate(574.413597, 181.347201)"><g><path d="M 5.703125 0.265625 C 4.328125 0.265625 3.1875 -0.09375 2.28125 -0.8125 C 1.375 -1.53125 0.921875 -2.601562 0.921875 -4.03125 C 0.921875 -5.101562 1.171875 -5.945312 1.671875 -6.5625 C 2.179688 -7.175781 2.847656 -7.625 3.671875 -7.90625 C 4.492188 -8.1875 5.378906 -8.375 6.328125 -8.46875 C 7.578125 -8.59375 8.472656 -8.722656 9.015625 -8.859375 C 9.554688 -8.992188 9.828125 -9.296875 9.828125 -9.765625 L 9.828125 -9.8125 C 9.828125 -10.40625 9.640625 -10.863281 9.265625 -11.1875 C 8.890625 -11.519531 8.363281 -11.6875 7.6875 -11.6875 C 6.96875 -11.6875 6.394531 -11.53125 5.96875 -11.21875 C 5.539062 -10.90625 5.257812 -10.503906 5.125 -10.015625 L 1.421875 -10.328125 C 1.703125 -11.640625 2.382812 -12.675781 3.46875 -13.4375 C 4.5625 -14.207031 5.972656 -14.59375 7.703125 -14.59375 C 8.773438 -14.59375 9.773438 -14.425781 10.703125 -14.09375 C 11.640625 -13.757812 12.394531 -13.234375 12.96875 -12.515625 C 13.539062 -11.796875 13.828125 -10.863281 13.828125 -9.71875 L 13.828125 0 L 10.03125 0 L 10.03125 -2 L 9.921875 -2 C 9.566406 -1.332031 9.039062 -0.785156 8.34375 -0.359375 C 7.644531 0.0546875 6.765625 0.265625 5.703125 0.265625 Z M 6.84375 -2.484375 C 7.71875 -2.484375 8.4375 -2.738281 9 -3.25 C 9.570312 -3.757812 9.859375 -4.394531 9.859375 -5.15625 L 9.859375 -6.6875 C 9.703125 -6.570312 9.457031 -6.472656 9.125 -6.390625 C 8.789062 -6.316406 8.4375 -6.25 8.0625 -6.1875 C 7.695312 -6.125 7.367188 -6.070312 7.078125 -6.03125 C 6.378906 -5.9375 5.8125 -5.738281 5.375 -5.4375 C 4.945312 -5.144531 4.734375 -4.71875 4.734375 -4.15625 C 4.734375 -3.601562 4.929688 -3.1875 5.328125 -2.90625 C 5.734375 -2.625 6.238281 -2.484375 6.84375 -2.484375 Z M 6.84375 -2.484375 "/></g></g></g><g fill="#d5e6fe" fill-opacity="1"><g transform="translate(589.107149, 181.347201)"><g><path d="M 9.265625 -14.40625 L 9.265625 -11.40625 L 6.546875 -11.40625 L 6.546875 -4.421875 C 6.546875 -3.878906 6.671875 -3.507812 6.921875 -3.3125 C 7.171875 -3.113281 7.5 -3.015625 7.90625 -3.015625 C 8.09375 -3.015625 8.28125 -3.03125 8.46875 -3.0625 C 8.65625 -3.101562 8.796875 -3.132812 8.890625 -3.15625 L 9.53125 -0.171875 C 9.320312 -0.109375 9.035156 -0.0351562 8.671875 0.046875 C 8.316406 0.128906 7.878906 0.179688 7.359375 0.203125 C 5.898438 0.265625 4.734375 -0.046875 3.859375 -0.734375 C 2.984375 -1.429688 2.546875 -2.488281 2.546875 -3.90625 L 2.546875 -11.40625 L 0.578125 -11.40625 L 0.578125 -14.40625 L 2.546875 -14.40625 L 2.546875 -17.859375 L 6.546875 -17.859375 L 6.546875 -14.40625 Z M 9.265625 -14.40625 "/></g></g></g><g fill="#d5e6fe" fill-opacity="1"><g transform="translate(598.735264, 181.347201)"><g/></g></g><g fill="#d5e6fe" fill-opacity="1"><g transform="translate(604.226627, 181.347201)"><g><path d="M 8.109375 0.28125 C 6.628906 0.28125 5.359375 -0.03125 4.296875 -0.65625 C 3.242188 -1.289062 2.429688 -2.164062 1.859375 -3.28125 C 1.296875 -4.40625 1.015625 -5.695312 1.015625 -7.15625 C 1.015625 -8.625 1.300781 -9.914062 1.875 -11.03125 C 2.445312 -12.15625 3.257812 -13.03125 4.3125 -13.65625 C 5.375 -14.28125 6.632812 -14.59375 8.09375 -14.59375 C 9.34375 -14.59375 10.441406 -14.363281 11.390625 -13.90625 C 12.335938 -13.457031 13.082031 -12.816406 13.625 -11.984375 C 14.175781 -11.160156 14.484375 -10.191406 14.546875 -9.078125 L 10.765625 -9.078125 C 10.660156 -9.796875 10.378906 -10.375 9.921875 -10.8125 C 9.472656 -11.257812 8.882812 -11.484375 8.15625 -11.484375 C 7.226562 -11.484375 6.484375 -11.109375 5.921875 -10.359375 C 5.359375 -9.617188 5.078125 -8.566406 5.078125 -7.203125 C 5.078125 -5.828125 5.351562 -4.757812 5.90625 -4 C 6.46875 -3.25 7.21875 -2.875 8.15625 -2.875 C 8.84375 -2.875 9.421875 -3.082031 9.890625 -3.5 C 10.359375 -3.914062 10.648438 -4.507812 10.765625 -5.28125 L 14.546875 -5.28125 C 14.484375 -4.175781 14.179688 -3.203125 13.640625 -2.359375 C 13.109375 -1.523438 12.375 -0.875 11.4375 -0.40625 C 10.5 0.0507812 9.390625 0.28125 8.109375 0.28125 Z M 8.109375 0.28125 "/></g></g></g><g fill="#d5e6fe" fill-opacity="1"><g transform="translate(619.107785, 181.347201)"><g><path d="M 10.84375 -6.140625 L 10.84375 -14.40625 L 14.828125 -14.40625 L 14.828125 0 L 11 0 L 11 -2.625 L 10.84375 -2.625 C 10.519531 -1.769531 9.976562 -1.085938 9.21875 -0.578125 C 8.46875 -0.0664062 7.550781 0.1875 6.46875 0.1875 C 5.019531 0.1875 3.847656 -0.296875 2.953125 -1.265625 C 2.054688 -2.234375 1.601562 -3.554688 1.59375 -5.234375 L 1.59375 -14.40625 L 5.59375 -14.40625 L 5.59375 -5.953125 C 5.59375 -5.097656 5.816406 -4.421875 6.265625 -3.921875 C 6.722656 -3.429688 7.332031 -3.1875 8.09375 -3.1875 C 8.8125 -3.1875 9.445312 -3.4375 10 -3.9375 C 10.5625 -4.4375 10.84375 -5.171875 10.84375 -6.140625 Z M 10.84375 -6.140625 "/></g></g></g><g fill="#d5e6fe" fill-opacity="1"><g transform="translate(634.898845, 181.347201)"><g><path d="M 13.59375 -10.296875 L 9.921875 -10.078125 C 9.828125 -10.535156 9.578125 -10.929688 9.171875 -11.265625 C 8.765625 -11.597656 8.210938 -11.765625 7.515625 -11.765625 C 6.898438 -11.765625 6.375 -11.632812 5.9375 -11.375 C 5.507812 -11.113281 5.300781 -10.769531 5.3125 -10.34375 C 5.300781 -10 5.4375 -9.707031 5.71875 -9.46875 C 6 -9.226562 6.472656 -9.035156 7.140625 -8.890625 L 9.75 -8.375 C 12.519531 -7.800781 13.910156 -6.5 13.921875 -4.46875 C 13.921875 -3.519531 13.640625 -2.6875 13.078125 -1.96875 C 12.523438 -1.257812 11.765625 -0.707031 10.796875 -0.3125 C 9.835938 0.0820312 8.738281 0.28125 7.5 0.28125 C 5.59375 0.28125 4.070312 -0.113281 2.9375 -0.90625 C 1.800781 -1.707031 1.140625 -2.796875 0.953125 -4.171875 L 4.890625 -4.375 C 5.015625 -3.789062 5.300781 -3.347656 5.75 -3.046875 C 6.207031 -2.742188 6.789062 -2.59375 7.5 -2.59375 C 8.207031 -2.59375 8.773438 -2.726562 9.203125 -3 C 9.628906 -3.28125 9.847656 -3.632812 9.859375 -4.0625 C 9.835938 -4.769531 9.21875 -5.25 8 -5.5 L 5.5 -6 C 2.71875 -6.550781 1.332031 -7.921875 1.34375 -10.109375 C 1.332031 -11.503906 1.882812 -12.597656 3 -13.390625 C 4.125 -14.191406 5.609375 -14.59375 7.453125 -14.59375 C 9.273438 -14.59375 10.707031 -14.207031 11.75 -13.4375 C 12.800781 -12.675781 13.414062 -11.628906 13.59375 -10.296875 Z M 13.59375 -10.296875 "/></g></g></g><g fill="#d5e6fe" fill-opacity="1"><g transform="translate(649.104597, 181.347201)"><g><path d="M 9.265625 -14.40625 L 9.265625 -11.40625 L 6.546875 -11.40625 L 6.546875 -4.421875 C 6.546875 -3.878906 6.671875 -3.507812 6.921875 -3.3125 C 7.171875 -3.113281 7.5 -3.015625 7.90625 -3.015625 C 8.09375 -3.015625 8.28125 -3.03125 8.46875 -3.0625 C 8.65625 -3.101562 8.796875 -3.132812 8.890625 -3.15625 L 9.53125 -0.171875 C 9.320312 -0.109375 9.035156 -0.0351562 8.671875 0.046875 C 8.316406 0.128906 7.878906 0.179688 7.359375 0.203125 C 5.898438 0.265625 4.734375 -0.046875 3.859375 -0.734375 C 2.984375 -1.429688 2.546875 -2.488281 2.546875 -3.90625 L 2.546875 -11.40625 L 0.578125 -11.40625 L 0.578125 -14.40625 L 2.546875 -14.40625 L 2.546875 -17.859375 L 6.546875 -17.859375 L 6.546875 -14.40625 Z M 9.265625 -14.40625 "/></g></g></g><g fill="#d5e6fe" fill-opacity="1"><g transform="translate(658.732712, 181.347201)"><g><path d="M 8.109375 0.28125 C 6.648438 0.28125 5.390625 -0.0234375 4.328125 -0.640625 C 3.265625 -1.265625 2.445312 -2.132812 1.875 -3.25 C 1.300781 -4.375 1.015625 -5.675781 1.015625 -7.15625 C 1.015625 -8.632812 1.300781 -9.929688 1.875 -11.046875 C 2.445312 -12.171875 3.265625 -13.039062 4.328125 -13.65625 C 5.390625 -14.28125 6.648438 -14.59375 8.109375 -14.59375 C 9.566406 -14.59375 10.820312 -14.28125 11.875 -13.65625 C 12.9375 -13.039062 13.753906 -12.171875 14.328125 -11.046875 C 14.910156 -9.929688 15.203125 -8.632812 15.203125 -7.15625 C 15.203125 -5.675781 14.910156 -4.375 14.328125 -3.25 C 13.753906 -2.132812 12.9375 -1.265625 11.875 -0.640625 C 10.820312 -0.0234375 9.566406 0.28125 8.109375 0.28125 Z M 8.125 -2.8125 C 9.113281 -2.8125 9.863281 -3.222656 10.375 -4.046875 C 10.882812 -4.878906 11.140625 -5.921875 11.140625 -7.171875 C 11.140625 -8.429688 10.882812 -9.472656 10.375 -10.296875 C 9.863281 -11.128906 9.113281 -11.546875 8.125 -11.546875 C 7.113281 -11.546875 6.351562 -11.128906 5.84375 -10.296875 C 5.332031 -9.472656 5.078125 -8.429688 5.078125 -7.171875 C 5.078125 -5.921875 5.332031 -4.878906 5.84375 -4.046875 C 6.351562 -3.222656 7.113281 -2.8125 8.125 -2.8125 Z M 8.125 -2.8125 "/></g></g></g><g fill="#d5e6fe" fill-opacity="1"><g transform="translate(674.308019, 181.347201)"><g><path d="M 1.59375 0 L 1.59375 -14.40625 L 5.40625 -14.40625 L 5.40625 -11.875 L 5.578125 -11.875 C 5.878906 -12.71875 6.378906 -13.378906 7.078125 -13.859375 C 7.785156 -14.347656 8.625 -14.59375 9.59375 -14.59375 C 10.582031 -14.59375 11.421875 -14.347656 12.109375 -13.859375 C 12.804688 -13.367188 13.269531 -12.707031 13.5 -11.875 L 13.65625 -11.875 C 13.945312 -12.695312 14.476562 -13.351562 15.25 -13.84375 C 16.019531 -14.34375 16.9375 -14.59375 18 -14.59375 C 19.34375 -14.59375 20.429688 -14.164062 21.265625 -13.3125 C 22.109375 -12.457031 22.53125 -11.25 22.53125 -9.6875 L 22.53125 0 L 18.546875 0 L 18.546875 -8.90625 C 18.546875 -9.707031 18.332031 -10.304688 17.90625 -10.703125 C 17.488281 -11.109375 16.957031 -11.3125 16.3125 -11.3125 C 15.59375 -11.3125 15.03125 -11.078125 14.625 -10.609375 C 14.21875 -10.148438 14.015625 -9.546875 14.015625 -8.796875 L 14.015625 0 L 10.140625 0 L 10.140625 -8.984375 C 10.140625 -9.691406 9.9375 -10.253906 9.53125 -10.671875 C 9.125 -11.097656 8.59375 -11.3125 7.9375 -11.3125 C 7.269531 -11.3125 6.710938 -11.066406 6.265625 -10.578125 C 5.816406 -10.097656 5.59375 -9.457031 5.59375 -8.65625 L 5.59375 0 Z M 1.59375 0 "/></g></g></g><g fill="#d5e6fe" fill-opacity="1"><g transform="translate(697.762872, 181.347201)"><g><path d="M 8.15625 0.28125 C 6.6875 0.28125 5.414062 -0.0195312 4.34375 -0.625 C 3.269531 -1.226562 2.445312 -2.082031 1.875 -3.1875 C 1.300781 -4.300781 1.015625 -5.617188 1.015625 -7.140625 C 1.015625 -8.617188 1.300781 -9.914062 1.875 -11.03125 C 2.445312 -12.15625 3.257812 -13.03125 4.3125 -13.65625 C 5.363281 -14.28125 6.59375 -14.59375 8 -14.59375 C 9.269531 -14.59375 10.414062 -14.320312 11.4375 -13.78125 C 12.457031 -13.25 13.269531 -12.441406 13.875 -11.359375 C 14.476562 -10.273438 14.78125 -8.914062 14.78125 -7.28125 L 14.78125 -6.1875 L 4.96875 -6.1875 L 4.96875 -6.171875 C 4.96875 -5.097656 5.257812 -4.25 5.84375 -3.625 C 6.4375 -3.007812 7.234375 -2.703125 8.234375 -2.703125 C 8.898438 -2.703125 9.476562 -2.84375 9.96875 -3.125 C 10.457031 -3.40625 10.800781 -3.820312 11 -4.375 L 14.6875 -4.125 C 14.40625 -2.789062 13.691406 -1.722656 12.546875 -0.921875 C 11.410156 -0.117188 9.945312 0.28125 8.15625 0.28125 Z M 4.96875 -8.65625 L 11.015625 -8.65625 C 11.003906 -9.519531 10.726562 -10.226562 10.1875 -10.78125 C 9.644531 -11.332031 8.9375 -11.609375 8.0625 -11.609375 C 7.175781 -11.609375 6.445312 -11.320312 5.875 -10.75 C 5.3125 -10.175781 5.007812 -9.476562 4.96875 -8.65625 Z M 4.96875 -8.65625 "/></g></g></g><g fill="#d5e6fe" fill-opacity="1"><g transform="translate(712.916056, 181.347201)"><g><path d="M 1.59375 0 L 1.59375 -14.40625 L 5.46875 -14.40625 L 5.46875 -11.890625 L 5.625 -11.890625 C 5.882812 -12.785156 6.320312 -13.460938 6.9375 -13.921875 C 7.550781 -14.390625 8.265625 -14.625 9.078125 -14.625 C 9.472656 -14.625 9.832031 -14.578125 10.15625 -14.484375 C 10.488281 -14.390625 10.785156 -14.257812 11.046875 -14.09375 L 9.859375 -10.796875 C 9.671875 -10.890625 9.460938 -10.96875 9.234375 -11.03125 C 9.015625 -11.09375 8.765625 -11.125 8.484375 -11.125 C 7.679688 -11.125 7 -10.847656 6.4375 -10.296875 C 5.875 -9.742188 5.59375 -9.03125 5.59375 -8.15625 L 5.59375 0 Z M 1.59375 0 "/></g></g></g><g fill="#d5e6fe" fill-opacity="1"><g transform="translate(723.604169, 181.347201)"><g/></g></g><g fill="#d5e6fe" fill-opacity="1"><g transform="translate(729.095513, 181.347201)"><g><path d="M 8.15625 0.28125 C 6.6875 0.28125 5.414062 -0.0195312 4.34375 -0.625 C 3.269531 -1.226562 2.445312 -2.082031 1.875 -3.1875 C 1.300781 -4.300781 1.015625 -5.617188 1.015625 -7.140625 C 1.015625 -8.617188 1.300781 -9.914062 1.875 -11.03125 C 2.445312 -12.15625 3.257812 -13.03125 4.3125 -13.65625 C 5.363281 -14.28125 6.59375 -14.59375 8 -14.59375 C 9.269531 -14.59375 10.414062 -14.320312 11.4375 -13.78125 C 12.457031 -13.25 13.269531 -12.441406 13.875 -11.359375 C 14.476562 -10.273438 14.78125 -8.914062 14.78125 -7.28125 L 14.78125 -6.1875 L 4.96875 -6.1875 L 4.96875 -6.171875 C 4.96875 -5.097656 5.257812 -4.25 5.84375 -3.625 C 6.4375 -3.007812 7.234375 -2.703125 8.234375 -2.703125 C 8.898438 -2.703125 9.476562 -2.84375 9.96875 -3.125 C 10.457031 -3.40625 10.800781 -3.820312 11 -4.375 L 14.6875 -4.125 C 14.40625 -2.789062 13.691406 -1.722656 12.546875 -0.921875 C 11.410156 -0.117188 9.945312 0.28125 8.15625 0.28125 Z M 4.96875 -8.65625 L 11.015625 -8.65625 C 11.003906 -9.519531 10.726562 -10.226562 10.1875 -10.78125 C 9.644531 -11.332031 8.9375 -11.609375 8.0625 -11.609375 C 7.175781 -11.609375 6.445312 -11.320312 5.875 -10.75 C 5.3125 -10.175781 5.007812 -9.476562 4.96875 -8.65625 Z M 4.96875 -8.65625 "/></g></g></g><g fill="#d5e6fe" fill-opacity="1"><g transform="translate(744.248678, 181.347201)"><g><path d="M 4.9375 -14.40625 L 7.578125 -9.375 L 10.296875 -14.40625 L 14.390625 -14.40625 L 10.21875 -7.203125 L 14.5 0 L 10.421875 0 L 7.578125 -4.984375 L 4.78125 0 L 0.65625 0 L 4.9375 -7.203125 L 0.8125 -14.40625 Z M 4.9375 -14.40625 "/></g></g></g><g fill="#d5e6fe" fill-opacity="1"><g transform="translate(758.773369, 181.347201)"><g><path d="M 1.59375 5.40625 L 1.59375 -14.40625 L 5.53125 -14.40625 L 5.53125 -11.984375 L 5.71875 -11.984375 C 5.894531 -12.378906 6.148438 -12.773438 6.484375 -13.171875 C 6.816406 -13.578125 7.253906 -13.914062 7.796875 -14.1875 C 8.335938 -14.457031 9.007812 -14.59375 9.8125 -14.59375 C 10.875 -14.59375 11.84375 -14.316406 12.71875 -13.765625 C 13.601562 -13.222656 14.3125 -12.40625 14.84375 -11.3125 C 15.382812 -10.21875 15.65625 -8.84375 15.65625 -7.1875 C 15.65625 -5.582031 15.394531 -4.226562 14.875 -3.125 C 14.351562 -2.019531 13.648438 -1.179688 12.765625 -0.609375 C 11.890625 -0.046875 10.90625 0.234375 9.8125 0.234375 C 9.03125 0.234375 8.367188 0.109375 7.828125 -0.140625 C 7.285156 -0.398438 6.84375 -0.722656 6.5 -1.109375 C 6.164062 -1.503906 5.90625 -1.90625 5.71875 -2.3125 L 5.59375 -2.3125 L 5.59375 5.40625 Z M 5.5 -7.203125 C 5.5 -5.921875 5.765625 -4.890625 6.296875 -4.109375 C 6.828125 -3.335938 7.570312 -2.953125 8.53125 -2.953125 C 9.519531 -2.953125 10.269531 -3.34375 10.78125 -4.125 C 11.300781 -4.914062 11.5625 -5.941406 11.5625 -7.203125 C 11.5625 -8.453125 11.300781 -9.46875 10.78125 -10.25 C 10.269531 -11.03125 9.519531 -11.421875 8.53125 -11.421875 C 7.5625 -11.421875 6.8125 -11.039062 6.28125 -10.28125 C 5.757812 -9.519531 5.5 -8.492188 5.5 -7.203125 Z M 5.5 -7.203125 "/></g></g></g><g fill="#d5e6fe" fill-opacity="1"><g transform="translate(774.845837, 181.347201)"><g><path d="M 8.15625 0.28125 C 6.6875 0.28125 5.414062 -0.0195312 4.34375 -0.625 C 3.269531 -1.226562 2.445312 -2.082031 1.875 -3.1875 C 1.300781 -4.300781 1.015625 -5.617188 1.015625 -7.140625 C 1.015625 -8.617188 1.300781 -9.914062 1.875 -11.03125 C 2.445312 -12.15625 3.257812 -13.03125 4.3125 -13.65625 C 5.363281 -14.28125 6.59375 -14.59375 8 -14.59375 C 9.269531 -14.59375 10.414062 -14.320312 11.4375 -13.78125 C 12.457031 -13.25 13.269531 -12.441406 13.875 -11.359375 C 14.476562 -10.273438 14.78125 -8.914062 14.78125 -7.28125 L 14.78125 -6.1875 L 4.96875 -6.1875 L 4.96875 -6.171875 C 4.96875 -5.097656 5.257812 -4.25 5.84375 -3.625 C 6.4375 -3.007812 7.234375 -2.703125 8.234375 -2.703125 C 8.898438 -2.703125 9.476562 -2.84375 9.96875 -3.125 C 10.457031 -3.40625 10.800781 -3.820312 11 -4.375 L 14.6875 -4.125 C 14.40625 -2.789062 13.691406 -1.722656 12.546875 -0.921875 C 11.410156 -0.117188 9.945312 0.28125 8.15625 0.28125 Z M 4.96875 -8.65625 L 11.015625 -8.65625 C 11.003906 -9.519531 10.726562 -10.226562 10.1875 -10.78125 C 9.644531 -11.332031 8.9375 -11.609375 8.0625 -11.609375 C 7.175781 -11.609375 6.445312 -11.320312 5.875 -10.75 C 5.3125 -10.175781 5.007812 -9.476562 4.96875 -8.65625 Z M 4.96875 -8.65625 "/></g></g></g><g fill="#d5e6fe" fill-opacity="1"><g transform="translate(789.999002, 181.347201)"><g><path d="M 1.59375 0 L 1.59375 -14.40625 L 5.46875 -14.40625 L 5.46875 -11.890625 L 5.625 -11.890625 C 5.882812 -12.785156 6.320312 -13.460938 6.9375 -13.921875 C 7.550781 -14.390625 8.265625 -14.625 9.078125 -14.625 C 9.472656 -14.625 9.832031 -14.578125 10.15625 -14.484375 C 10.488281 -14.390625 10.785156 -14.257812 11.046875 -14.09375 L 9.859375 -10.796875 C 9.671875 -10.890625 9.460938 -10.96875 9.234375 -11.03125 C 9.015625 -11.09375 8.765625 -11.125 8.484375 -11.125 C 7.679688 -11.125 7 -10.847656 6.4375 -10.296875 C 5.875 -9.742188 5.59375 -9.03125 5.59375 -8.15625 L 5.59375 0 Z M 1.59375 0 "/></g></g></g><g fill="#d5e6fe" fill-opacity="1"><g transform="translate(800.687115, 181.347201)"><g><path d="M 1.59375 0 L 1.59375 -14.40625 L 5.59375 -14.40625 L 5.59375 0 Z M 3.59375 -16.265625 C 3.007812 -16.265625 2.503906 -16.460938 2.078125 -16.859375 C 1.648438 -17.265625 1.4375 -17.742188 1.4375 -18.296875 C 1.4375 -18.847656 1.648438 -19.320312 2.078125 -19.71875 C 2.503906 -20.113281 3.007812 -20.3125 3.59375 -20.3125 C 4.1875 -20.3125 4.695312 -20.113281 5.125 -19.71875 C 5.550781 -19.320312 5.765625 -18.847656 5.765625 -18.296875 C 5.765625 -17.742188 5.550781 -17.265625 5.125 -16.859375 C 4.695312 -16.460938 4.1875 -16.265625 3.59375 -16.265625 Z M 3.59375 -16.265625 "/></g></g></g><g fill="#d5e6fe" fill-opacity="1"><g transform="translate(807.238458, 181.347201)"><g><path d="M 8.15625 0.28125 C 6.6875 0.28125 5.414062 -0.0195312 4.34375 -0.625 C 3.269531 -1.226562 2.445312 -2.082031 1.875 -3.1875 C 1.300781 -4.300781 1.015625 -5.617188 1.015625 -7.140625 C 1.015625 -8.617188 1.300781 -9.914062 1.875 -11.03125 C 2.445312 -12.15625 3.257812 -13.03125 4.3125 -13.65625 C 5.363281 -14.28125 6.59375 -14.59375 8 -14.59375 C 9.269531 -14.59375 10.414062 -14.320312 11.4375 -13.78125 C 12.457031 -13.25 13.269531 -12.441406 13.875 -11.359375 C 14.476562 -10.273438 14.78125 -8.914062 14.78125 -7.28125 L 14.78125 -6.1875 L 4.96875 -6.1875 L 4.96875 -6.171875 C 4.96875 -5.097656 5.257812 -4.25 5.84375 -3.625 C 6.4375 -3.007812 7.234375 -2.703125 8.234375 -2.703125 C 8.898438 -2.703125 9.476562 -2.84375 9.96875 -3.125 C 10.457031 -3.40625 10.800781 -3.820312 11 -4.375 L 14.6875 -4.125 C 14.40625 -2.789062 13.691406 -1.722656 12.546875 -0.921875 C 11.410156 -0.117188 9.945312 0.28125 8.15625 0.28125 Z M 4.96875 -8.65625 L 11.015625 -8.65625 C 11.003906 -9.519531 10.726562 -10.226562 10.1875 -10.78125 C 9.644531 -11.332031 8.9375 -11.609375 8.0625 -11.609375 C 7.175781 -11.609375 6.445312 -11.320312 5.875 -10.75 C 5.3125 -10.175781 5.007812 -9.476562 4.96875 -8.65625 Z M 4.96875 -8.65625 "/></g></g></g><g fill="#d5e6fe" fill-opacity="1"><g transform="translate(822.391623, 181.347201)"><g><path d="M 5.59375 -8.328125 L 5.59375 0 L 1.59375 0 L 1.59375 -14.40625 L 5.40625 -14.40625 L 5.40625 -11.875 L 5.578125 -11.875 C 5.898438 -12.707031 6.429688 -13.367188 7.171875 -13.859375 C 7.921875 -14.347656 8.832031 -14.59375 9.90625 -14.59375 C 11.40625 -14.59375 12.609375 -14.109375 13.515625 -13.140625 C 14.421875 -12.179688 14.875 -10.859375 14.875 -9.171875 L 14.875 0 L 10.890625 0 L 10.890625 -8.46875 C 10.890625 -9.34375 10.660156 -10.03125 10.203125 -10.53125 C 9.753906 -11.03125 9.128906 -11.28125 8.328125 -11.28125 C 7.515625 -11.28125 6.851562 -11.019531 6.34375 -10.5 C 5.84375 -9.988281 5.59375 -9.265625 5.59375 -8.328125 Z M 5.59375 -8.328125 "/></g></g></g><g fill="#d5e6fe" fill-opacity="1"><g transform="translate(838.182664, 181.347201)"><g><path d="M 8.109375 0.28125 C 6.628906 0.28125 5.359375 -0.03125 4.296875 -0.65625 C 3.242188 -1.289062 2.429688 -2.164062 1.859375 -3.28125 C 1.296875 -4.40625 1.015625 -5.695312 1.015625 -7.15625 C 1.015625 -8.625 1.300781 -9.914062 1.875 -11.03125 C 2.445312 -12.15625 3.257812 -13.03125 4.3125 -13.65625 C 5.375 -14.28125 6.632812 -14.59375 8.09375 -14.59375 C 9.34375 -14.59375 10.441406 -14.363281 11.390625 -13.90625 C 12.335938 -13.457031 13.082031 -12.816406 13.625 -11.984375 C 14.175781 -11.160156 14.484375 -10.191406 14.546875 -9.078125 L 10.765625 -9.078125 C 10.660156 -9.796875 10.378906 -10.375 9.921875 -10.8125 C 9.472656 -11.257812 8.882812 -11.484375 8.15625 -11.484375 C 7.226562 -11.484375 6.484375 -11.109375 5.921875 -10.359375 C 5.359375 -9.617188 5.078125 -8.566406 5.078125 -7.203125 C 5.078125 -5.828125 5.351562 -4.757812 5.90625 -4 C 6.46875 -3.25 7.21875 -2.875 8.15625 -2.875 C 8.84375 -2.875 9.421875 -3.082031 9.890625 -3.5 C 10.359375 -3.914062 10.648438 -4.507812 10.765625 -5.28125 L 14.546875 -5.28125 C 14.484375 -4.175781 14.179688 -3.203125 13.640625 -2.359375 C 13.109375 -1.523438 12.375 -0.875 11.4375 -0.40625 C 10.5 0.0507812 9.390625 0.28125 8.109375 0.28125 Z M 8.109375 0.28125 "/></g></g></g><g fill="#d5e6fe" fill-opacity="1"><g transform="translate(853.063802, 181.347201)"><g><path d="M 8.15625 0.28125 C 6.6875 0.28125 5.414062 -0.0195312 4.34375 -0.625 C 3.269531 -1.226562 2.445312 -2.082031 1.875 -3.1875 C 1.300781 -4.300781 1.015625 -5.617188 1.015625 -7.140625 C 1.015625 -8.617188 1.300781 -9.914062 1.875 -11.03125 C 2.445312 -12.15625 3.257812 -13.03125 4.3125 -13.65625 C 5.363281 -14.28125 6.59375 -14.59375 8 -14.59375 C 9.269531 -14.59375 10.414062 -14.320312 11.4375 -13.78125 C 12.457031 -13.25 13.269531 -12.441406 13.875 -11.359375 C 14.476562 -10.273438 14.78125 -8.914062 14.78125 -7.28125 L 14.78125 -6.1875 L 4.96875 -6.1875 L 4.96875 -6.171875 C 4.96875 -5.097656 5.257812 -4.25 5.84375 -3.625 C 6.4375 -3.007812 7.234375 -2.703125 8.234375 -2.703125 C 8.898438 -2.703125 9.476562 -2.84375 9.96875 -3.125 C 10.457031 -3.40625 10.800781 -3.820312 11 -4.375 L 14.6875 -4.125 C 14.40625 -2.789062 13.691406 -1.722656 12.546875 -0.921875 C 11.410156 -0.117188 9.945312 0.28125 8.15625 0.28125 Z M 4.96875 -8.65625 L 11.015625 -8.65625 C 11.003906 -9.519531 10.726562 -10.226562 10.1875 -10.78125 C 9.644531 -11.332031 8.9375 -11.609375 8.0625 -11.609375 C 7.175781 -11.609375 6.445312 -11.320312 5.875 -10.75 C 5.3125 -10.175781 5.007812 -9.476562 4.96875 -8.65625 Z M 4.96875 -8.65625 "/></g></g></g><g fill="#d5e6fe" fill-opacity="1"><g transform="translate(401.038231, 212.666189)"><g><path d="M 5.703125 0.265625 C 4.328125 0.265625 3.1875 -0.09375 2.28125 -0.8125 C 1.375 -1.53125 0.921875 -2.601562 0.921875 -4.03125 C 0.921875 -5.101562 1.171875 -5.945312 1.671875 -6.5625 C 2.179688 -7.175781 2.847656 -7.625 3.671875 -7.90625 C 4.492188 -8.1875 5.378906 -8.375 6.328125 -8.46875 C 7.578125 -8.59375 8.472656 -8.722656 9.015625 -8.859375 C 9.554688 -8.992188 9.828125 -9.296875 9.828125 -9.765625 L 9.828125 -9.8125 C 9.828125 -10.40625 9.640625 -10.863281 9.265625 -11.1875 C 8.890625 -11.519531 8.363281 -11.6875 7.6875 -11.6875 C 6.96875 -11.6875 6.394531 -11.53125 5.96875 -11.21875 C 5.539062 -10.90625 5.257812 -10.503906 5.125 -10.015625 L 1.421875 -10.328125 C 1.703125 -11.640625 2.382812 -12.675781 3.46875 -13.4375 C 4.5625 -14.207031 5.972656 -14.59375 7.703125 -14.59375 C 8.773438 -14.59375 9.773438 -14.425781 10.703125 -14.09375 C 11.640625 -13.757812 12.394531 -13.234375 12.96875 -12.515625 C 13.539062 -11.796875 13.828125 -10.863281 13.828125 -9.71875 L 13.828125 0 L 10.03125 0 L 10.03125 -2 L 9.921875 -2 C 9.566406 -1.332031 9.039062 -0.785156 8.34375 -0.359375 C 7.644531 0.0546875 6.765625 0.265625 5.703125 0.265625 Z M 6.84375 -2.484375 C 7.71875 -2.484375 8.4375 -2.738281 9 -3.25 C 9.570312 -3.757812 9.859375 -4.394531 9.859375 -5.15625 L 9.859375 -6.6875 C 9.703125 -6.570312 9.457031 -6.472656 9.125 -6.390625 C 8.789062 -6.316406 8.4375 -6.25 8.0625 -6.1875 C 7.695312 -6.125 7.367188 -6.070312 7.078125 -6.03125 C 6.378906 -5.9375 5.8125 -5.738281 5.375 -5.4375 C 4.945312 -5.144531 4.734375 -4.71875 4.734375 -4.15625 C 4.734375 -3.601562 4.929688 -3.1875 5.328125 -2.90625 C 5.734375 -2.625 6.238281 -2.484375 6.84375 -2.484375 Z M 6.84375 -2.484375 "/></g></g></g><g fill="#d5e6fe" fill-opacity="1"><g transform="translate(415.73178, 212.666189)"><g><path d="M 13.59375 -10.296875 L 9.921875 -10.078125 C 9.828125 -10.535156 9.578125 -10.929688 9.171875 -11.265625 C 8.765625 -11.597656 8.210938 -11.765625 7.515625 -11.765625 C 6.898438 -11.765625 6.375 -11.632812 5.9375 -11.375 C 5.507812 -11.113281 5.300781 -10.769531 5.3125 -10.34375 C 5.300781 -10 5.4375 -9.707031 5.71875 -9.46875 C 6 -9.226562 6.472656 -9.035156 7.140625 -8.890625 L 9.75 -8.375 C 12.519531 -7.800781 13.910156 -6.5 13.921875 -4.46875 C 13.921875 -3.519531 13.640625 -2.6875 13.078125 -1.96875 C 12.523438 -1.257812 11.765625 -0.707031 10.796875 -0.3125 C 9.835938 0.0820312 8.738281 0.28125 7.5 0.28125 C 5.59375 0.28125 4.070312 -0.113281 2.9375 -0.90625 C 1.800781 -1.707031 1.140625 -2.796875 0.953125 -4.171875 L 4.890625 -4.375 C 5.015625 -3.789062 5.300781 -3.347656 5.75 -3.046875 C 6.207031 -2.742188 6.789062 -2.59375 7.5 -2.59375 C 8.207031 -2.59375 8.773438 -2.726562 9.203125 -3 C 9.628906 -3.28125 9.847656 -3.632812 9.859375 -4.0625 C 9.835938 -4.769531 9.21875 -5.25 8 -5.5 L 5.5 -6 C 2.71875 -6.550781 1.332031 -7.921875 1.34375 -10.109375 C 1.332031 -11.503906 1.882812 -12.597656 3 -13.390625 C 4.125 -14.191406 5.609375 -14.59375 7.453125 -14.59375 C 9.273438 -14.59375 10.707031 -14.207031 11.75 -13.4375 C 12.800781 -12.675781 13.414062 -11.628906 13.59375 -10.296875 Z M 13.59375 -10.296875 "/></g></g></g><g fill="#d5e6fe" fill-opacity="1"><g transform="translate(429.937541, 212.666189)"><g><path d="M 13.59375 -10.296875 L 9.921875 -10.078125 C 9.828125 -10.535156 9.578125 -10.929688 9.171875 -11.265625 C 8.765625 -11.597656 8.210938 -11.765625 7.515625 -11.765625 C 6.898438 -11.765625 6.375 -11.632812 5.9375 -11.375 C 5.507812 -11.113281 5.300781 -10.769531 5.3125 -10.34375 C 5.300781 -10 5.4375 -9.707031 5.71875 -9.46875 C 6 -9.226562 6.472656 -9.035156 7.140625 -8.890625 L 9.75 -8.375 C 12.519531 -7.800781 13.910156 -6.5 13.921875 -4.46875 C 13.921875 -3.519531 13.640625 -2.6875 13.078125 -1.96875 C 12.523438 -1.257812 11.765625 -0.707031 10.796875 -0.3125 C 9.835938 0.0820312 8.738281 0.28125 7.5 0.28125 C 5.59375 0.28125 4.070312 -0.113281 2.9375 -0.90625 C 1.800781 -1.707031 1.140625 -2.796875 0.953125 -4.171875 L 4.890625 -4.375 C 5.015625 -3.789062 5.300781 -3.347656 5.75 -3.046875 C 6.207031 -2.742188 6.789062 -2.59375 7.5 -2.59375 C 8.207031 -2.59375 8.773438 -2.726562 9.203125 -3 C 9.628906 -3.28125 9.847656 -3.632812 9.859375 -4.0625 C 9.835938 -4.769531 9.21875 -5.25 8 -5.5 L 5.5 -6 C 2.71875 -6.550781 1.332031 -7.921875 1.34375 -10.109375 C 1.332031 -11.503906 1.882812 -12.597656 3 -13.390625 C 4.125 -14.191406 5.609375 -14.59375 7.453125 -14.59375 C 9.273438 -14.59375 10.707031 -14.207031 11.75 -13.4375 C 12.800781 -12.675781 13.414062 -11.628906 13.59375 -10.296875 Z M 13.59375 -10.296875 "/></g></g></g><g fill="#d5e6fe" fill-opacity="1"><g transform="translate(444.143298, 212.666189)"><g><path d="M 10.84375 -6.140625 L 10.84375 -14.40625 L 14.828125 -14.40625 L 14.828125 0 L 11 0 L 11 -2.625 L 10.84375 -2.625 C 10.519531 -1.769531 9.976562 -1.085938 9.21875 -0.578125 C 8.46875 -0.0664062 7.550781 0.1875 6.46875 0.1875 C 5.019531 0.1875 3.847656 -0.296875 2.953125 -1.265625 C 2.054688 -2.234375 1.601562 -3.554688 1.59375 -5.234375 L 1.59375 -14.40625 L 5.59375 -14.40625 L 5.59375 -5.953125 C 5.59375 -5.097656 5.816406 -4.421875 6.265625 -3.921875 C 6.722656 -3.429688 7.332031 -3.1875 8.09375 -3.1875 C 8.8125 -3.1875 9.445312 -3.4375 10 -3.9375 C 10.5625 -4.4375 10.84375 -5.171875 10.84375 -6.140625 Z M 10.84375 -6.140625 "/></g></g></g><g fill="#d5e6fe" fill-opacity="1"><g transform="translate(459.934358, 212.666189)"><g><path d="M 1.59375 0 L 1.59375 -14.40625 L 5.46875 -14.40625 L 5.46875 -11.890625 L 5.625 -11.890625 C 5.882812 -12.785156 6.320312 -13.460938 6.9375 -13.921875 C 7.550781 -14.390625 8.265625 -14.625 9.078125 -14.625 C 9.472656 -14.625 9.832031 -14.578125 10.15625 -14.484375 C 10.488281 -14.390625 10.785156 -14.257812 11.046875 -14.09375 L 9.859375 -10.796875 C 9.671875 -10.890625 9.460938 -10.96875 9.234375 -11.03125 C 9.015625 -11.09375 8.765625 -11.125 8.484375 -11.125 C 7.679688 -11.125 7 -10.847656 6.4375 -10.296875 C 5.875 -9.742188 5.59375 -9.03125 5.59375 -8.15625 L 5.59375 0 Z M 1.59375 0 "/></g></g></g><g fill="#d5e6fe" fill-opacity="1"><g transform="translate(470.622472, 212.666189)"><g><path d="M 8.15625 0.28125 C 6.6875 0.28125 5.414062 -0.0195312 4.34375 -0.625 C 3.269531 -1.226562 2.445312 -2.082031 1.875 -3.1875 C 1.300781 -4.300781 1.015625 -5.617188 1.015625 -7.140625 C 1.015625 -8.617188 1.300781 -9.914062 1.875 -11.03125 C 2.445312 -12.15625 3.257812 -13.03125 4.3125 -13.65625 C 5.363281 -14.28125 6.59375 -14.59375 8 -14.59375 C 9.269531 -14.59375 10.414062 -14.320312 11.4375 -13.78125 C 12.457031 -13.25 13.269531 -12.441406 13.875 -11.359375 C 14.476562 -10.273438 14.78125 -8.914062 14.78125 -7.28125 L 14.78125 -6.1875 L 4.96875 -6.1875 L 4.96875 -6.171875 C 4.96875 -5.097656 5.257812 -4.25 5.84375 -3.625 C 6.4375 -3.007812 7.234375 -2.703125 8.234375 -2.703125 C 8.898438 -2.703125 9.476562 -2.84375 9.96875 -3.125 C 10.457031 -3.40625 10.800781 -3.820312 11 -4.375 L 14.6875 -4.125 C 14.40625 -2.789062 13.691406 -1.722656 12.546875 -0.921875 C 11.410156 -0.117188 9.945312 0.28125 8.15625 0.28125 Z M 4.96875 -8.65625 L 11.015625 -8.65625 C 11.003906 -9.519531 10.726562 -10.226562 10.1875 -10.78125 C 9.644531 -11.332031 8.9375 -11.609375 8.0625 -11.609375 C 7.175781 -11.609375 6.445312 -11.320312 5.875 -10.75 C 5.3125 -10.175781 5.007812 -9.476562 4.96875 -8.65625 Z M 4.96875 -8.65625 "/></g></g></g><g fill="#d5e6fe" fill-opacity="1"><g transform="translate(485.775656, 212.666189)"><g><path d="M 6.90625 0.234375 C 5.8125 0.234375 4.820312 -0.046875 3.9375 -0.609375 C 3.0625 -1.179688 2.363281 -2.019531 1.84375 -3.125 C 1.320312 -4.226562 1.0625 -5.582031 1.0625 -7.1875 C 1.0625 -8.84375 1.328125 -10.21875 1.859375 -11.3125 C 2.398438 -12.40625 3.109375 -13.222656 3.984375 -13.765625 C 4.867188 -14.316406 5.835938 -14.59375 6.890625 -14.59375 C 7.703125 -14.59375 8.378906 -14.457031 8.921875 -14.1875 C 9.460938 -13.914062 9.898438 -13.578125 10.234375 -13.171875 C 10.566406 -12.773438 10.820312 -12.378906 11 -11.984375 L 11.125 -11.984375 L 11.125 -19.21875 L 15.109375 -19.21875 L 15.109375 0 L 11.171875 0 L 11.171875 -2.3125 L 11 -2.3125 C 10.8125 -1.90625 10.546875 -1.503906 10.203125 -1.109375 C 9.859375 -0.722656 9.414062 -0.398438 8.875 -0.140625 C 8.332031 0.109375 7.675781 0.234375 6.90625 0.234375 Z M 8.171875 -2.953125 C 9.140625 -2.953125 9.882812 -3.335938 10.40625 -4.109375 C 10.9375 -4.890625 11.203125 -5.921875 11.203125 -7.203125 C 11.203125 -8.492188 10.9375 -9.519531 10.40625 -10.28125 C 9.882812 -11.039062 9.140625 -11.421875 8.171875 -11.421875 C 7.179688 -11.421875 6.425781 -11.03125 5.90625 -10.25 C 5.394531 -9.46875 5.140625 -8.453125 5.140625 -7.203125 C 5.140625 -5.941406 5.398438 -4.914062 5.921875 -4.125 C 6.441406 -3.34375 7.191406 -2.953125 8.171875 -2.953125 Z M 8.171875 -2.953125 "/></g></g></g><g fill="#d5e6fe" fill-opacity="1"><g transform="translate(501.923173, 212.666189)"><g/></g></g><g fill="#d5e6fe" fill-opacity="1"><g transform="translate(507.414536, 212.666189)"><g><path d="M 1.671875 0 L 1.671875 -19.21875 L 5.671875 -19.21875 L 5.671875 -11.984375 L 5.796875 -11.984375 C 5.972656 -12.378906 6.226562 -12.773438 6.5625 -13.171875 C 6.894531 -13.578125 7.332031 -13.914062 7.875 -14.1875 C 8.414062 -14.457031 9.085938 -14.59375 9.890625 -14.59375 C 10.941406 -14.59375 11.910156 -14.316406 12.796875 -13.765625 C 13.679688 -13.222656 14.390625 -12.40625 14.921875 -11.3125 C 15.453125 -10.21875 15.71875 -8.84375 15.71875 -7.1875 C 15.71875 -5.582031 15.457031 -4.226562 14.9375 -3.125 C 14.425781 -2.019531 13.726562 -1.179688 12.84375 -0.609375 C 11.957031 -0.046875 10.96875 0.234375 9.875 0.234375 C 9.101562 0.234375 8.445312 0.109375 7.90625 -0.140625 C 7.363281 -0.398438 6.921875 -0.722656 6.578125 -1.109375 C 6.242188 -1.503906 5.984375 -1.90625 5.796875 -2.3125 L 5.609375 -2.3125 L 5.609375 0 Z M 5.578125 -7.203125 C 5.578125 -5.921875 5.84375 -4.890625 6.375 -4.109375 C 6.90625 -3.335938 7.648438 -2.953125 8.609375 -2.953125 C 9.597656 -2.953125 10.347656 -3.34375 10.859375 -4.125 C 11.378906 -4.914062 11.640625 -5.941406 11.640625 -7.203125 C 11.640625 -8.453125 11.378906 -9.46875 10.859375 -10.25 C 10.347656 -11.03125 9.597656 -11.421875 8.609375 -11.421875 C 7.640625 -11.421875 6.890625 -11.039062 6.359375 -10.28125 C 5.835938 -9.519531 5.578125 -8.492188 5.578125 -7.203125 Z M 5.578125 -7.203125 "/></g></g></g><g fill="#d5e6fe" fill-opacity="1"><g transform="translate(523.562054, 212.666189)"><g><path d="M 3.921875 5.609375 C 3.347656 5.609375 2.859375 5.554688 2.453125 5.453125 C 2.054688 5.359375 1.742188 5.265625 1.515625 5.171875 L 2.421875 2.078125 C 3.128906 2.285156 3.722656 2.335938 4.203125 2.234375 C 4.691406 2.140625 5.078125 1.765625 5.359375 1.109375 L 5.625 0.40625 L 0.453125 -14.40625 L 4.65625 -14.40625 L 7.640625 -3.828125 L 7.78125 -3.828125 L 10.796875 -14.40625 L 15.03125 -14.40625 L 9.40625 1.65625 C 9 2.800781 8.347656 3.742188 7.453125 4.484375 C 6.566406 5.234375 5.390625 5.609375 3.921875 5.609375 Z M 3.921875 5.609375 "/></g></g></g><g fill="#d5e6fe" fill-opacity="1"><g transform="translate(538.405692, 212.666189)"><g/></g></g><g fill="#d5e6fe" fill-opacity="1"><g transform="translate(543.897056, 212.666189)"><g><path d="M 8.09375 5.609375 C 6.144531 5.609375 4.617188 5.226562 3.515625 4.46875 C 2.410156 3.707031 1.738281 2.78125 1.5 1.6875 L 5.203125 1.1875 C 5.359375 1.570312 5.671875 1.925781 6.140625 2.25 C 6.617188 2.570312 7.300781 2.734375 8.1875 2.734375 C 9.050781 2.734375 9.765625 2.523438 10.328125 2.109375 C 10.898438 1.703125 11.1875 1.023438 11.1875 0.078125 L 11.1875 -2.546875 L 11.015625 -2.546875 C 10.753906 -1.953125 10.289062 -1.410156 9.625 -0.921875 C 8.957031 -0.441406 8.050781 -0.203125 6.90625 -0.203125 C 5.820312 -0.203125 4.835938 -0.453125 3.953125 -0.953125 C 3.066406 -1.460938 2.363281 -2.238281 1.84375 -3.28125 C 1.320312 -4.320312 1.0625 -5.640625 1.0625 -7.234375 C 1.0625 -8.867188 1.328125 -10.226562 1.859375 -11.3125 C 2.398438 -12.40625 3.109375 -13.222656 3.984375 -13.765625 C 4.867188 -14.316406 5.835938 -14.59375 6.890625 -14.59375 C 7.703125 -14.59375 8.378906 -14.457031 8.921875 -14.1875 C 9.460938 -13.914062 9.898438 -13.578125 10.234375 -13.171875 C 10.578125 -12.773438 10.835938 -12.378906 11.015625 -11.984375 L 11.171875 -11.984375 L 11.171875 -14.40625 L 15.140625 -14.40625 L 15.140625 0.140625 C 15.140625 1.335938 14.835938 2.34375 14.234375 3.15625 C 13.628906 3.96875 12.796875 4.578125 11.734375 4.984375 C 10.679688 5.398438 9.46875 5.609375 8.09375 5.609375 Z M 8.171875 -3.203125 C 9.140625 -3.203125 9.882812 -3.554688 10.40625 -4.265625 C 10.9375 -4.984375 11.203125 -5.976562 11.203125 -7.25 C 11.203125 -8.507812 10.9375 -9.519531 10.40625 -10.28125 C 9.882812 -11.039062 9.140625 -11.421875 8.171875 -11.421875 C 7.179688 -11.421875 6.425781 -11.03125 5.90625 -10.25 C 5.394531 -9.476562 5.140625 -8.476562 5.140625 -7.25 C 5.140625 -6.007812 5.398438 -5.023438 5.921875 -4.296875 C 6.441406 -3.566406 7.191406 -3.203125 8.171875 -3.203125 Z M 8.171875 -3.203125 "/></g></g></g><g fill="#d5e6fe" fill-opacity="1"><g transform="translate(559.988289, 212.666189)"><g><path d="M 8.15625 0.28125 C 6.6875 0.28125 5.414062 -0.0195312 4.34375 -0.625 C 3.269531 -1.226562 2.445312 -2.082031 1.875 -3.1875 C 1.300781 -4.300781 1.015625 -5.617188 1.015625 -7.140625 C 1.015625 -8.617188 1.300781 -9.914062 1.875 -11.03125 C 2.445312 -12.15625 3.257812 -13.03125 4.3125 -13.65625 C 5.363281 -14.28125 6.59375 -14.59375 8 -14.59375 C 9.269531 -14.59375 10.414062 -14.320312 11.4375 -13.78125 C 12.457031 -13.25 13.269531 -12.441406 13.875 -11.359375 C 14.476562 -10.273438 14.78125 -8.914062 14.78125 -7.28125 L 14.78125 -6.1875 L 4.96875 -6.1875 L 4.96875 -6.171875 C 4.96875 -5.097656 5.257812 -4.25 5.84375 -3.625 C 6.4375 -3.007812 7.234375 -2.703125 8.234375 -2.703125 C 8.898438 -2.703125 9.476562 -2.84375 9.96875 -3.125 C 10.457031 -3.40625 10.800781 -3.820312 11 -4.375 L 14.6875 -4.125 C 14.40625 -2.789062 13.691406 -1.722656 12.546875 -0.921875 C 11.410156 -0.117188 9.945312 0.28125 8.15625 0.28125 Z M 4.96875 -8.65625 L 11.015625 -8.65625 C 11.003906 -9.519531 10.726562 -10.226562 10.1875 -10.78125 C 9.644531 -11.332031 8.9375 -11.609375 8.0625 -11.609375 C 7.175781 -11.609375 6.445312 -11.320312 5.875 -10.75 C 5.3125 -10.175781 5.007812 -9.476562 4.96875 -8.65625 Z M 4.96875 -8.65625 "/></g></g></g><g fill="#d5e6fe" fill-opacity="1"><g transform="translate(575.141473, 212.666189)"><g><path d="M 5.59375 -8.328125 L 5.59375 0 L 1.59375 0 L 1.59375 -14.40625 L 5.40625 -14.40625 L 5.40625 -11.875 L 5.578125 -11.875 C 5.898438 -12.707031 6.429688 -13.367188 7.171875 -13.859375 C 7.921875 -14.347656 8.832031 -14.59375 9.90625 -14.59375 C 11.40625 -14.59375 12.609375 -14.109375 13.515625 -13.140625 C 14.421875 -12.179688 14.875 -10.859375 14.875 -9.171875 L 14.875 0 L 10.890625 0 L 10.890625 -8.46875 C 10.890625 -9.34375 10.660156 -10.03125 10.203125 -10.53125 C 9.753906 -11.03125 9.128906 -11.28125 8.328125 -11.28125 C 7.515625 -11.28125 6.851562 -11.019531 6.34375 -10.5 C 5.84375 -9.988281 5.59375 -9.265625 5.59375 -8.328125 Z M 5.59375 -8.328125 "/></g></g></g><g fill="#d5e6fe" fill-opacity="1"><g transform="translate(590.932533, 212.666189)"><g><path d="M 8.15625 0.28125 C 6.6875 0.28125 5.414062 -0.0195312 4.34375 -0.625 C 3.269531 -1.226562 2.445312 -2.082031 1.875 -3.1875 C 1.300781 -4.300781 1.015625 -5.617188 1.015625 -7.140625 C 1.015625 -8.617188 1.300781 -9.914062 1.875 -11.03125 C 2.445312 -12.15625 3.257812 -13.03125 4.3125 -13.65625 C 5.363281 -14.28125 6.59375 -14.59375 8 -14.59375 C 9.269531 -14.59375 10.414062 -14.320312 11.4375 -13.78125 C 12.457031 -13.25 13.269531 -12.441406 13.875 -11.359375 C 14.476562 -10.273438 14.78125 -8.914062 14.78125 -7.28125 L 14.78125 -6.1875 L 4.96875 -6.1875 L 4.96875 -6.171875 C 4.96875 -5.097656 5.257812 -4.25 5.84375 -3.625 C 6.4375 -3.007812 7.234375 -2.703125 8.234375 -2.703125 C 8.898438 -2.703125 9.476562 -2.84375 9.96875 -3.125 C 10.457031 -3.40625 10.800781 -3.820312 11 -4.375 L 14.6875 -4.125 C 14.40625 -2.789062 13.691406 -1.722656 12.546875 -0.921875 C 11.410156 -0.117188 9.945312 0.28125 8.15625 0.28125 Z M 4.96875 -8.65625 L 11.015625 -8.65625 C 11.003906 -9.519531 10.726562 -10.226562 10.1875 -10.78125 C 9.644531 -11.332031 8.9375 -11.609375 8.0625 -11.609375 C 7.175781 -11.609375 6.445312 -11.320312 5.875 -10.75 C 5.3125 -10.175781 5.007812 -9.476562 4.96875 -8.65625 Z M 4.96875 -8.65625 "/></g></g></g><g fill="#d5e6fe" fill-opacity="1"><g transform="translate(606.085717, 212.666189)"><g><path d="M 1.59375 0 L 1.59375 -14.40625 L 5.46875 -14.40625 L 5.46875 -11.890625 L 5.625 -11.890625 C 5.882812 -12.785156 6.320312 -13.460938 6.9375 -13.921875 C 7.550781 -14.390625 8.265625 -14.625 9.078125 -14.625 C 9.472656 -14.625 9.832031 -14.578125 10.15625 -14.484375 C 10.488281 -14.390625 10.785156 -14.257812 11.046875 -14.09375 L 9.859375 -10.796875 C 9.671875 -10.890625 9.460938 -10.96875 9.234375 -11.03125 C 9.015625 -11.09375 8.765625 -11.125 8.484375 -11.125 C 7.679688 -11.125 7 -10.847656 6.4375 -10.296875 C 5.875 -9.742188 5.59375 -9.03125 5.59375 -8.15625 L 5.59375 0 Z M 1.59375 0 "/></g></g></g><g fill="#d5e6fe" fill-opacity="1"><g transform="translate(616.77383, 212.666189)"><g><path d="M 5.703125 0.265625 C 4.328125 0.265625 3.1875 -0.09375 2.28125 -0.8125 C 1.375 -1.53125 0.921875 -2.601562 0.921875 -4.03125 C 0.921875 -5.101562 1.171875 -5.945312 1.671875 -6.5625 C 2.179688 -7.175781 2.847656 -7.625 3.671875 -7.90625 C 4.492188 -8.1875 5.378906 -8.375 6.328125 -8.46875 C 7.578125 -8.59375 8.472656 -8.722656 9.015625 -8.859375 C 9.554688 -8.992188 9.828125 -9.296875 9.828125 -9.765625 L 9.828125 -9.8125 C 9.828125 -10.40625 9.640625 -10.863281 9.265625 -11.1875 C 8.890625 -11.519531 8.363281 -11.6875 7.6875 -11.6875 C 6.96875 -11.6875 6.394531 -11.53125 5.96875 -11.21875 C 5.539062 -10.90625 5.257812 -10.503906 5.125 -10.015625 L 1.421875 -10.328125 C 1.703125 -11.640625 2.382812 -12.675781 3.46875 -13.4375 C 4.5625 -14.207031 5.972656 -14.59375 7.703125 -14.59375 C 8.773438 -14.59375 9.773438 -14.425781 10.703125 -14.09375 C 11.640625 -13.757812 12.394531 -13.234375 12.96875 -12.515625 C 13.539062 -11.796875 13.828125 -10.863281 13.828125 -9.71875 L 13.828125 0 L 10.03125 0 L 10.03125 -2 L 9.921875 -2 C 9.566406 -1.332031 9.039062 -0.785156 8.34375 -0.359375 C 7.644531 0.0546875 6.765625 0.265625 5.703125 0.265625 Z M 6.84375 -2.484375 C 7.71875 -2.484375 8.4375 -2.738281 9 -3.25 C 9.570312 -3.757812 9.859375 -4.394531 9.859375 -5.15625 L 9.859375 -6.6875 C 9.703125 -6.570312 9.457031 -6.472656 9.125 -6.390625 C 8.789062 -6.316406 8.4375 -6.25 8.0625 -6.1875 C 7.695312 -6.125 7.367188 -6.070312 7.078125 -6.03125 C 6.378906 -5.9375 5.8125 -5.738281 5.375 -5.4375 C 4.945312 -5.144531 4.734375 -4.71875 4.734375 -4.15625 C 4.734375 -3.601562 4.929688 -3.1875 5.328125 -2.90625 C 5.734375 -2.625 6.238281 -2.484375 6.84375 -2.484375 Z M 6.84375 -2.484375 "/></g></g></g><g fill="#d5e6fe" fill-opacity="1"><g transform="translate(631.467382, 212.666189)"><g><path d="M 9.265625 -14.40625 L 9.265625 -11.40625 L 6.546875 -11.40625 L 6.546875 -4.421875 C 6.546875 -3.878906 6.671875 -3.507812 6.921875 -3.3125 C 7.171875 -3.113281 7.5 -3.015625 7.90625 -3.015625 C 8.09375 -3.015625 8.28125 -3.03125 8.46875 -3.0625 C 8.65625 -3.101562 8.796875 -3.132812 8.890625 -3.15625 L 9.53125 -0.171875 C 9.320312 -0.109375 9.035156 -0.0351562 8.671875 0.046875 C 8.316406 0.128906 7.878906 0.179688 7.359375 0.203125 C 5.898438 0.265625 4.734375 -0.046875 3.859375 -0.734375 C 2.984375 -1.429688 2.546875 -2.488281 2.546875 -3.90625 L 2.546875 -11.40625 L 0.578125 -11.40625 L 0.578125 -14.40625 L 2.546875 -14.40625 L 2.546875 -17.859375 L 6.546875 -17.859375 L 6.546875 -14.40625 Z M 9.265625 -14.40625 "/></g></g></g><g fill="#d5e6fe" fill-opacity="1"><g transform="translate(641.095497, 212.666189)"><g><path d="M 1.59375 0 L 1.59375 -14.40625 L 5.59375 -14.40625 L 5.59375 0 Z M 3.59375 -16.265625 C 3.007812 -16.265625 2.503906 -16.460938 2.078125 -16.859375 C 1.648438 -17.265625 1.4375 -17.742188 1.4375 -18.296875 C 1.4375 -18.847656 1.648438 -19.320312 2.078125 -19.71875 C 2.503906 -20.113281 3.007812 -20.3125 3.59375 -20.3125 C 4.1875 -20.3125 4.695312 -20.113281 5.125 -19.71875 C 5.550781 -19.320312 5.765625 -18.847656 5.765625 -18.296875 C 5.765625 -17.742188 5.550781 -17.265625 5.125 -16.859375 C 4.695312 -16.460938 4.1875 -16.265625 3.59375 -16.265625 Z M 3.59375 -16.265625 "/></g></g></g><g fill="#d5e6fe" fill-opacity="1"><g transform="translate(647.64684, 212.666189)"><g><path d="M 15.03125 -14.40625 L 10 0 L 5.484375 0 L 0.453125 -14.40625 L 4.671875 -14.40625 L 7.671875 -4.09375 L 7.8125 -4.09375 L 10.796875 -14.40625 Z M 15.03125 -14.40625 "/></g></g></g><g fill="#d5e6fe" fill-opacity="1"><g transform="translate(662.490468, 212.666189)"><g><path d="M 8.15625 0.28125 C 6.6875 0.28125 5.414062 -0.0195312 4.34375 -0.625 C 3.269531 -1.226562 2.445312 -2.082031 1.875 -3.1875 C 1.300781 -4.300781 1.015625 -5.617188 1.015625 -7.140625 C 1.015625 -8.617188 1.300781 -9.914062 1.875 -11.03125 C 2.445312 -12.15625 3.257812 -13.03125 4.3125 -13.65625 C 5.363281 -14.28125 6.59375 -14.59375 8 -14.59375 C 9.269531 -14.59375 10.414062 -14.320312 11.4375 -13.78125 C 12.457031 -13.25 13.269531 -12.441406 13.875 -11.359375 C 14.476562 -10.273438 14.78125 -8.914062 14.78125 -7.28125 L 14.78125 -6.1875 L 4.96875 -6.1875 L 4.96875 -6.171875 C 4.96875 -5.097656 5.257812 -4.25 5.84375 -3.625 C 6.4375 -3.007812 7.234375 -2.703125 8.234375 -2.703125 C 8.898438 -2.703125 9.476562 -2.84375 9.96875 -3.125 C 10.457031 -3.40625 10.800781 -3.820312 11 -4.375 L 14.6875 -4.125 C 14.40625 -2.789062 13.691406 -1.722656 12.546875 -0.921875 C 11.410156 -0.117188 9.945312 0.28125 8.15625 0.28125 Z M 4.96875 -8.65625 L 11.015625 -8.65625 C 11.003906 -9.519531 10.726562 -10.226562 10.1875 -10.78125 C 9.644531 -11.332031 8.9375 -11.609375 8.0625 -11.609375 C 7.175781 -11.609375 6.445312 -11.320312 5.875 -10.75 C 5.3125 -10.175781 5.007812 -9.476562 4.96875 -8.65625 Z M 4.96875 -8.65625 "/></g></g></g><g fill="#d5e6fe" fill-opacity="1"><g transform="translate(677.643652, 212.666189)"><g/></g></g><g fill="#d5e6fe" fill-opacity="1"><g transform="translate(683.135016, 212.666189)"><g><path d="M 4.984375 0 L 0.625 0 L 7.265625 -19.21875 L 12.5 -19.21875 L 19.125 0 L 14.765625 0 L 13.34375 -4.375 L 6.40625 -4.375 Z M 7.4375 -7.546875 L 12.3125 -7.546875 L 9.953125 -14.828125 L 9.8125 -14.828125 Z M 7.4375 -7.546875 "/></g></g></g><g fill="#d5e6fe" fill-opacity="1"><g transform="translate(702.25611, 212.666189)"><g><path d="M 5.734375 -19.21875 L 5.734375 0 L 1.671875 0 L 1.671875 -19.21875 Z M 5.734375 -19.21875 "/></g></g></g><g fill="#d5e6fe" fill-opacity="1"><g transform="translate(709.034909, 212.666189)"><g/></g></g><g fill="#d5e6fe" fill-opacity="1"><g transform="translate(714.526269, 212.666189)"><g/></g></g>
</svg>