<?xml version="1.0" standalone="no"?>
<!DOCTYPE svg PUBLIC "-//W3C//DTD SVG 20010904//EN"
 "http://www.w3.org/TR/2001/REC-SVG-20010904/DTD/svg10.dtd">
<svg version="1.0" xmlns="http://www.w3.org/2000/svg"
 width="2176.000000pt" height="1576.000000pt" viewBox="0 0 2176.000000 1576.000000"
 preserveAspectRatio="xMidYMid meet">
 <rect x="0" y="0" width="100%" height="100%" fill="yellow"/>
<g transform="translate(0.000000,1576.000000) scale(0.100000,-0.100000)">
<path d="M0 7880 l0 -7880 10880 0 10880 0 0 7880 0 7880 -10880 0 -10880 0 0
-7880z m11605 4260 c582 -42 1118 -190 1630 -450 183 -92 379 -209 514 -304
36 -25 61 -46 55 -46 -5 -1 -29 -5 -53 -9 -42 -9 -46 -7 -155 64 -537 350
-1101 556 -1766 647 -145 20 -207 23 -520 23 -314 0 -375 -3 -525 -23 -759
-103 -1413 -370 -2009 -821 -190 -143 -421 -354 -570 -520 -53 -58 -63 -65
-117 -76 l-59 -12 19 26 c35 48 238 259 353 367 299 281 612 499 988 688 308
154 552 246 867 325 441 110 910 152 1348 121z m4464 -659 c12 -8 3 -22 -42
-71 -32 -34 -70 -85 -85 -113 -23 -45 -27 -64 -27 -144 0 -112 8 -124 60 -89
77 52 145 24 145 -59 0 -35 -6 -51 -30 -79 -35 -40 -87 -60 -128 -51 -38 8
-96 69 -120 126 -11 25 -28 79 -37 120 -36 155 -53 179 -132 179 -72 0 -136
-46 -167 -122 -23 -53 -20 -162 4 -216 30 -67 123 -156 249 -239 64 -42 154
-101 201 -132 47 -31 126 -96 175 -146 104 -103 155 -192 181 -316 21 -96 13
-256 -16 -359 -93 -329 -392 -623 -725 -711 -123 -33 -285 -31 -388 5 -180 61
-292 179 -331 347 -8 33 -17 63 -20 66 -4 4 -143 -20 -188 -33 -26 -8 -24 33
2 41 29 9 68 61 80 106 14 51 -2 135 -39 204 -55 104 -204 225 -320 259 -101
30 -87 50 -164 -252 -37 -147 -68 -281 -67 -299 0 -43 41 -89 88 -100 22 -5
37 -15 37 -23 0 -11 -52 -26 -204 -57 -112 -24 -206 -41 -209 -38 -3 2 18 26
46 52 32 31 62 72 81 113 33 71 411 1466 411 1517 0 17 -9 42 -21 57 -26 33
-77 35 -139 4 -101 -51 -126 -184 -31 -163 23 5 32 2 40 -14 30 -55 -5 -129
-78 -170 -120 -66 -229 5 -218 142 13 151 134 272 324 322 36 10 139 19 278
25 138 6 242 15 278 25 32 8 60 15 62 15 14 0 2 -48 -20 -76 -26 -33 -133 -94
-168 -94 -14 0 -18 -5 -15 -18 3 -10 72 -245 154 -524 l149 -506 75 72 c87 83
154 124 260 160 195 64 384 31 484 -85 113 -132 92 -385 -44 -533 -59 -64
-165 -116 -237 -116 -98 0 -151 50 -98 92 86 68 129 146 128 238 -1 172 -117
255 -286 206 -71 -21 -170 -88 -209 -143 l-30 -41 21 -65 c25 -74 81 -145 136
-171 52 -25 44 -42 -27 -56 -35 -6 -94 -19 -132 -27 l-68 -16 5 -38 c7 -55 49
-140 92 -188 100 -111 307 -145 514 -85 274 79 461 340 461 645 0 233 -84 349
-436 598 -338 240 -418 354 -392 556 24 178 184 327 412 385 90 23 156 25 222
9 45 -12 45 -12 87 29 38 37 96 71 122 71 6 1 16 -3 24 -8z m-2309 -530 c0
-11 -9 -22 -20 -26 -31 -10 -99 -94 -111 -139 -16 -56 -13 -1306 3 -1356 17
-55 53 -96 103 -116 42 -18 56 -36 36 -48 -8 -5 -580 -126 -595 -126 -19 0 1
31 44 68 28 24 63 67 78 95 l27 52 3 584 c1 322 -1 582 -5 577 -4 -4 -94 -238
-199 -519 -127 -342 -196 -513 -206 -515 -11 -2 -81 124 -249 448 l-234 452
-3 -577 c-1 -380 1 -591 8 -616 16 -57 64 -108 116 -121 46 -13 61 -42 27 -52
-26 -7 -412 -86 -423 -86 -24 0 -6 37 30 62 53 37 97 100 117 167 14 50 15
120 9 676 -4 346 -11 636 -17 657 -11 42 -67 96 -110 105 -33 6 -41 38 -11 47
41 12 474 98 477 95 1 -2 85 -168 185 -368 l182 -365 160 435 c88 239 163 437
167 441 6 7 360 85 394 87 10 1 17 -6 17 -18z m-1720 -526 c0 -165 -2 -186
-17 -192 -9 -4 -19 -1 -21 5 -2 7 -25 45 -52 85 -74 114 -144 144 -274 117
l-58 -12 7 -691 c6 -686 7 -692 28 -737 18 -36 34 -51 77 -72 29 -16 64 -28
77 -28 31 0 32 -38 1 -45 -13 -3 -165 -35 -338 -70 -173 -36 -323 -68 -332
-71 -13 -4 -18 0 -18 14 0 11 21 33 55 57 66 45 111 103 130 169 17 57 19 313
8 994 l-6 414 -36 -7 c-20 -3 -58 -13 -86 -22 -91 -30 -184 -145 -244 -305 -6
-16 -17 -28 -26 -28 -13 0 -15 26 -15 189 l0 190 53 11 c28 6 275 57 547 114
272 57 505 105 518 105 l22 1 0 -185z m-1298 -123 c17 -17 19 -303 2 -309 -7
-2 -32 24 -57 59 -88 123 -170 176 -252 163 -145 -21 -212 -195 -136 -350 37
-76 116 -157 226 -234 104 -73 215 -179 264 -252 73 -109 102 -243 81 -368
-36 -213 -223 -401 -470 -471 -96 -27 -286 -38 -358 -20 l-52 12 0 174 c0 162
1 174 18 174 13 0 22 -12 31 -39 29 -99 125 -198 214 -222 99 -26 226 30 282
125 74 127 49 283 -71 433 -51 63 -71 83 -217 210 -168 146 -260 277 -273 389
-4 28 -1 82 5 120 37 211 196 355 451 409 83 18 293 16 312 -3z m-3198 -70 c3
-5 -17 -32 -44 -61 -51 -54 -122 -187 -161 -301 l-22 -65 -56 56 c-170 170
-463 206 -708 88 -354 -170 -581 -549 -643 -1072 -17 -145 -15 -431 5 -560 74
-493 355 -845 792 -992 l83 -28 137 46 c217 72 323 90 557 93 235 2 236 3 191
91 -35 69 -29 109 24 166 34 36 44 41 94 45 52 4 58 2 87 -26 24 -25 30 -39
30 -74 0 -54 -35 -127 -88 -185 l-39 -42 56 -17 c226 -65 388 -232 436 -450
24 -105 17 -291 -15 -389 -55 -173 -152 -316 -310 -458 -233 -210 -544 -323
-715 -262 -22 8 -44 15 -49 15 -4 0 -5 -272 -1 -607 6 -555 9 -612 25 -650 19
-42 60 -73 99 -73 28 0 34 -15 21 -54 -22 -68 -121 -126 -215 -126 -41 0 -45
-2 -50 -27 -25 -125 -72 -204 -141 -238 -30 -15 -50 -35 -75 -79 -74 -127
-221 -245 -327 -262 -75 -12 -132 35 -132 107 0 94 106 154 167 93 22 -22 25
-32 20 -70 -4 -39 -2 -44 16 -44 54 0 133 97 177 218 68 188 65 118 65 1447
-1 1130 -2 1203 -19 1248 -19 49 -62 93 -102 103 -13 3 -24 14 -24 23 0 13 55
27 308 79 169 35 310 63 315 62 18 -1 3 -26 -39 -63 -26 -23 -57 -64 -70 -92
-23 -48 -24 -60 -24 -272 0 -123 4 -223 9 -223 5 0 14 6 20 14 6 7 39 26 73
41 206 93 384 -56 290 -242 -33 -63 -93 -103 -157 -103 l-36 0 16 30 c21 40
19 82 -5 108 -32 34 -65 37 -117 11 -61 -32 -86 -76 -80 -147 15 -197 283
-215 480 -33 140 130 224 318 249 558 32 304 -71 577 -258 689 l-40 24 -85
-35 c-192 -78 -401 -115 -654 -115 l-167 0 -57 -44 c-161 -124 -284 -306 -331
-490 -59 -233 21 -486 155 -486 44 0 49 9 19 37 -23 21 -26 30 -21 66 11 81
104 134 164 92 64 -45 9 -180 -92 -226 -50 -23 -152 -25 -202 -4 -20 8 -51 31
-70 51 -27 29 -42 37 -77 39 -116 7 -176 112 -163 285 11 130 67 267 162 390
59 77 197 206 284 265 65 45 70 50 49 56 -383 110 -608 256 -789 512 -66 93
-143 250 -174 355 -14 45 -37 121 -51 170 -49 166 -111 253 -188 268 -33 6
-35 9 -29 33 17 71 73 107 152 98 l49 -6 7 77 c24 279 143 603 301 823 224
311 555 527 911 595 116 22 331 14 452 -16 81 -20 85 -20 95 -3 19 35 101 115
136 133 36 19 125 27 134 12z m2326 -84 c0 -6 -26 -35 -59 -64 -38 -34 -67
-72 -82 -106 l-24 -53 3 -645 c4 -705 3 -694 64 -745 16 -13 47 -30 68 -36 37
-11 51 -31 32 -43 -4 -2 -140 -32 -302 -66 -162 -34 -305 -64 -317 -67 -40 -9
-26 20 31 70 35 30 65 67 83 104 l28 58 -3 650 c-2 635 -3 650 -23 692 -21 44
-86 93 -123 93 -12 0 -16 7 -14 22 3 20 25 26 298 84 318 67 340 70 340 52z
m-991 -244 c83 -23 143 -71 179 -143 56 -113 51 -242 -16 -364 -36 -67 -143
-173 -220 -218 l-61 -36 43 -32 c92 -65 168 -207 236 -436 117 -398 150 -482
220 -576 76 -102 180 -149 298 -135 97 11 117 30 151 141 l19 60 52 13 c29 7
53 12 54 10 2 -2 51 -169 110 -373 59 -203 114 -387 123 -408 9 -21 33 -52 52
-68 19 -15 33 -30 30 -32 -10 -8 -313 -67 -318 -61 -3 3 4 13 15 22 47 37 53
96 19 162 -33 64 -152 150 -208 150 -21 0 -26 -10 -62 -154 -38 -148 -39 -154
-22 -180 10 -14 27 -26 38 -26 12 0 19 -5 17 -12 -3 -9 -177 -54 -222 -57 -6
-1 4 14 21 32 17 17 38 46 46 62 8 17 49 158 91 315 42 157 79 292 82 302 4
15 -1 14 -55 -2 -33 -11 -106 -24 -163 -31 -227 -26 -400 39 -514 193 -91 123
-130 240 -199 583 -49 246 -74 324 -121 370 -51 52 -130 53 -167 3 -26 -35
-15 -72 19 -65 56 10 33 -47 -26 -64 l-40 -12 0 -213 c0 -117 5 -236 11 -264
13 -62 54 -112 110 -134 29 -12 39 -21 37 -34 -3 -14 -56 -28 -298 -79 -162
-34 -303 -62 -312 -62 -32 -2 -19 23 36 71 34 30 65 69 83 105 l28 58 -3 635
c-3 433 -7 647 -15 674 -14 51 -66 102 -117 117 -26 8 -40 18 -40 29 0 14 62
29 378 94 207 43 382 79 387 81 28 10 166 3 214 -11z m-1079 -187 c0 -7 -20
-29 -44 -49 -24 -20 -54 -58 -67 -85 l-24 -48 2 -660 c2 -456 6 -673 14 -703
13 -46 62 -97 104 -108 14 -3 25 -13 25 -23 0 -14 -49 -27 -292 -77 -211 -44
-294 -57 -296 -48 -2 6 22 36 52 66 84 85 86 94 86 516 l0 354 -22 -5 c-13 -3
-116 -25 -230 -48 l-208 -43 0 -333 c0 -204 4 -352 11 -383 13 -62 55 -114
105 -130 24 -8 34 -17 32 -28 -2 -13 -62 -29 -278 -74 -151 -31 -283 -57 -292
-58 -30 0 -20 25 21 58 22 18 52 56 68 89 l28 58 -3 655 c-2 373 -8 671 -13
692 -13 49 -52 94 -94 108 -22 7 -35 18 -35 28 0 15 48 27 293 78 322 67 336
66 252 -8 -87 -77 -90 -86 -93 -385 -2 -174 0 -263 7 -263 6 0 108 20 227 45
119 25 218 45 221 45 11 0 -4 495 -16 525 -17 42 -58 83 -98 96 -22 7 -33 16
-31 27 2 12 65 29 273 73 294 62 315 65 315 46z m5395 -1015 c-3 -3 -22 13
-43 36 -44 47 -65 51 -165 31 l-57 -12 0 -153 c0 -150 1 -154 21 -154 37 0 87
30 115 71 14 21 31 39 35 39 10 0 12 -213 3 -223 -4 -3 -19 7 -35 24 -25 27
-33 30 -81 27 l-53 -3 -3 -217 c-1 -134 1 -218 7 -218 5 0 43 7 83 15 102 22
128 40 169 123 11 23 25 42 30 42 5 0 9 -42 9 -93 l0 -93 -57 -12 c-32 -6
-157 -31 -277 -56 -121 -26 -221 -44 -223 -42 -3 2 13 22 36 45 24 24 42 53
46 73 3 18 5 191 3 384 -3 336 -4 353 -23 374 -11 12 -30 26 -42 31 -13 5 -23
12 -23 17 0 5 118 33 263 63 l262 54 3 -84 c2 -46 0 -86 -3 -89z m2295 63 c0
-2 11 -68 24 -147 38 -224 37 -216 15 -223 -10 -3 -27 -7 -38 -10 -16 -5 -20
2 -26 52 -8 69 -44 281 -51 305 -4 13 3 18 28 21 18 2 36 5 41 5 4 1 7 0 7 -3z
m-2880 -25 c0 -5 -9 -14 -20 -20 -48 -26 -50 -44 -50 -440 0 -405 1 -413 57
-439 26 -13 27 -14 8 -22 -31 -14 -308 -69 -315 -63 -3 3 7 16 22 27 51 41 58
77 58 292 l0 195 -22 -5 c-33 -7 -219 -45 -225 -45 -2 0 -3 -95 -1 -211 l3
-211 27 -23 c15 -13 33 -25 40 -28 7 -2 10 -7 7 -10 -9 -11 -308 -71 -315 -64
-4 3 7 20 24 37 17 17 34 45 37 63 3 18 5 196 3 395 l-3 364 -27 23 c-15 13
-33 25 -40 28 -27 9 5 20 156 51 113 24 156 29 156 21 0 -7 -7 -15 -15 -19 -8
-3 -24 -20 -35 -38 -18 -29 -20 -51 -20 -179 l0 -146 125 26 125 26 0 120 c0
147 -10 190 -50 210 -17 9 -30 19 -30 24 0 7 261 68 303 70 9 1 17 -3 17 -9z
m-791 -272 c1 -69 -2 -88 -13 -88 -7 0 -19 14 -26 30 -16 40 -75 90 -104 90
-13 0 -38 -3 -55 -6 l-32 -7 3 -388 3 -387 24 -26 c13 -14 37 -28 53 -31 16
-4 27 -12 25 -18 -3 -9 -333 -86 -374 -87 -22 0 -14 16 14 31 14 8 39 32 55
53 l28 39 0 389 0 390 -32 -7 c-74 -16 -120 -60 -162 -153 -11 -23 -23 -42
-28 -42 -4 0 -8 47 -8 104 l0 105 58 12 c569 118 557 116 564 100 4 -9 7 -55
7 -103z m-1099 -213 c0 -58 -4 -105 -9 -105 -5 0 -22 20 -37 44 -42 67 -92 88
-161 70 l-23 -6 0 -369 c0 -407 2 -424 59 -453 16 -9 37 -16 46 -16 8 0 15 -4
15 -10 0 -5 -1 -10 -3 -10 -2 0 -89 -18 -193 -40 -104 -22 -192 -40 -196 -40
-17 0 -6 18 19 31 14 8 39 32 55 53 l28 39 0 389 c0 437 6 406 -77 369 -44
-21 -94 -80 -115 -137 -7 -19 -18 -34 -25 -34 -10 0 -13 25 -13 100 0 55 1
100 3 100 1 0 137 29 302 64 165 35 306 64 313 65 9 1 12 -26 12 -104z m5474
59 c13 -5 2 -21 -47 -74 -92 -97 -112 -143 -112 -257 0 -112 10 -128 55 -89
22 18 43 26 71 26 55 0 79 -27 79 -86 0 -40 -5 -51 -38 -84 -48 -48 -95 -59
-147 -34 -64 30 -112 129 -145 297 -8 39 -21 69 -40 90 -25 28 -34 32 -79 31
-108 -1 -186 -98 -186 -229 1 -144 62 -213 358 -409 296 -196 402 -306 458
-478 21 -64 24 -91 23 -218 0 -131 -3 -153 -28 -230 -56 -169 -145 -310 -279
-437 -93 -88 -174 -143 -291 -198 -166 -79 -322 -102 -476 -71 -236 48 -377
192 -414 423 l-11 72 -69 -44 c-129 -84 -255 -118 -436 -118 -75 -1 -136 4
-153 11 l-27 12 2 172 c3 155 5 173 21 176 10 2 17 -3 17 -11 0 -8 16 -46 35
-85 60 -119 148 -177 259 -170 146 10 243 112 254 269 11 152 -71 283 -300
481 -268 232 -339 368 -294 561 34 143 122 254 255 322 136 68 354 103 469 75
l52 -12 0 -154 c0 -120 -3 -154 -13 -154 -7 0 -35 29 -61 65 -88 120 -155 161
-248 153 -141 -14 -213 -189 -139 -343 41 -86 97 -144 247 -256 178 -133 271
-242 309 -362 9 -29 18 -58 21 -66 3 -9 14 -3 37 19 110 109 284 180 443 180
209 0 347 -109 369 -290 21 -179 -78 -371 -232 -447 -95 -46 -202 -42 -238 9
-12 18 -8 25 44 77 69 68 94 117 99 198 7 103 -32 184 -106 222 -58 30 -201 7
-284 -45 -135 -86 -230 -287 -213 -453 31 -296 274 -432 608 -340 179 50 318
164 400 326 61 123 80 213 76 356 -4 108 -6 117 -43 192 -56 113 -165 220
-386 375 -214 151 -328 258 -373 350 -29 59 -32 73 -32 160 0 88 3 101 34 164
21 43 55 90 92 126 128 126 373 201 523 159 37 -10 39 -9 67 24 44 54 121 87
163 71z m-2104 -629 c0 -151 -2 -165 -17 -165 -10 0 -32 22 -50 49 -18 27 -48
61 -67 76 -58 44 -95 44 -298 -2 l-68 -15 0 -285 0 -285 43 7 c115 19 173 65
251 201 1 1 11 5 24 8 l22 7 0 -209 c0 -247 -2 -252 -79 -173 -54 56 -90 67
-176 57 -93 -11 -85 22 -85 -341 0 -177 3 -356 6 -397 l7 -75 146 30 c210 41
246 67 329 235 56 111 62 101 62 -100 l0 -173 -498 -103 c-273 -56 -503 -102
-509 -102 -26 0 -11 26 40 71 28 25 63 68 77 95 l25 49 0 665 0 665 -27 47
c-26 43 -90 88 -126 88 -7 0 -12 8 -12 18 0 16 58 31 483 119 265 56 485 102
490 102 4 1 7 -73 7 -164z m-1147 -106 c21 -5 40 -16 42 -22 2 -7 8 -87 12
-179 7 -148 6 -167 -8 -171 -11 -3 -27 17 -55 65 -122 218 -335 267 -475 110
-82 -92 -149 -274 -180 -483 -18 -123 -15 -423 4 -539 40 -234 126 -404 231
-454 143 -68 342 72 438 310 19 45 36 74 45 74 13 0 14 -19 9 -127 -11 -212
-8 -202 -74 -245 -156 -101 -366 -152 -523 -129 -376 56 -570 480 -468 1019
73 382 309 668 617 747 132 33 311 45 385 24z m-1123 -215 c0 -8 -24 -38 -54
-65 -33 -30 -63 -69 -77 -101 l-24 -53 3 -766 2 -766 -52 -11 c-29 -5 -53 -9
-54 -9 0 1 -171 240 -380 530 l-379 529 -3 -229 c-1 -125 1 -361 6 -523 7
-285 8 -296 30 -327 15 -21 40 -39 73 -50 90 -32 71 -44 -164 -92 -116 -24
-218 -46 -224 -49 -31 -11 -8 34 38 75 27 25 62 69 77 97 l27 51 0 645 c0 355
-4 662 -8 683 -10 48 -67 112 -113 127 -21 7 -34 18 -34 29 0 15 32 24 198 58
108 23 197 40 198 40 0 -1 140 -199 310 -440 l309 -438 3 368 c3 429 -1 459
-60 515 -26 26 -52 40 -78 44 -30 5 -40 11 -40 25 0 11 1 19 3 19 1 1 103 23
227 49 124 27 228 49 233 50 4 0 7 -6 7 -15z m-1420 -294 c0 -5 -31 -40 -69
-78 -108 -106 -103 -62 -99 -814 l3 -633 23 -47 c24 -48 64 -81 115 -93 31 -8
38 -41 10 -49 -27 -8 -602 -126 -613 -126 -24 0 -6 37 29 62 46 32 94 98 111
153 8 29 10 215 8 685 l-3 645 -27 47 c-26 43 -90 88 -126 88 -7 0 -12 9 -12
19 0 16 11 22 58 31 31 7 170 36 307 65 272 58 285 60 285 45z m-1073 -265
c85 -25 143 -71 179 -142 58 -112 55 -237 -8 -364 -38 -75 -143 -189 -222
-241 -33 -21 -54 -38 -49 -38 23 0 96 -85 124 -143 15 -33 38 -104 50 -156 84
-377 114 -431 237 -431 46 0 52 -2 52 -21 0 -51 -126 -131 -243 -155 -179 -38
-284 42 -332 251 -8 33 -23 137 -35 230 -24 197 -41 263 -81 301 -26 25 -32
27 -89 21 -34 -4 -66 -9 -71 -13 -14 -8 -12 -633 3 -675 19 -56 46 -87 99
-111 88 -40 74 -47 -251 -115 -162 -34 -305 -62 -317 -62 -35 -1 -27 23 16 54
51 34 107 116 121 176 9 33 11 227 8 670 -3 610 -4 625 -24 670 -22 48 -61 82
-114 100 -18 7 -30 18 -30 29 0 14 19 21 103 39 56 12 228 48 382 80 304 64
400 73 492 46z m5606 -1189 c-63 -107 -257 -371 -377 -511 -104 -121 -297
-316 -431 -435 -421 -372 -925 -663 -1458 -841 -407 -136 -806 -204 -1252
-216 -1001 -26 -1948 287 -2743 906 l-63 49 48 11 c45 10 50 9 88 -19 273
-202 455 -315 709 -441 435 -215 852 -340 1361 -406 197 -25 798 -25 990 0
507 68 954 201 1369 409 176 88 261 138 451 264 453 300 850 692 1154 1139
l92 134 34 -16 c19 -9 31 -21 28 -27z"/>
<path d="M14374 10457 c-39 -150 -70 -273 -69 -274 1 -2 36 -12 77 -22 70 -18
183 -70 235 -107 21 -15 20 -11 -11 108 -127 474 -149 554 -155 560 -3 4 -38
-115 -77 -265z"/>
<path d="M7235 7343 c-16 -2 -59 -11 -95 -19 -214 -49 -219 -69 -13 -61 131 4
205 17 333 55 53 15 54 16 25 23 -32 7 -201 9 -250 2z"/>
<path d="M8428 9767 l-48 -10 0 -312 0 -312 82 19 c98 23 149 50 207 113 64
69 83 122 88 240 5 95 3 103 -24 155 -18 34 -45 66 -72 85 -36 26 -52 30 -114
31 -40 1 -93 -3 -119 -9z"/>
<path d="M9691 7798 c-19 -73 -36 -138 -38 -144 -2 -7 11 -14 31 -18 19 -4 59
-19 90 -35 31 -15 56 -26 56 -23 0 17 -94 352 -99 352 -3 0 -21 -60 -40 -132z"/>
<path d="M8875 6666 l-50 -11 1 -308 c1 -169 3 -309 5 -312 2 -2 36 3 74 11
178 37 305 191 305 370 0 87 -15 135 -59 185 -63 74 -150 95 -276 65z"/>
</g>
</svg>
