<?xml version="1.0" standalone="no"?>
<!DOCTYPE svg PUBLIC "-//W3C//DTD SVG 20010904//EN"
 "http://www.w3.org/TR/2001/REC-SVG-20010904/DTD/svg10.dtd">
<svg version="1.0" xmlns="http://www.w3.org/2000/svg"
 width="542.000000pt" height="294.000000pt" viewBox="0 0 542.000000 294.000000"
 preserveAspectRatio="xMidYMid meet">

<g transform="translate(0.000000,294.000000) scale(0.100000,-0.100000)"
fill="#000000" stroke="none">
<path d="M1026 2288 l-596 -602 0 -153 0 -153 -115 0 c-127 0 -169 -11 -218
-58 -61 -57 -67 -84 -67 -277 0 -193 6 -220 67 -277 49 -47 91 -58 223 -58
l121 0 -3 -142 -3 -143 -197 -3 -198 -2 0 -95 0 -95 200 0 200 0 0 -95 0 -95
90 0 90 0 0 95 0 95 103 0 c128 0 187 16 238 66 60 59 71 106 67 292 -3 151
-4 159 -31 205 -15 26 -47 60 -69 75 -39 25 -49 27 -175 30 l-133 4 0 144 0
144 190 0 190 0 0 95 0 95 -190 0 -190 0 0 108 0 109 504 509 505 509 73 -75
c216 -224 248 -258 248 -266 0 -5 -172 -181 -382 -391 l-383 -383 135 0 135 1
320 315 320 315 50 -55 c27 -30 178 -190 334 -356 l284 -300 601 0 601 0 -715
715 -715 715 -220 -220 -221 -221 -59 63 c-206 219 -399 418 -405 418 -5 0
-276 -271 -604 -602z m2464 -670 c0 -5 -143 -8 -318 -8 l-318 0 -85 88 c-81
83 -435 456 -508 535 l-35 37 154 155 155 155 477 -477 c263 -263 478 -481
478 -485z m-3060 -574 l0 -146 -83 3 c-116 5 -117 6 -117 145 0 139 4 144 122
144 l78 0 0 -146z m374 -350 c20 -20 23 -233 4 -252 -8 -8 -45 -12 -100 -12
l-88 0 0 140 0 140 84 0 c64 0 88 -4 100 -16z"/>
<path d="M1190 1320 l0 -80 100 0 100 0 0 80 0 80 -100 0 -100 0 0 -80z"/>
<path d="M4110 938 c0 -429 2 -466 19 -503 40 -88 98 -115 246 -115 l105 0 0
80 0 80 -80 0 c-68 0 -81 3 -90 19 -6 13 -10 176 -10 460 l0 441 -95 0 -95 0
0 -462z"/>
<path d="M1190 720 l0 -400 100 0 100 0 0 400 0 400 -100 0 -100 0 0 -400z"/>
<path d="M1590 720 l0 -400 95 0 95 0 0 298 c0 253 2 301 16 320 15 21 21 22
170 22 88 0 164 -4 175 -10 18 -10 19 -24 19 -320 l0 -310 95 0 95 0 0 298 c0
253 2 301 16 320 15 21 21 22 174 22 131 0 161 -3 174 -16 14 -13 16 -56 16
-320 l0 -304 95 0 96 0 -3 338 -3 338 -33 41 c-57 72 -93 83 -277 83 l-159 0
-57 -56 -56 -55 -28 37 c-48 63 -87 74 -270 74 l-159 0 -48 -47 -48 -47 0 47
0 47 -95 0 -95 0 0 -400z"/>
<path d="M3120 580 l0 -540 95 0 95 0 0 186 0 186 48 -46 47 -47 192 3 191 3
44 31 c23 18 53 51 65 75 22 40 23 52 23 288 0 267 -6 297 -61 348 -50 46 -87
53 -276 53 l-177 0 -48 -47 -48 -47 0 47 0 47 -95 0 -95 0 0 -540z m598 368
c15 -15 17 -420 2 -449 -10 -18 -23 -19 -197 -19 -165 0 -187 2 -199 17 -17
22 -20 413 -4 444 10 18 23 19 198 19 133 0 192 -4 200 -12z"/>
<path d="M4725 1101 c-49 -22 -91 -69 -105 -119 -8 -24 -10 -125 -8 -289 l3
-251 31 -39 c16 -21 50 -48 74 -61 43 -21 53 -22 337 -22 l293 0 0 80 0 80
-265 0 c-305 0 -285 -7 -285 104 l0 66 285 0 285 0 0 160 c0 174 -8 207 -62
257 -51 48 -82 53 -320 53 -195 0 -228 -3 -263 -19z m443 -153 c7 -7 12 -42
12 -85 l0 -73 -190 0 -190 0 0 73 c0 43 5 78 12 85 17 17 339 17 356 0z"/>
</g>
</svg>
