<svg xmlns="http://www.w3.org/2000/svg" version="1.1" xmlns:xlink="http://www.w3.org/1999/xlink" xmlns:svgjs="http://svgjs.dev/svgjs" viewBox="0 0 800 800" opacity="0.4"><defs><linearGradient x1="50%" y1="0%" x2="50%" y2="100%" id="wwwhirl-grad"><stop stop-color="hsl(206, 75%, 49%)" stop-opacity="1" offset="45%"></stop><stop stop-color="hsl(331, 90%, 56%)" stop-opacity="1" offset="100%"></stop></linearGradient></defs><g stroke-width="2" stroke="hsl(0, 0%, 100%)" fill="none" stroke-linecap="round"><path d="M-128.0000573730468 444.80978025749147C-108.0000568181817 419.6097795583615 -72.00005581942455 319.64977678514583 -32.00005470969441 323.8497769016675C7.999946400035725 328.04977701818916 23.999946843927773 464.9697808167955 63.99994795365791 464.9697808167955C103.99994906338804 464.9697808167955 119.99994950728012 323.8497769016675 159.9999506170103 323.8497769016675C199.99995172674045 323.8497769016675 215.99995217063253 464.06978079182653 255.99995328036272 464.9697808167955C295.9999543900928 465.8697808417644 311.9999548339848 326.96977698822644 351.9999559437149 328.16977702151837C391.9999570534451 329.36977705481024 407.99995749733716 473.72978105982634 447.99995860706736 470.7297809765966C487.99995971679755 467.72978089336686 503.9999601606895 321.8697768467359 543.9999612704197 313.7697766220155C583.9999623801498 305.66977639729515 599.9999628240419 427.9497797897402 639.999963933772 431.8497798979389C679.9999650435022 435.7497800061376 695.9999654873943 321.0897768250961 735.9999665971245 332.48977714136925C775.9999677068547 343.8897774576423 791.9999681507467 489.56978149927954 831.9999692604767 486.56978141604975C871.9999703702067 483.56978133281996 907.9999713689638 353.1897777156546 927.999971923829 318.0897767418664 " transform="rotate(144, 400, 400)"></path><path d="M-117.00005744934072 443.87621328699845C-97.41672357270201 419.2012126024337 -62.16672259475229 321.32370988699336 -23.000054841474878 325.4362100010875C16.16661291180256 329.5487101151816 31.833280013113523 463.6162138346503 70.99994776639096 463.6162138346503C110.16661551966843 463.6162138346503 125.83328262097939 325.4362100010875 164.9999503742568 325.4362100010875C204.16661812753426 325.4362100010875 219.83328522884528 462.7349638102015 258.99995298212264 463.6162138346503C298.16662073540016 464.49746385909907 313.83328783671107 328.49121008584314 352.99995558998853 329.6662101184415C392.1666233432659 330.84121015103983 407.83329044457685 472.19371407261804 446.9999581978543 469.25621399112225C486.1666259511318 466.31871390962647 501.83329305244274 323.4974599473003 540.9999608057202 315.5662097272616C580.1666285589976 307.6349595072229 595.8332956603085 427.367462828992 634.999963413586 431.1862129349366C674.1666311668635 435.00496304088114 689.8332982681744 322.7337099261114 728.9999660214519 333.8962102357954C768.1666337747295 345.0587105454795 783.8333008760403 487.70371450291594 822.9999686293178 484.7662144214201C862.1666363825952 481.8287143399243 897.4166373605449 354.1649607981165 916.9999712371834 319.7962098446156 " transform="rotate(141, 400, 400)"></path><path d="M-106.00002700805653 442.94270735166174C-86.83335980964418 418.7927066816622 -52.3333588525019 322.9977040239972 -14.000024455677192 327.0227041356638C24.33330994114752 331.0477042473304 39.6666436998774 462.2627078876614 77.99997809670211 462.2627078876614C116.33331249352682 462.2627078876614 131.66664625225678 327.0227041356638 169.99998064908146 327.0227041356638C208.3333150459062 327.0227041356638 223.6666488046361 461.4002078637328 261.99998320146085 462.2627078876614C300.3333175982856 463.12520791158994 315.6666513570154 330.01270421861614 353.99998575384006 331.16270425052085C392.3333201506648 332.3127042824256 407.66665390939477 470.657708120566 445.9999883062195 467.78270804080415C484.33332270304425 464.9077079610423 499.6666564617741 325.12520408302095 537.9999908585988 317.362703867664C576.3333252554235 309.60020365230696 591.6666590141533 426.7852069034001 629.9999934109782 430.52270700709056C668.3333278078029 434.260207110781 683.6666615665329 324.3777040622829 721.9999959633576 335.3027043653779C760.3333303601823 346.22770466847294 775.6666641189122 485.8377085417086 813.9999985157368 482.96270846194676C852.3333329125614 480.0877083821849 886.8333338697037 355.1402049157347 906.000001068116 321.50270398252104 " transform="rotate(138, 400, 400)"></path><path d="M-95.00002708435048 442.0091480105633C-76.25002656416449 418.3841473551289 -42.50002562782966 324.67164475523924 -5.000024587457631 328.6091448644783C32.499976452914325 332.5466449737174 47.49997686906315 460.9091485349108 84.99997790943516 460.9091485349108C122.4999789498072 460.9091485349108 137.49997936595605 328.6091448644783 174.999980406328 328.6091448644783C212.49998144670002 328.6091448644783 227.49998186284887 460.0653985115024 264.9999829032209 460.9091485349108C302.4999839435929 461.75289855831915 317.49998435974163 331.53414494562736 354.9999854001137 332.6591449768385C392.4999864404856 333.7841450080497 407.49998685663445 469.1216487627522 444.99998789700646 466.3091486847244C482.4999889373785 463.49664860669645 497.4999893535273 326.7528948129799 534.9999903938993 319.1591446023046C572.4999914342714 311.56539439162924 587.49999185042 426.2028975720465 624.9999928907921 429.85914767348277C662.4999939311641 433.51539777491905 677.499994347313 326.02164479269265 714.9999953876851 336.70914508919867C752.4999964280571 347.3966453857047 767.499996844206 483.9716491747396 804.9999978845777 481.15914909671164C842.4999989249498 478.3466490186838 876.2499998612846 356.11539562759117 895.0000003814707 323.2091447146648 " transform="rotate(135, 400, 400)"></path><path d="M-84.00002716064444 441.07562681643753C-65.66669331868479 417.9756261755683 -32.6666924031574 326.345623633454 3.999975280761902 330.19562374026555C40.66664296468119 334.0456238470771 55.333310038248925 459.5556273291328 91.99997772216821 459.5556273291328C128.66664540608747 459.5556273291328 143.3333124796552 330.19562374026555 179.99998016357455 330.19562374026555C216.66664784749383 330.19562374026555 231.33331492106157 458.7306273062446 267.9999826049809 459.5556273291328C304.66665028890014 460.380627352021 319.3333173624679 333.05562381961124 355.99998504638717 334.1556238501288C392.6666527303064 335.2556238806464 407.33331980387425 467.5856275519111 443.99998748779353 464.83562747561723C480.6666551717128 462.08562739932324 495.33332224528056 328.38062368991154 531.9999899291998 320.95562348391786C568.666657613119 313.5306232779242 583.3333246866868 425.6206263876655 619.9999923706062 429.19562648684763C656.6666600545256 432.7706265860298 671.3333271280932 327.6656236700751 707.9999948120125 338.1156239599921C744.6666624959319 348.5656242499091 759.3333295694996 482.1056279547432 795.9999972534189 479.35562787844924C832.6666649373379 476.60562780215525 865.6666658528653 357.0906244864203 883.999999694825 324.91562359378116 " transform="rotate(132, 400, 400)"></path><path d="M-72.99999671936025 440.14206747533905C-55.08332955562696 417.5670668490351 -22.83332866090703 328.01956436469607 13.00000566655956 331.78206446908007C48.83333999402612 335.5445645734641 63.1666737250128 458.2020679763822 99.00000805247936 458.2020679763822C134.83334237994598 458.2020679763822 149.1666761109326 331.78206446908007 185.00001043839922 331.78206446908007C220.83334476586577 331.78206446908007 235.16667849685246 457.3958179540142 271.000012824319 458.2020679763822C306.8333471517856 459.00831799875016 321.16668088277225 334.57706454662247 357.0000152102388 335.6520645764465C392.8333495377053 336.72706460627046 407.16668326869205 466.04956819409733 443.0000175961586 463.3620681195374C478.8333519236252 460.67456804497743 493.1666856546119 330.0083144198705 529.0000199820785 322.7520642185585C564.8333543095449 315.4958140172465 579.1666880405315 425.0383170563119 615.0000223679982 428.53206715323984C650.8333566954649 432.02581725016785 665.1666904264514 329.3095644004849 701.0000247539182 339.52206468381286C736.8333590813849 349.73456496714084 751.1666928123714 480.23956858777416 787.0000271398379 477.5520685132142C822.8333614673045 474.86456843865415 855.0833623620243 358.0658151982768 873.0000295257577 326.6220643259249 " transform="rotate(129, 400, 400)"></path><path d="M-61.9999967956542 439.2085386518187C-44.49999631014727 417.15853804008 -12.999995436234755 329.6935356135163 22.00000553477912 333.3685357154727C57.00000650579298 337.0435358174292 71.00000689419855 456.8485391412097 106.00000786521241 456.8485391412097C141.00000883622624 456.8485391412097 155.00000922463187 333.3685357154727 190.0000101956457 333.3685357154727C225.0000111666596 333.3685357154727 239.00001155506516 456.0610391193619 274.00001252607905 456.8485391412097C309.0000134970929 457.6360391630575 323.0000138854984 336.0985357912118 358.00001485651234 337.14853582034226C393.0000158275262 338.19853584947265 407.00001621593174 464.5135393538617 442.00001718694557 461.8885392810357C477.0000181579595 459.26353920820964 491.00001854636514 331.63603566740755 526.000019517379 324.5485354707772C561.0000204883927 317.4610352741469 575.0000208767983 424.45603824253635 610.0000218478123 427.8685383372102C645.0000228188261 431.2810384318841 659.0000232072317 330.9535356484728 694.0000241782457 340.92853592521175C729.0000251492595 350.9035362019507 743.000025537665 478.3735397383832 778.0000265086788 475.7485396655572C813.0000274796927 473.12353959273116 844.5000283536051 359.04103642771145 862.0000288391121 328.32853557564675 " transform="rotate(126, 400, 400)"></path><path d="M-50.999996871948156 438.2750174576929C-33.916663064667574 416.7500168605194 -3.1666622115625103 331.367514491731 31.000005402998653 334.95501459125995C65.16667301755979 338.54251469078883 78.83334006338427 455.49501793543175 113.00000767794543 455.49501793543175C147.16667529250662 455.49501793543175 160.83334233833114 334.95501459125995 195.00000995289224 334.95501459125995C229.1666775674534 334.95501459125995 242.83334461327792 454.72626791410414 277.0000122278391 455.49501793543175C311.16667984240024 456.26376795675935 324.83334688822464 337.6200146651957 359.0000145027858 338.64501469363256C393.166682117347 339.67001472206937 406.83334916317153 462.9775181430206 441.00001677773275 460.41501807192856C475.16668439229375 457.8525180008364 488.83335143811826 333.26376454433915 523.0000190526795 326.34501435239054C557.1666866672406 319.42626416044186 570.833353713065 423.87376705815535 605.0000213276262 427.2050171505751C639.1666889421874 430.5362672429948 652.8333559880119 332.5975145258552 687.000023602573 342.33501479600517C721.1666912171344 352.07251506615506 734.8333582629588 476.50751851838686 769.0000258775199 473.94501844729473C803.166693492081 471.3825183762027 833.9166943451861 360.01626528654054 851.0000281524666 330.03501445476314 " transform="rotate(123, 400, 400)"></path><path d="M-39.9999969482421 437.3414886341726C-23.333329819187867 416.3414880515642 6.666671013109749 333.0414857405512 40.000005271218185 336.5414858376526C73.33333952932665 340.041485934754 86.66667323257002 454.14148910025926 120.00000749067848 454.14148910025926C153.3333417487869 454.14148910025926 166.66667545203035 336.5414858376526 200.00000971013878 336.5414858376526C233.33334396824722 336.5414858376526 246.66667767149067 453.3914890794518 280.0000119295991 454.14148910025926C313.33334618770755 454.8914891210667 326.6666798909509 339.14148590978505 360.0000141490593 340.14148593752833C393.33334840716776 341.14148596527156 406.6666821104112 461.441489302785 440.0000163685197 458.94148923342686C473.3333506266281 456.4414891640687 486.6666843298715 334.8914857918762 520.00001858798 328.1414856046093C553.3333528460884 321.3914854173423 566.6666865493316 423.2914882443798 600.0000208074403 426.5414883345454C633.3333550655487 429.791488424711 646.666688768792 334.2414857738431 680.0000230269006 343.74148603740406C713.3333572850091 353.24148630096494 726.6666909882525 474.6414896689959 760.0000252463608 472.1414895996378C793.3333595044692 469.64148953027967 823.3333603367668 360.99148651597517 840.0000274658211 331.741485704485 " transform="rotate(120, 400, 400)"></path><path d="M-28.999997024536043 436.4079521812577C-12.749996573708174 415.9329516132146 16.500004237782008 334.7154493599769 49.00000513943775 338.1279494546508C81.50000604109349 341.5404495493246 94.5000064017558 452.78795263569225 127.00000730341151 452.78795263569225C159.50000820506722 452.78795263569225 172.50000856572956 338.1279494546508 205.00000946738533 338.1279494546508C237.50001036904104 338.1279494546508 250.50001072970338 452.05670261540496 283.00001163135914 452.78795263569225C315.50001253301485 453.5192026559795 328.50001289367714 340.6629495249799 361.00001379533285 341.63794955202957C393.50001469698856 342.6129495790792 406.5000150576509 459.9054528331548 439.00001595930667 457.46795276553064C471.50001686096243 455.03045269790647 484.5000172216247 336.5191994100188 517.0000181232805 329.9379492274335C549.5000190249361 323.3566990448482 562.5000193855984 422.7092018012098 595.0000202872542 425.8779518891213C627.50002118891 429.04670197703274 640.5000215495722 335.8854493924365 673.0000224512281 345.14794964940836C705.5000233528839 354.4104499063803 718.5000237135462 472.7754531902105 751.0000246152017 470.3379531225863C783.5000255168574 467.90045305496216 812.7500263283475 361.9667001160152 829.0000267791755 333.4479493248123 " transform="rotate(117, 400, 400)"></path><path d="M-17.999997100829987 435.47438521076475C-2.1666633282284806 415.5243846572868 26.333337462454267 336.3893824618244 58.00000500765728 339.71438255407077C89.66667255286029 343.0393826463171 102.33333957094152 451.43438565354705 134.00000711614456 451.43438565354705C165.66667466134757 451.43438565354705 178.33334167942883 339.71438255407077 210.00000922463187 339.71438255407077C241.66667676983485 339.71438255407077 254.33334378791608 450.72188563378 286.0000113331191 451.43438565354705C317.66667887832216 452.14688567331416 330.33334589640333 342.1843826225966 362.00001344160637 343.1343826489527C393.66668098680935 344.0843826753088 406.33334800489064 458.3693858459465 438.0000155500936 455.9943857800563C469.66668309529666 453.61938571416607 482.33335011337795 338.1468825105832 514.000017658581 331.7343823326796C545.6666852037839 325.321882154776 558.3333522218651 422.1268848404616 590.0000197670682 425.21438492611895C621.6666873122713 428.3018850117762 634.3333543303524 337.52938249345175 666.0000218755555 346.5543827438346C697.6666894207586 355.5793829942175 710.3333564388398 470.9093861938469 742.0000239840429 468.53438612795674C773.6666915292458 466.15938606206646 802.1666923199285 362.94188319847717 818.00002609253 335.15438242756153 " transform="rotate(114, 400, 400)"></path><path d="M-6.999997177123944 434.5408563872444C8.416669917251212 415.1158558483317 36.166670687126526 338.06335371064466 67.00000487587684 341.3008538004634C97.83333906462715 344.5383538902822 110.16667274012727 450.08085681837457 141.00000692887758 450.08085681837457C171.8333411176279 450.08085681837457 184.16667479312804 341.3008538004634 215.0000089818784 341.3008538004634C245.83334317062872 341.3008538004634 258.16667684612884 449.38710679912765 289.00001103487915 450.08085681837457C319.83334522362946 450.77460683762143 332.1666788991296 343.70585386718597 363.0000130878799 344.63085389284845C393.8333472766302 345.555853918511 406.1666809521303 456.8333570057109 437.0000151408807 454.5208569415546C467.833349329631 452.20835687739833 480.16668300513106 339.7746037581203 511.0000171938815 333.53085358489835C541.8333513826317 327.2871034116764 554.1666850581319 421.5446060266861 585.0000192468822 424.5508561100893C615.8333534356325 427.5571061934925 628.1666871111327 339.17335374143966 659.0000212998831 347.9608539852335C689.8333554886334 356.7483542290273 702.1666891641336 469.043357344456 733.0000233528838 466.73085728029974C763.833357541634 464.4183572161435 791.5833583115093 363.9171044279118 807.0000254058845 336.8608536772834 " transform="rotate(111, 400, 400)"></path><path d="M4.000002746582112 433.6073275637241C19.00000316273092 414.7073270393766 46.00000391179877 339.73732495946484 76.00000474409637 342.8873250468561C106.00000557639396 346.03732513424734 118.00000590931302 448.7273279832021 148.00000674161063 448.7273279832021C178.00000757390825 448.7273279832021 190.0000079068273 342.8873250468561 220.00000873912495 342.8873250468561C250.00000957142254 342.8873250468561 262.0000099043416 448.05232796447535 292.0000107366392 448.7273279832021C322.00001156893677 449.40232800192877 334.00001190185577 345.2273251117753 364.0000127341534 346.1273251367442C394.000013566451 347.0273251617132 406.00001389937006 455.2973281654753 436.00001473166765 453.0473281030529C466.00001556396523 450.79732804063065 478.0000158968844 341.40232500565736 508.000016729182 335.3273248371171C538.0000175614796 329.2523246685768 550.0000178943985 420.9623272129106 580.0000187266962 423.8873272940597C610.0000195589939 426.81232737520867 622.0000198919129 340.81732498942756 652.0000207242106 349.3673252266324C682.0000215565082 357.9173254638372 694.0000218894272 467.1773284950651 724.0000227217247 464.92732843264275C754.0000235540223 462.6773283702205 781.0000243030902 364.8923256573464 796.0000247192389 338.56732492700525 " transform="rotate(108, 400, 400)"></path><path d="M15.000002670288168 432.6737872961119C29.583336408210613 414.29878678632963 55.83333713647103 341.4112847641933 85.00000461231593 344.47378484915697C114.16667208816082 347.53628493412066 125.83333907849877 447.37378770393775 155.00000655434366 447.37378770393775C184.16667403018857 447.37378770393775 195.83334102052655 344.47378484915697 225.00000849637144 344.47378484915697C254.16667597221635 344.47378484915697 265.8333429625543 446.71753768573126 295.0000104383992 447.37378770393775C324.16667791424413 448.0300377221443 335.833344904582 346.74878491227287 365.00001238042694 347.6237849365482C394.1666798562718 348.49878496082357 405.83334684660974 453.76128788114784 435.0000143224547 451.5737878204594C464.1666817982996 449.3862877597711 475.8333487886375 343.03003480910263 505.0000162644824 337.1237846452441C534.1666837403274 331.2175344813855 545.8333507306652 420.3800369550433 575.0000182065102 423.2237870339382C604.1666856823551 426.06753711283307 615.8333526726931 342.46128479332367 645.0000201485379 350.77378502393947C674.1666876243829 359.08628525455526 685.8333546147209 465.3112882015824 715.0000220905657 463.123788140894C744.1666895664105 460.93628808020566 770.416690294671 365.8675354426892 785.0000240325934 340.2737847326353 " transform="rotate(105, 400, 400)"></path><path d="M26.00000259399421 431.740235584408C40.166669653690306 413.8902350891909 65.66667036114329 343.08523312482987 94.00000448053547 346.060233207366C122.33333859992763 349.03523328990224 133.66667224768452 446.0202359805817 162.0000063670767 446.0202359805817C190.33334048646887 446.0202359805817 201.6666741342258 346.060233207366 230.00000825361798 346.060233207366C258.33334237301017 346.060233207366 269.66667602076706 445.38273596289537 298.00001014015925 446.0202359805817C326.3333442595514 446.657735998268 337.66667790730827 348.2702332686786 366.00001202670046 349.1202332922604C394.3333461460926 349.97023331584217 405.66667979384954 452.2252361527286 434.00001391324173 450.10023609377413C462.33334803263386 447.9752360348198 473.66668168039075 344.65773316845616 502.000015799783 338.92023300927923C530.3333499191751 333.1827328501023 541.666683566932 419.79773525308417 570.0000176863242 422.56023532972495C598.3333518057165 425.3227354063657 609.6666854534733 344.105233153128 638.0000195728655 352.18023337715476C666.3333536922578 360.25523360118154 677.6666873400146 463.44523646400785 706.0000214594068 461.3202364050535C734.3333555787988 459.195236346099 759.8333562862518 366.8427337839402 774.000023345948 341.98023309417357 " transform="rotate(102, 400, 400)"></path><path d="M37.00000251770027 430.8067143902822C50.75000289917 413.48171390963034 75.50000358581553 344.7592120030446 103.000004348755 347.64671208315326C130.50000511169446 350.5342121632619 141.5000054168703 444.6667147748037 169.00000617980973 444.6667147748037C196.5000069427492 444.6667147748037 207.50000724792503 347.64671208315326 235.00000801086446 347.64671208315326C262.500008773804 347.64671208315326 273.5000090789798 444.0479647576376 301.0000098419193 444.6667147748037C328.50001060485874 445.28546479196984 339.5000109100345 349.7917121426625 367.000011672974 350.6167121655507C394.50001243591345 351.4417121884389 405.5000127410893 450.6892149418875 433.0000135040287 448.626714884667C460.5000142669682 446.56421482744656 471.50001457214404 346.28546204538776 499.0000153350834 340.7167118908925C526.5000160980228 335.14796173639724 537.5000164031987 419.2154640687032 565.0000171661382 421.89671414308987C592.5000179290777 424.57796421747645 603.5000182342535 345.7492120305104 631.000018997193 353.5867122479482C658.5000197601325 361.42421246538595 669.5000200653083 461.5792152440115 697.0000208282477 459.51671518679103C724.5000215911871 457.45421512957057 749.2500222778326 367.8179626427694 763.0000226593024 343.68671197328996 " transform="rotate(99, 400, 400)"></path><path d="M48.00000244140632 429.8731855667619C61.33333614464971 413.07318510067523 85.3333368104878 346.4331832518648 112.00000421697456 349.2331833295459C138.6666716234613 352.03318340722706 149.33333858605602 443.31318593963124 176.00000599254278 443.31318593963124C202.66667339902952 443.31318593963124 213.33334036162427 349.2331833295459 240.000007768111 349.2331833295459C266.6666751745978 349.2331833295459 277.3333421371925 442.71318592298525 304.00000954367925 443.31318593963124C330.66667695016605 443.9131859562772 341.3333439127607 351.3131833872519 368.00001131924745 352.1131834094465C394.66667872573424 352.9131834316411 405.33334568832896 449.15318610165184 432.00001309481576 447.15318604616533C458.66668050130244 445.1531859906788 469.3333474638972 347.9131832929248 496.0000148703839 342.51318314311123C522.6666822768707 337.1131829932977 533.3333492394653 418.6331852549277 560.0000166459522 421.2331853270602C586.666684052439 423.83318539919264 597.3333510150337 347.3931832784983 624.0000184215204 354.9931834893471C650.6666858280073 362.59318370019577 661.3333527906019 459.7131863946206 688.0000201970887 457.71318633913404C714.6666876035754 455.7131862836476 738.6666882694134 368.79318387220394 752.0000219726569 345.3931832230118 " transform="rotate(96, 400, 400)"></path><path d="M59.00000236511238 428.93963766975526C71.9166693901294 412.6646372182338 95.16667003516005 348.10713542719867 121.00000408519412 350.81963550245223C146.83333813522813 353.53213557770584 157.1666717552418 441.9596380309724 183.0000058052758 441.9596380309724C208.83333985530987 441.9596380309724 219.1666734753235 350.81963550245223 245.00000752535757 350.81963550245223C270.8333415753916 350.81963550245223 281.1666751954052 441.3783880148466 307.0000092454393 441.9596380309724C332.83334329547336 442.5408880470982 343.16667691548696 352.83463555835493 369.00001096552097 353.60963557985593C394.83334501555504 354.38463560135693 405.1666786355687 447.61713818792987 431.0000126856027 445.6796381341773C456.8333467356368 443.74213808042475 467.16668035565044 349.54088546697557 493.0000144056845 344.30963532184364C518.8333484557185 339.0783851767118 529.1666820757321 418.0508873676659 555.0000161257661 420.5696374375442C580.8333501758003 423.0883875074225 591.1666837958139 349.0371354529999 617.000017845848 356.39963565725964C642.8333518958821 363.7621358615193 653.1666855158957 457.84713847174334 679.0000195659296 455.9096384179908C704.8333536159636 453.9721383642382 728.0833542609943 369.76838602815224 741.0000212860114 347.09963539924735 " transform="rotate(93, 400, 400)"></path><path d="M70.00000228881842 428.00611266093216C82.50000263560909 412.25611222397595 105.00000325983231 349.7811104907162 130.00000395341365 352.4061105635422C155.00000464699497 355.0311106363682 165.00000492442751 440.60611301049715 190.00000561800886 440.60611301049715C215.0000063115902 440.60611301049715 225.00000658902275 352.4061105635422 250.00000728260406 352.4061105635422C275.00000797618543 352.4061105635422 285.000008253618 440.0436129948916 310.0000089471993 440.60611301049715C335.00000964078066 441.1686130261028 345.00000991821315 354.35611061764155 370.0000106117945 355.10611063844897C395.00001130537584 355.8561106592564 405.0000115828084 446.0811131623915 430.0000122763897 444.2061131103729C455.000012969971 442.3311130583543 465.0000132474036 351.1686105292099 490.00001394098496 346.1061103887597C515.0000146345662 341.04361024830945 525.0000149119987 417.4686123685876 550.0000156055801 419.9061124362118C575.0000162991615 422.34361250383597 585.000016576594 350.6811105156851 610.0000172701755 357.80611071335574C635.0000179637568 364.93111091102645 645.0000182411893 455.98111343704966 670.0000189347705 454.1061133850311C695.0000196283519 452.2311133330125 717.5000202525752 370.7436110722841 730.0000205993658 348.80611046366647 " transform="rotate(90, 400, 400)"></path><path d="M81.00000221252448 427.0725533198337C93.08333588108879 411.84755289744265 114.83333648450457 351.45505122195823 139.0000038216332 353.9925512923567C163.1666711587618 356.5300513627552 172.83333809361326 439.25255365774655 197.0000054307419 439.25255365774655C221.16667276787052 439.25255365774655 230.833339702722 353.9925512923567 255.00000703985063 353.9925512923567C279.16667437697924 353.9925512923567 288.83334131183074 438.70880364266117 313.00000864895935 439.25255365774655C337.16667598608797 439.7963036728319 346.8333429209394 355.8775513446528 371.000010258068 356.6025513647666C395.16667759519663 357.3275513848805 404.8333445300481 444.5450538045777 429.00001186717674 442.73255375429306C453.16667920430535 440.9200537040084 462.8333461391569 352.79630125916884 487.00001347628546 347.9025511234003C511.1666808134141 343.0088009876318 520.8333477482655 416.886303037234 545.0000150853941 419.242553102604C569.1666824225229 421.5988031679741 578.8333493573742 352.32505124609486 603.000016694503 359.2125514371765C627.1666840316316 366.1000516282582 636.8333509664831 454.11505407008065 661.0000183036116 452.302554019796C685.1666856407402 450.49005396951134 706.9166862441559 371.71880178414057 719.0000199127203 350.5125511958102 " transform="rotate(87, 400, 400)"></path><path d="M92.00000213623053 426.1390321257079C103.6666691265685 411.4390317178821 124.66666970917683 353.12903010017294 148.00000368985275 355.57903016814396C171.33333767052864 358.0290302361149 180.666671262799 437.8990324519686 204.00000524347493 437.8990324519686C227.33333922415085 437.8990324519686 236.66667281642125 355.57903016814396 260.00000679709717 355.57903016814396C283.33334077777306 355.57903016814396 292.66667437004344 437.37403243740334 316.0000083507193 437.8990324519686C339.3333423313953 438.4240324665338 348.66667592366565 357.39903021863665 372.00000990434154 358.0990302380569C395.3333438850174 358.7990302574772 404.6666774772878 443.0090325937366 428.00001145796375 441.2590325451859C451.3333454386397 439.5090324966352 460.6666790309101 354.4240301361005 484.000013011586 349.6990300050136C507.33334699226185 344.9740298739267 516.6666805845323 416.304031852853 540.0000145652082 418.5790319159689C563.3333485458841 420.8540319790848 572.6666821381544 353.9690301234773 596.0000161188304 360.6190303079699C619.3333500995063 367.26903049246255 628.6666836917767 452.2490328500843 652.0000176724526 450.4990328015336C675.3333516531285 448.7490327529829 696.3333522357368 372.6940306429697 708.0000192260748 352.2190300749266 " transform="rotate(84, 400, 400)"></path><path d="M103.00000205993659 425.2054918580958C114.25000237204819 411.03049146483517 134.5000029338491 354.8029899049014 157.00000355807228 357.1654899704448C179.50000418229547 359.52799003598824 188.5000044319848 436.54549217270426 211.00000505620795 436.54549217270426C233.50000568043117 436.54549217270426 242.50000593012047 357.1654899704448 265.0000065543437 357.1654899704448C287.5000071785669 357.1654899704448 296.5000074282562 436.03924215865925 319.0000080524794 436.54549217270426C341.5000086767026 437.0517421867493 350.50000892639184 358.9204900191342 373.00000955061506 359.59549003786094C395.5000101748383 360.2704900565876 404.5000104245276 441.47299230940916 427.00001104875076 439.7854922625924C449.500011672974 438.09799221577566 458.5000119226633 356.05173993954577 481.00001254688647 351.4954898131406C503.50001317110963 346.9392396867354 512.5000134207988 415.7217415949857 535.0000140450221 417.91549165584746C557.5000146692455 420.1092417167092 566.5000149189347 355.6129899273734 589.0000155431579 362.025490105277C611.5000161673811 368.4379902831806 620.5000164170704 450.38299255660155 643.0000170412935 448.6954925097848C665.5000176655168 447.0079924629681 685.7500182273176 373.66924042831255 697.0000185394292 353.92548988055665 " transform="rotate(81, 400, 400)"></path><path d="M114.00000198364263 424.2719592198782C124.83333561752788 410.6219588411828 144.33333615852135 356.4769573390243 166.0000034262918 358.7519574021402C187.6666706940623 361.0269574652561 196.3333376011705 435.1919595228345 218.000004868941 435.1919595228345C239.6666721367115 435.1919595228345 248.3333390438197 358.7519574021402 270.0000063115902 358.7519574021402C291.6666735793607 358.7519574021402 300.33334048646896 434.7044595093097 322.0000077542394 435.1919595228345C343.6666750220099 435.67945953635933 352.3333419291181 360.4419574490263 374.0000091968886 361.09195746705944C395.6666764646591 361.74195748509254 404.3333433717673 439.93695965447625 426.0000106395378 438.31195960939345C447.66667790730827 436.6869595643107 456.3333448144165 357.67945737238557 478.00001208218697 353.29195725066205C499.66667934995746 348.90445712893853 508.33334625706556 415.1394589665129 530.0000135248362 417.2519590251205C551.6666807926067 419.3644590837282 560.3333476997147 357.25695736066405 582.0000149674854 363.43195753197864C603.6666822352558 369.60695770329323 612.3333491423641 448.51695989251334 634.0000164101345 446.8919598474306C655.666683677905 445.2669598023478 675.1666842188985 374.64445784304985 686.0000178527837 355.63195731558125 " transform="rotate(78, 400, 400)"></path><path d="M125.00000190734869 423.33842276696333C135.41666886300757 410.2134224028331 154.1666693831936 358.15092095845 175.00000329451137 360.33842101913837C195.83333720582914 362.52592107982673 204.16667077035626 433.8384230582675 225.00000468167406 433.8384230582675C245.83333859299182 433.8384230582675 254.16667215751897 360.33842101913837 275.00000606883674 360.33842101913837C295.8333399801545 360.33842101913837 304.16667354468166 433.36967304526286 325.0000074559994 433.8384230582675C345.8333413673172 434.30717307127213 354.16667493184434 361.96342106422117 375.00000884316205 362.5884210815607C395.8333427544799 363.2134210989002 404.166676319007 438.4009231848461 425.0000102303248 436.83842314149723C445.83334414164256 435.2759230981484 454.1666777061697 359.3071709905281 475.0000116174875 355.08842087348626C495.83334552880524 350.8696707564444 504.1666790933323 414.5571725233429 525.0000130046501 416.5884225796964C545.8333469159679 418.61967263604987 554.166680480495 358.9009209792574 575.0000143918128 364.838421143983C595.8333483031306 370.7759213087086 604.1666818676579 446.6509234137279 625.0000157789755 445.0884233703791C645.8333496902933 443.5259233270302 664.5833502104794 375.61967144308994 675.0000171661382 357.3384209359086 " transform="rotate(75, 400, 400)"></path><path d="M136.00000183105476 422.40487486995664C146.00000210848728 409.80487452039165 164.00000260786584 359.82487313378385 184.00000316273093 361.9248731920447C204.00000371759597 364.0248732503055 212.000003939542 432.4848751496087 232.00000449440708 432.4848751496087C252.00000504927215 432.4848751496087 260.0000052712182 361.9248731920447 280.0000058260833 361.9248731920447C300.0000063809483 361.9248731920447 308.00000660289436 432.03487513712423 328.00000715775946 432.4848751496087C348.00000771262455 432.93487516209314 356.00000793457053 363.4848732353242 376.0000084894356 364.0848732519701C396.00000904430067 364.68487326861606 404.0000092662467 436.8648752711241 424.0000098211118 435.36487522950927C444.0000103759769 433.86487518789437 452.0000105979229 360.93487316457885 472.000011152788 356.8848730522187C492.000011707653 352.83487293985854 500.00001192959905 413.97487463608104 520.0000124844642 415.9248746901804C540.0000130393292 417.87487474427974 548.0000132612753 360.544873153759 568.0000138161404 366.24487331189556C588.0000143710055 371.9448734700321 596.0000145929514 444.7848754908507 616.0000151478165 443.2848754492358C636.0000157026815 441.7848754076209 654.00001620206 376.59487359903824 664.0000164794926 359.0448731121441 " transform="rotate(72, 400, 400)"></path><path d="M146.9999864959717 421.47135367583087C156.5833200951779 409.39635334083107 173.83332057374906 361.49885201199857 192.9999877721614 363.51135206783187C212.16665497057375 365.52385212366516 219.8333218499387 431.13135394383073 238.99998904835104 431.13135394383073C258.1666562467634 431.13135394383073 265.8333231261284 363.51135206783187 284.9999903245407 363.51135206783187C304.1666575229531 363.51135206783187 311.83332440231806 430.7001039318664 330.9999916007304 431.13135394383073C350.1666587991428 431.562603955795 357.83332567850766 365.00635210930807 376.99999287692003 365.5813521252604C396.1666600753324 366.1563521412128 403.8333269546974 435.328854060283 422.99999415310975 433.8913540204021C442.1666613515221 432.45385398052116 449.83332823088705 362.5626020415105 468.9999954292994 358.681351933832C488.16666262771173 354.8001018261535 495.83332950707666 413.39260345170004 514.9999967054891 415.26135350354525C534.1666639039015 417.13010355539046 541.8333307832664 362.18885203114144 560.9999979816788 367.651352182689C580.1666651800912 373.11385233423647 587.8333320594561 442.9188542708543 606.9999992578685 441.48135423097335C626.1666664562807 440.04385419109246 643.4166669348518 377.57010245786734 653.000000534058 360.7513519912605 " transform="rotate(69, 400, 400)"></path><path d="M157.99998641967778 420.53781340821877C167.1666533406576 408.98781308778416 183.6666537984213 363.172811816727 201.99998764038094 365.0978118701328C220.33332148234058 367.02281192353854 227.66665501912445 429.7778136645664 245.9999888610841 429.7778136645664C264.33332270304373 429.7778136645664 271.6666562398276 365.0978118701328 289.99999008178725 365.0978118701328C308.3333239237469 365.0978118701328 315.6666574605308 429.3653136531223 333.99999130249046 429.7778136645664C352.3333251444501 430.19031367601053 359.6666586812339 366.5278119098056 377.99999252319355 367.0778119250644C396.3333263651532 367.62781194032317 403.6666599019371 433.79281377595555 421.99999374389677 432.4178137378086C440.3333275858564 431.0428136996616 447.6666611226403 364.1903118449558 465.9999949645999 360.47781174195893C484.3333288065595 356.7653116389621 491.6666623433434 412.81031319383277 509.9999961853031 414.59781324342384C528.3333300272627 416.38531329301486 535.6666635640465 363.83281183503755 553.9999974060063 369.057811979996C572.3333312479659 374.28281212495455 579.6666647847499 441.0528139773716 597.9999986267094 439.6778139392246C616.3333324686689 438.3028139010776 632.8333329264326 378.54531224321016 641.9999998474125 362.45781179689055 " transform="rotate(66, 400, 400)"></path><path d="M168.99998634338385 419.6042769553039C177.7499865861373 408.5792766494345 193.49998702309355 364.84677543615265 210.9999875086005 366.6842754871309C228.4999879941074 368.5217755381091 235.49998818831023 428.4242771999994 252.99998867381714 428.4242771999994C270.49998915932406 428.4242771999994 277.49998935352687 366.6842754871309 294.9999898390338 366.6842754871309C312.4999903245407 366.6842754871309 319.4999905187435 428.0305271890755 336.99999100425043 428.4242771999994C354.49999148975735 428.8180272109233 361.49999168396016 368.04927552500044 378.9999921694671 368.57427553956563C396.49999265497405 369.0992755541308 403.4999928491768 432.2567773063254 420.9999933346837 430.9442772699124C438.4999938201907 429.63177723349935 445.4999940143935 365.8180254630983 462.9999944999004 362.27427536478314C480.4999949854073 358.730525266468 487.4999951796101 412.2280267506627 504.99999566511707 413.93427679799964C522.4999961506239 415.6405268453366 529.4999963448267 365.4767754536309 546.9999968303338 370.4642755920004C564.4999973158407 375.4517757303699 571.4999975100434 439.18677749858614 588.9999979955503 437.87427746217315C606.4999984810572 436.5617774257601 622.2499989180135 379.52052584325025 630.999999160767 364.1642754172179 " transform="rotate(63, 400, 400)"></path><path d="M179.9999862670899 418.67074813178357C188.33331983161702 408.1707478404794 203.3333202477658 366.5207466849729 219.99998737682003 368.2707467335236C236.66665450587425 370.02074678207424 243.33332135749595 427.0707483648269 259.9999884865502 427.0707483648269C276.6666556156044 427.0707483648269 283.33332246722614 368.2707467335236 299.99998959628033 368.2707467335236C316.6666567253345 368.2707467335236 323.3333235769563 426.6957483544232 339.9999907060105 427.0707483648269C356.6666578350647 427.4457483752306 363.3333246866864 369.5707467695898 379.9999918157406 370.0707467834614C396.6666589447948 370.5707467973331 403.33332579641655 430.72074846608973 419.9999929254708 429.4707484314107C436.666660054525 428.2207483967316 443.3333269061467 367.4457467106354 459.9999940352009 364.0707466170019C476.6666611642551 360.6957465233684 483.33332801587676 411.6457479368872 499.99999514493106 413.27074798197C516.6666622739854 414.8957480270528 523.333329125607 367.1207467016188 539.9999962546613 371.87074683339927C556.6666633837156 376.62074696517976 563.3333302353371 437.32074864919525 579.9999973643913 436.07074861451616C596.6666644934455 434.8207485798371 611.6666649095944 380.4957470726848 619.9999984741214 365.87074666693974 " transform="rotate(60, 400, 400)"></path><path d="M190.99998619079594 417.7372002347769C198.9166530770967 407.76219995803797 213.16665347243807 368.19469886030674 228.99998724503956 369.8571989064299C244.83332101764108 371.5196989525531 251.1666545266817 425.71720045616803 266.99998829928325 425.71720045616803C282.8333220718847 425.71720045616803 289.16665558092535 369.8571989064299 304.99998935352687 369.8571989064299C320.83332312612833 369.8571989064299 327.166656635169 425.3609504462845 342.9999904077705 425.71720045616803C358.833324180372 426.0734504660516 365.1666576894126 371.0921989406928 380.9999914620141 371.5671989538709C396.8333252346156 372.04219896704893 403.1666587436563 429.1847005523678 418.99999251625775 427.9972005194227C434.83332628885927 426.8097004864776 441.1666597978999 369.0734488846861 456.99999357050143 365.86719879573434C472.8333273431029 362.6609487067825 479.1666608521435 411.0634500496254 494.99999462474506 412.60720009245404C510.8333283973466 414.15095013528264 517.1666619063872 368.7646988761204 532.9999956789886 373.2771990013118C548.8333294515903 377.78969912650325 555.1666629606309 435.454700726318 570.9999967332324 434.2672006933729C586.8333305058338 433.07970066042776 601.0833309011753 381.4709492286331 608.9999977874759 367.5771988431753 " transform="rotate(57, 400, 400)"></path><path d="M201.999986114502 416.8036714112566C209.49998632257638 407.3536711490828 222.99998669711033 369.8686701091269 237.99998711325912 371.44367015282256C252.99998752940792 373.0186701965182 258.99998769586745 424.36367162099555 273.99998811201624 424.36367162099555C288.9999885281651 424.36367162099555 294.99998869462456 371.44367015282256 309.9999891107734 371.44367015282256C324.9999895269222 371.44367015282256 330.99998969338174 424.0261716116322 345.99999010953053 424.36367162099555C360.9999905256793 424.70117163035894 366.9999906921388 372.6136701852822 381.99999110828765 373.06367019776667C396.99999152443644 373.5136702102511 402.99999169089597 427.64867171213217 417.99999210704476 426.523671680921C432.99999252319355 425.39867164970985 438.99999268965314 370.7011701322232 453.99999310580193 367.6636700479531C468.9999935219507 364.62616996368297 474.9999936884102 410.48117123584984 489.99999410455905 411.94367127642437C504.9999945207079 413.4061713169989 510.9999946871674 370.4086701241083 525.9999951033162 374.6836702427107C540.9999955194651 378.9586703613131 546.9999956859245 433.5886718769271 561.9999961020733 432.4636718457159C576.9999965182221 431.3386718145048 590.499996892756 382.44617045806774 597.9999971008303 369.2836700928972 " transform="rotate(54, 400, 400)"></path><path d="M212.99998603820805 415.8701158848554C220.08331956805608 406.94511563724683 232.8333199217826 371.5426146550663 246.99998698147868 373.0301146963344C261.16665404117475 374.51761473760246 266.8333208650532 423.0101160829422 280.9999879247493 423.0101160829422C295.16665498444536 423.0101160829422 300.83332180832383 373.0301146963344 314.99998886801995 373.0301146963344C329.166655927716 373.0301146963344 334.83332275159444 422.69136607409905 348.99998981129056 423.0101160829422C363.1666568709866 423.32886609178536 368.83332369486504 374.1351147269907 382.99999075456117 374.5601147387816C397.16665781425723 374.98511475057245 402.8333246381357 426.11261616901567 416.9999916978318 425.05011613953843C431.1666587575279 423.98761611006125 436.8333255814063 372.32886467687945 450.99999264110244 369.46011459729095C465.1666597007985 366.5913645177025 470.8333265246769 409.89886571919345 484.99999358437304 411.28011575751384C499.16666064406917 412.66136579583423 504.8333274679476 372.05261466921536 518.9999945276437 376.09011478122875C533.1666615873398 380.12761489324214 538.8333284112182 431.7226163246553 552.9999954709143 430.6601162951781C567.1666625306103 429.5976162657009 579.9166628843368 383.4213649846215 586.9999964141849 370.9901146397382 " transform="rotate(51, 400, 400)"></path><path d="M223.9999859619141 414.93659278338095C230.6666528135358 406.5365925503376 242.66665314645485 373.2165916259324 255.99998684969822 374.61659166477295C269.3333205529416 376.0165917036135 274.66665403423895 421.6565929698156 287.99998773748234 421.6565929698156C301.3333214407257 421.6565929698156 306.6666549220231 374.61659166477295 319.99998862526644 374.61659166477295C333.33332232850984 374.61659166477295 338.6666558098072 421.35659296149265 351.99998951305054 421.6565929698156C365.33332321629393 421.9565929781386 370.6666566975913 375.65659169362596 383.9999904008347 376.05659170472325C397.3333241040781 376.45659171582054 402.66665758537545 424.5765930508259 415.99999128861884 423.57659302308264C429.3333249918621 422.5765929953394 434.66665847315954 373.9565916464624 447.9999921764029 371.25659157155565C461.3333258796463 368.5565914966488 466.6666593609436 409.3165926274639 479.99999306418704 410.61659266353007C493.33332676743044 411.9165926995963 498.6666602487278 373.69659163924916 511.99999395197113 377.49659174467354C525.3333276552146 381.2965918500979 530.666661136512 429.8565931973103 543.9999948397553 428.856593169567C557.3333285429986 427.8565931418238 569.3333288759177 384.39659193610197 575.9999957275394 372.69659161150594 " transform="rotate(48, 400, 400)"></path><path d="M234.99998588562016 414.00305633046605C241.2499860590155 406.128056111988 252.49998637112708 374.8905552453581 264.99998671791775 376.20305528177107C277.4999870647084 377.5155553181841 282.49998720342467 420.3030565052486 294.99998755021534 420.3030565052486C307.499987897006 420.3030565052486 312.4999880357223 376.20305528177107 324.999988382513 376.20305528177107C337.49998872930365 376.20305528177107 342.49998886801995 420.0218064974458 354.9999892148106 420.3030565052486C367.4999895616013 420.5843065130514 372.49998970031754 377.1780553088208 384.9999900471082 377.5530553192245C397.4999903938989 377.9280553296282 402.49999053261513 423.04055658119574 414.9999908794058 422.1030565551864C427.49999122619647 421.16555652917714 432.4999913649127 375.58430526460495 444.9999917117034 373.05305519437985C457.49999205849406 370.52180512415475 462.4999921972103 408.7343061842938 474.999992544001 409.9530562181059C487.4999928907917 411.171806251918 492.49999302950795 375.34055525784254 504.9999933762987 378.9030553566779C517.4999937230893 382.4655554555132 522.4999938618056 427.99055671852483 534.9999942085963 427.05305669251555C547.4999945553868 426.1155566665062 558.7499948674986 385.37180553614206 564.9999950408939 374.40305523183326 " transform="rotate(45, 400, 400)"></path><path d="M245.9999858093262 413.0695141555053C251.83331930449518 405.71951395159243 262.33331959579937 376.56451314273784 273.9999865861373 377.78951317672335C285.66665357647526 379.0145132107088 290.33332037261044 418.94951431863564 301.9999873629484 418.94951431863564C313.6666543532864 418.94951431863564 318.3333211494216 377.78951317672335 329.9999881397595 377.78951317672335C341.66665513009747 377.78951317672335 346.33332192623266 418.68701431135304 357.9999889165706 418.94951431863564C369.66665590690855 419.2120143259183 374.3333227030438 378.6995132019697 385.99998969338174 379.0495132116798C397.6666566837197 379.39951322138995 402.3333234798548 421.50451438951967 413.9999904701928 420.62951436524435C425.6666574605308 419.75451434096897 430.33332425666595 377.2120131607016 441.99999124700395 374.84951309515816C453.66665823734184 372.48701302961473 458.3333250334771 408.15201401907785 469.999992023815 409.28951405063583C481.66665901415297 410.42701408219375 486.33332581028816 376.98451315439 497.99999280062616 380.30951324663636C509.6666597909641 383.63451333888264 514.3333265870992 426.1245145176935 525.9999935774372 425.24951449341813C537.6666605677751 424.3745144691428 548.1666608590793 386.3470134141362 553.9999943542483 376.1095131301147 " transform="rotate(42, 400, 400)"></path><path d="M256.99998573303225 412.1359796099391C262.41665254997486 405.31097942059137 272.1666528204716 378.2384786695122 282.9999864543569 379.3759787010701C293.8333200882421 380.5134787326281 298.1666535417962 417.59597976141725 308.99998717568144 417.59597976141725C319.83332080956666 417.59597976141725 324.1666542631208 379.3759787010701 334.999987897006 379.3759787010701C345.8333215308913 379.3759787010701 350.1666549844454 417.35222975465484 360.99998861833063 417.59597976141725C371.8333222522159 417.83972976817967 376.16665570577 380.22097872451315 386.99998933965526 380.5459787335297C397.8333229735405 380.8709787425463 402.1666564270946 419.9684798272381 412.9999900609798 419.15597980469676C423.83332369486504 418.3434797821553 428.1666571484192 378.83972868619276 438.9999907823044 376.64597862533105C449.83332441618967 374.45222856446924 454.16665786974374 407.5697294832565 464.999991503629 408.62597951256026C475.8333251375143 409.6822295418641 480.1666585910683 378.628478680332 490.99999222495364 381.71597876598935C501.83332585883886 384.8034788516466 506.166659312393 424.25847994625667 516.9999929462782 423.4459799237153C527.8333265801634 422.6334799011739 537.5833268506601 387.3222289215249 542.9999936676028 377.81597865779065 " transform="rotate(39, 400, 400)"></path><path d="M267.9999856567383 411.20244506437285C272.99998579545456 404.90244488959036 281.9999860451438 379.91244419628646 291.99998632257643 380.9624442254169C301.9999866000089 382.0124442545473 305.99998671098194 416.2424452041989 315.9999869884145 416.2424452041989C325.99998726584704 416.2424452041989 329.99998737682006 380.9624442254169 339.99998765425255 380.9624442254169C349.9999879316851 380.9624442254169 353.9999880426581 416.01744519795665 363.99998832009067 416.2424452041989C373.9999885975232 416.4674452104411 377.9999887084962 381.7424442470566 387.9999889859287 382.04244425537956C397.9999892633613 382.3424442637026 401.9999893743343 418.4324452649566 411.99998965176684 417.68244524414916C421.9999899291994 416.9324452233417 425.9999900401724 380.467444211684 435.9999903176049 378.4424441555039C445.99999059503745 376.4174440993238 449.99999070601046 406.98744494743505 459.999990983443 407.9624449744847C469.99999126087556 408.9374450015344 473.9999913718486 380.27244420627403 483.9999916492811 383.1224442853423C493.9999919267137 385.9724443644106 497.99999203768664 422.3924453748199 507.9999923151192 421.64244535401247C517.9999925925517 420.892445333205 526.999992842241 388.29744442891365 531.9999929809572 379.5224441854666 " transform="rotate(36, 400, 400)"></path><path d="M279.0000008392334 410.2689067041094C283.58333429972333 404.4939065438921 291.8333345286052 381.58640590836353 301.000001449585 382.5489059350664C310.1666683705648 383.51140596176924 313.8333351389567 414.8889068322832 323.0000020599366 414.8889068322832C332.16666898091637 414.8889068322832 335.83333574930833 382.5489059350664 345.00000267028815 382.5489059350664C354.166669591268 382.5489059350664 357.83333635965994 414.68265682656113 367.00000328063976 414.8889068322832C376.1666702016196 415.09515683800527 379.8333369700115 383.26390595490284 389.0000038909913 383.5389059625322C398.16667081197113 383.8139059701616 401.8333375803631 416.8964068879778 411.0000045013429 416.2089068689043C420.16667142232274 415.52140684983084 423.8333381907147 382.0951559224779 433.00000511169446 380.23890587097947C442.1666720326743 378.38265581948104 445.83333880106625 406.40515659691636 455.00000572204607 407.2989066217119C464.1666726430259 408.19265664650743 467.8333394114178 381.9164059175188 477.0000063323977 384.528905989998C486.1666732533775 387.14140606247724 489.83334002176946 420.5264069886858 499.0000069427492 419.8389069696123C508.166673863729 419.15140695053884 516.4166740926108 389.2726561216051 521.0000075531008 381.2289058984453 " transform="rotate(33, 400, 400)"></path><path d="M290.00000076293946 409.3353702511945C294.16666754520304 404.08537010554244 301.66666775327747 383.2603695277892 310.00000131780456 384.1353695520645C318.33333488233166 385.0103695763399 321.6666683081425 413.53537036771615 330.0000018726696 413.53537036771615C338.33333543719675 413.53537036771615 341.6666688630076 384.1353695520645 350.0000024275347 384.1353695520645C358.3333359920618 384.1353695520645 361.66666941787264 413.3478703625143 370.0000029823998 413.53537036771615C378.3333365469269 413.722870372918 381.66666997273774 384.78536957009766 390.00000353726483 385.03536957703346C398.3333371017919 385.28536958396927 401.66667052760283 415.3603704183476 410.0000040921299 414.7353704010081C418.333337656657 414.11037038366857 421.6666710824679 383.7228695406204 430.00000464699497 382.03536949380367C438.3333382115221 380.3478694469869 441.6666716373329 405.82287015374635 450.00000520186006 406.6353701762877C458.3333387663872 407.44787019882915 461.666672192198 383.56036953611215 470.00000575672516 385.93536960200237C478.3333393212523 388.3103696678926 481.6666727470631 418.66037050990036 490.0000063115902 418.03537049256084C498.3333398761173 417.41037047522127 505.8333400841917 390.24786972164515 510.00000686645524 382.93536951877263 " transform="rotate(30, 400, 400)"></path><path d="M301.00000068664554 408.40183379827965C304.75000079068275 403.6768336671928 311.5000009779497 384.93433314721483 319.00000118602406 385.7218331690627C326.5000013940985 386.50933319091047 329.5000014773283 412.18183390314914 337.00000168540265 412.18183390314914C344.5000018934771 412.18183390314914 347.5000019767068 385.7218331690627 355.00000218478124 385.7218331690627C362.50000239285566 385.7218331690627 365.5000024760854 412.01308389846747 373.00000268415977 412.18183390314914C380.5000028922342 412.3505839078308 383.50000297546393 386.3068331852925 391.00000318353835 386.5318331915347C398.5000033916127 386.7568331977769 401.5000034748425 413.8243339487174 409.00000368291694 413.26183393311186C416.5000038909913 412.6993339175063 419.5000039742211 385.35058315876296 427.00000418229547 383.8318331166279C434.5000043903699 382.31308307449285 437.50000447359963 405.2405837105763 445.00000468167406 405.9718337308635C452.5000048897485 406.7030837511508 455.5000049729782 385.2043331547055 463.00000518105264 387.3418332140067C470.50000538912707 389.47933327330793 473.5000054723568 416.7943340311149 481.0000056804312 416.2318340155093C488.5000058885056 415.66933399990376 495.25000607577255 391.22308332168524 499.0000061798097 384.64183313909996 " transform="rotate(27, 400, 400)"></path><path d="M312.00000061035155 407.4682973453648C315.33333403616246 403.2682972288431 321.3333342026219 386.60829676664054 328.0000010542436 387.3082967860608C334.6666679058653 388.00829680548105 337.333334646514 410.8282974385821 344.0000014981357 410.8282974385821C350.6666683497574 410.8282974385821 353.3333350904061 387.3082967860608 360.0000019420278 387.3082967860608C366.6666687936495 387.3082967860608 369.33333553429816 410.67829743442064 376.0000023859198 410.8282974385821C382.6666692375415 410.9782974427436 385.3333359781902 387.8282968004873 392.0000028298119 388.02829680603594C398.6666696814336 388.2282968115846 401.33333642208225 412.28829747908725 408.00000327370395 411.78829746521563C414.6666701253256 411.288297451344 417.3333368659743 386.9782967769055 424.000003717596 385.62829673945214C430.6666705692177 384.2782967019987 433.33333730986635 404.6582972674062 440.00000416148805 405.3082972854394C446.66667101310975 405.9582973034725 449.3333377537584 386.8482967732989 456.0000046053801 388.7482968260111C462.6666714570018 390.6482968787233 465.3333381976505 414.92829755232947 472.0000050492722 414.42829753845785C478.66667190089385 413.9282975245862 484.6666720673534 392.19829692172533 488.0000054931642 386.3482967594273 " transform="rotate(24, 400, 400)"></path><path d="M323.0000005340576 406.53475707775266C325.9166672816421 402.8597569757962 331.1666674272942 388.2822565713689 337.0000009224632 388.89475658836164C342.83333441763216 389.5072566053544 345.1666678156997 409.47475715931785 351.0000013108687 409.47475715931785C356.8333348060377 409.47475715931785 359.16666820410535 388.89475658836164 365.0000016992743 388.89475658836164C370.8333351944433 388.89475658836164 373.16666859251086 409.34350715567655 379.00000208767983 409.47475715931785C384.8333355828488 409.60600716295914 387.1666689809164 389.34975660098485 393.0000024760854 389.5247566058399C398.83333597125437 389.699756610695 401.16666936932194 410.7522571947598 407.00000286449097 410.31475718262215C412.83333635965994 409.8772571704845 415.1666697577275 388.6060065803508 421.0000032528965 387.4247565475791C426.83333674806545 386.24350651480734 429.1666701461331 404.07600700953896 435.00000364130204 404.6447570253179C440.833337136471 405.2135070410969 443.16667053453864 388.492256577195 449.0000040297076 390.1547566233182C454.8333375248766 391.81725666944135 457.16667092294415 413.0622572588467 463.0000044181131 412.62475724670907C468.8333379132821 412.1872572345714 474.0833380589342 393.1735067070681 477.0000048065187 388.05475656505735 " transform="rotate(21, 400, 400)"></path><path d="M334.0000004577637 405.6012177638149C336.5000005271218 402.4512176764236 341.00000065196645 389.9562173297717 346.00000079068275 390.48121734433687C351.000000929399 391.00621735890206 353.0000009848855 408.1212178337278 358.0000011236018 408.1212178337278C363.00000126231805 408.1212178337278 365.00000131780456 390.48121734433687 370.0000014565208 390.48121734433687C375.0000015952371 390.48121734433687 377.00000165072356 408.0087178306067 382.00000178943986 408.1212178337278C387.00000192815617 408.233717836849 389.0000019836426 390.8712173551567 394.00000212235886 391.0212173593182C399.00000226107517 391.1712173634797 401.0000023165617 409.21621786410674 406.0000024552779 408.841217853703C411.0000025939942 408.46621784329926 413.00000264948073 390.2337173374704 418.000002788197 389.22121730938034C423.0000029269132 388.2087172812903 425.0000029823998 403.49371770534594 430.00000312111604 403.98121771887077C435.0000032598323 404.4687177323956 437.00000331531885 390.13621733476543 442.0000034540351 391.5612173742996C447.00000359275134 392.9862174138337 449.00000364823785 411.19621791903836 454.00000378695415 410.82121790863465C459.0000039256704 410.44621789823094 463.50000405051503 394.14871744608524 466.00000411987315 389.7612173243617 " transform="rotate(18, 400, 400)"></path><path d="M344.99999656677244 404.66767844987703C347.08332995790425 402.042678377051 350.83333006194147 391.6301780881744 354.99999684420504 392.06767810031204C359.16666362646856 392.5051781124497 360.833330339374 406.76767850813786 364.99999712163753 406.76767850813786C369.1666639039011 406.76767850813786 370.8333306168065 392.06767810031204 374.9999973990701 392.06767810031204C379.16666418133366 392.06767810031204 380.83333089423905 406.67392850553694 384.99999767650263 406.76767850813786C389.16666445876615 406.8614285107388 390.8333311716716 392.3926781093286 394.9999979539351 392.5176781127965C399.1666647361987 392.6426781162644 400.83333144910415 407.6801785334536 404.9999982313677 407.3676785247838C409.16666501363125 407.05517851611404 410.8333317265367 391.86142809459 414.9999985088002 391.01767807118165C419.1666652910638 390.17392804777324 420.8333320039692 402.91142840115293 424.99999878623277 403.3176784124237C429.16666556849634 403.72392842369436 430.83333228140174 391.78017809233586 434.9999990636653 392.967678125281C439.1666658459289 394.1551781582261 440.8333325588343 409.33017857922994 444.9999993410978 409.0176785705602C449.1666661233614 408.7051785618904 452.9166662273986 395.1239281851024 454.99999961853035 391.4676780836661 " transform="rotate(15, 400, 400)"></path><path d="M355.9999964904785 403.7341477190081C357.66666320338396 401.63414766074726 360.6666632866137 393.3041474296459 363.99999671242455 393.65414743935605C367.3333301382354 394.00414744906624 368.66666350855974 405.41414776561675 371.9999969343706 405.41414776561675C375.33333036018144 405.41414776561675 376.6666637305058 393.65414743935605 379.9999971563166 393.65414743935605C383.3333305821275 393.65414743935605 384.6666639524518 405.339147763536 387.9999973782626 405.41414776561675C391.3333308040735 405.4891477676975 392.66666417439785 393.91414744656936 395.99999760020864 394.0141474493437C399.33333102601955 394.114147452118 400.6666643963439 406.14414778586934 403.9999978221547 405.89414777893353C407.33333124796553 405.6441477719977 408.6666646182899 393.48914743477843 411.9999980441007 392.81414741605175C415.33333146991157 392.1391473973251 416.6666648402359 402.3291476800288 419.99999826604676 402.6541476890454C423.3333316918576 402.9791476980619 424.66666506218195 393.42414743297513 427.9999984879928 394.3741474593312C431.33333191380365 395.3241474856873 432.666665284128 407.4641478224904 435.99999870993884 407.2141478155546C439.33333213574963 406.9641478086188 442.3333322189794 396.0991475071883 443.9999989318849 393.1741474260393 " transform="rotate(12, 400, 400)"></path><path d="M366.9999964141846 402.80060935874457C368.2499964488636 401.225609315049 370.499996511286 394.978109141723 372.9999965806441 395.2406091490056C375.49999665000223 395.5031091562882 376.49999667774546 404.0606093937011 378.99999674710364 404.0606093937011C381.49999681646176 404.0606093937011 382.49999684420504 395.2406091490056 384.9999969135631 395.2406091490056C387.4999969829213 395.2406091490056 388.4999970106645 404.00435939214054 390.9999970800227 404.0606093937011C393.4999971493808 404.11685939526166 394.49999717712404 395.43560915441554 396.99999724648217 395.5106091564963C399.49999731584035 395.58560915857703 400.4999973435836 404.6081094088905 402.9999974129417 404.4206094036887C405.4999974822998 404.2331093984868 406.4999975100431 395.11685914557233 408.9999975794012 394.6106091315273C411.49999764875935 394.1043591174823 412.49999767650263 401.74685932951013 414.99999774586075 401.99060933627254C417.4999978152189 402.23435934303495 418.49999784296216 395.0681091442199 420.9999979123203 395.7806091639869C423.4999979816784 396.49310918375403 424.4999980094217 405.59810943635637 426.9999980787798 405.41060943115446C429.49999814813793 405.2231094259526 431.74999821056025 397.0743591998798 432.99999824523934 394.880609139018 " transform="rotate(9, 400, 400)"></path><path d="M378.0000001525879 401.867076720527C378.8333335090406 400.81707669139655 380.3333335506555 396.6520765758459 382.0000002635609 396.827076580701C383.66666697646633 397.00207658555604 384.3333336616285 402.7070767438313 386.0000003745339 402.7070767438313C387.66666708743935 402.7070767438313 388.3333337726015 396.827076580701 390.0000004855069 396.827076580701C391.66666719841237 396.827076580701 392.33333388357454 402.6695767427909 394.00000059647994 402.7070767438313C395.6666673093854 402.74457674487167 396.33333399454756 396.95707658430763 398.00000070745295 397.0070765856948C399.6666674203584 397.05707658708195 400.3333341055206 403.0720767539576 402.000000818426 402.9470767504897C403.6666675313314 402.8220767470218 404.33333421649354 396.7445765784122 406.000000929399 396.40707656904885C407.66666764230445 396.06957655968546 408.33333432746656 401.16457670103733 410.000001040372 401.3270767055456C411.66666775327747 401.48957671005394 412.3333344384396 396.7120765775105 414.00000115134503 397.18707659068855C415.6666678642505 397.6620766038666 416.3333345494126 403.73207677226816 418.00000126231805 403.60707676880025C419.66666797522345 403.48207676533235 421.16666801683834 398.04957661461714 422.00000137329107 396.5870765740426 " transform="rotate(6, 400, 400)"></path><path d="M389.00000007629393 400.93353645291484C389.4166667545203 400.40853643834964 390.1666667753277 398.32603638057435 391.00000013178044 398.4135363830019C391.83333348823317 398.5010363854294 392.1666668308143 401.353536464567 393.00000018726695 401.353536464567C393.8333335437197 401.353536464567 394.16666688630073 398.4135363830019 395.00000024275346 398.4135363830019C395.8333335992062 398.4135363830019 396.1666669417873 401.33478646404683 397.00000029823997 401.353536464567C397.8333336546927 401.3722864650872 398.16666699727375 398.4785363848052 399.0000003537265 398.50353638549876C399.8333337101792 398.52853638619234 400.16666705276026 401.5360364696302 401.000000409213 401.4735364678962C401.8333337656657 401.4110364661623 402.16666710824677 398.37228638185746 403.0000004646995 398.2035363771758C403.8333338211522 398.0347863724941 404.1666671637333 400.58228644317006 405.000000520186 400.6635364454242C405.83333387663873 400.74478644767834 406.1666672192198 398.3560363814066 407.0000005756725 398.59353638799564C407.83333393212524 398.83103639458466 408.1666672747063 401.8660364787854 409.000000631159 401.80353647705147C409.8333339876117 401.7410364753175 410.5833340084192 399.0247863999599 411.00000068664554 398.2935363796727 " transform="rotate(3, 400, 400)"></path></g></svg>