<svg xmlns="http://www.w3.org/2000/svg" version="1.1" xmlns:xlink="http://www.w3.org/1999/xlink" xmlns:svgjs="http://svgjs.dev/svgjs" viewBox="0 0 800 800" opacity="0.15"><defs><linearGradient x1="50%" y1="0%" x2="50%" y2="100%" id="wwwhirl-grad"><stop stop-color="hsl(105, 69%, 40%)" stop-opacity="1" offset="45%"></stop><stop stop-color="hsl(105, 69%, 60%)" stop-opacity="1" offset="100%"></stop></linearGradient></defs><g stroke-width="2" stroke="hsl(105, 69%, 30%)" fill="none" stroke-linecap="round"><path d="M-227.00006431579578 476.1131212081449C-203.2500636568935 437.2818701308397 -160.50006247086938 293.28561613591523 -113.00006115306485 289.7231160370799C-65.50005983526032 286.1606159382445 -46.500059308138475 446.9006203976951 0.9999420096660288 459.01312073373526C48.49994332747059 471.12562106977543 67.49994385459246 337.1756173535666 114.99994517239702 347.86311765007264C162.49994649020158 358.55061794657865 181.49994701732345 512.4506222162654 228.999948335128 510.3131221569642C276.4999496529324 508.175622097663 295.49995018005427 342.23436749391277 342.9999514978588 337.60311736542684C390.4999528156633 332.9718672369409 409.49995334278515 479.17687129314334 456.99995466058965 488.0831215402317C504.49995597839427 496.98937178732 523.4999565055161 376.7906184526156 570.9999578233206 380.35311855145096C618.499959141125 383.9156186502863 637.4999596682469 516.939372340798 684.9999609860515 505.1831220146413C732.4999623038561 493.42687168848465 751.4999628309779 323.5668669760156 798.9999641487825 323.9231169858991C846.4999654665871 324.27936699578265 865.4999659937089 504.043121983014 912.9999673115133 506.8931220620823C960.4999686293179 509.7431221411506 1003.249969815342 372.8718683438967 1026.9999704742443 337.60311736542684 " transform="rotate(171, 400, 400)"></path><path d="M-216.0000643920897 474.77780857924915C-192.66673041141382 436.627807520844 -150.66672924619712 295.1578035960059 -104.00006128484532 291.6578034989045C-57.33339332349348 288.1578034018031 -38.666726138952754 446.0778077830177 7.99994182239908 457.97780811316244C54.666609783750914 469.8778084433072 73.33327696829173 338.277804792295 119.9999449296435 348.77780508359916C166.66661289099534 359.2778053749033 185.33328007553615 510.47780956968325 231.99994803688787 508.37780951142247C278.66661599823976 506.2778094531616 297.3332831827805 343.247804930179 343.9999511441323 338.6978048039472C390.6666191054841 334.1478046777153 409.33328629002483 477.78780866275633 455.9999542513767 486.5378089055098C502.6666222127286 495.28780914826325 521.3332893972694 377.1978058720624 567.9999573586213 380.6978059691638C614.6666253199729 384.19780606626523 633.3332925045137 514.887809692031 679.9999604658655 503.33780937159645C726.6666284272173 491.78780905116184 745.3332956117581 324.9078044213677 791.9999635731101 325.25780443107783C838.6666315344619 325.60780444078796 857.3332987190026 502.217809340524 903.9999666803544 505.01780941820516C950.6666346417062 507.8178094958863 992.6666358069228 373.3478057652509 1015.9999697875987 338.6978048039472 " transform="rotate(168, 400, 400)"></path><path d="M-205.00006446838367 473.4424883209588C-182.08339716593412 435.97373728145374 -140.8333960215249 297.029983426702 -95.00006141662578 293.5924833313346C-49.16672681172665 290.15498323596717 -30.833392969767004 445.2549875389458 14.999941635132132 456.9424878631951C60.83327624003124 468.6299881874444 79.16661008199094 339.37998460162885 124.99994468689005 349.69248488773115C170.8332792917892 360.00498517383346 189.16661313374885 508.5049892937066 234.99994773864796 506.44248923648615C280.8332823435471 504.3799891792657 299.16661618550665 344.2612347370506 344.9999507904058 339.79248461307293C390.833285395305 335.3237344890953 409.1666192372646 476.39873840297474 454.9999538421638 484.9924886413934C500.83328844706284 493.58623887981196 519.1666222890225 377.6049856621147 564.9999568939216 381.04248575748215C610.8332914988207 384.47998585284955 629.1666253407803 512.8362394138696 674.9999599456795 501.49248909915707C720.8332945505787 490.1487387844445 739.1666283925383 326.2487342373252 784.9999629974375 326.592484246862C830.8332976023369 326.93623425639873 849.1666314442964 500.39248906863946 894.9999660491953 503.1424891449334C940.8333006540943 505.8924892212274 982.0833017985035 373.8237355572105 1004.9999691009532 339.79248461307293 " transform="rotate(165, 400, 400)"></path><path d="M-194.00006454467763 472.1071947655493C-171.5000639204544 435.31969374494435 -131.0000627968526 298.90218996027903 -86.00006154840622 295.5271898666456C-41.00006029995981 292.1521897730121 -23.000059800581226 444.4321939977548 21.999941447865126 455.9071943161086C66.99994269631156 467.3821946344624 84.99994319569015 340.48219111384356 129.9999444441366 350.60719139474395C174.99994569258297 360.73219167564446 192.9999461919616 506.53219572061084 237.999947440408 504.5071956644307C282.9999486888544 502.48219560825066 300.9999491882329 345.27469124680306 345.99995043667934 340.88719112507954C390.9999516851258 336.499691003356 408.9999521845044 475.00969484607407 453.99995343295075 483.4471950801578C498.9999546813972 491.8846953142415 516.9999551807758 378.01219215504784 561.9999564292222 381.38719224868134C606.9999576776685 384.7621923423148 624.9999581770469 510.78469583858896 669.9999594254934 499.6471955295985C714.9999606739401 488.509695220608 732.9999611733185 327.58969075616363 777.9999624217651 327.927190765527C822.9999636702114 328.2646907748903 840.9999641695899 498.5671954996358 885.9999654180363 501.2671955745426C930.9999666664828 503.9671956494494 971.4999677900844 374.299692052051 993.9999684143077 340.88719112507954 " transform="rotate(162, 400, 400)"></path><path d="M-183.00006462097156 470.7718973954426C-160.9167306749747 434.6656463937377 -121.16672957218037 300.7743926791588 -77.00006168018666 297.4618925872593C-32.83339378819298 294.14939249535973 -15.166726631395477 443.6093966418664 28.999941260598234 454.8718969543248C73.16660915259189 466.13439726678325 90.83327630938942 341.584393811361 134.99994420138307 351.52189408705954C179.16661209337684 361.45939436275813 196.83327925017431 504.55939833281775 240.99994714216797 502.571898277678C285.16661503416174 500.5843982225383 302.83328219095915 346.28814394185827 346.99995008295286 341.9818938223889C391.1666179749466 337.6756437029195 408.8332851317441 473.62064747447613 452.9999530237378 481.901897704225C497.1666209157314 490.18314793397377 514.833288072529 378.4193948332837 558.9999559645228 381.73189492518327C603.1666238565163 385.04439501708276 620.8332910133137 508.73314844861113 664.9999589053075 497.8018981453427C709.1666267973013 486.8706478420743 726.8332939540987 328.9306434603048 770.9999618460924 329.26189346949474C815.1666297380862 329.5931434786847 832.8332968948837 496.7418981159348 876.9999647868774 499.3918981894544C921.1666326788709 502.0418982629741 960.9166337816653 374.7756447321942 982.9999677276621 341.9818938223889 " transform="rotate(159, 400, 400)"></path><path d="M-172.0000646972655 469.43652754608775C-150.33339742949502 434.011526563283 -111.3333963475081 302.6465229187905 -68.00006181196713 299.39652282862494C-24.666727276426144 296.14652273845934 -7.333393462209727 442.7865268067301 35.99994107333123 453.8365271132931C79.33327560887221 464.88652741985595 96.66660942308863 342.6865240296304 139.99994395862961 352.4365243001271C183.33327849417066 362.1865245706238 200.66661230838707 502.5865284657766 243.99994684392806 500.6365284116773C287.333281379469 498.6865283575779 304.6666151936854 347.3015241576655 347.9999497292264 343.07652404045024C391.33328426476737 338.851523923235 408.6666180789838 472.2315276236302 451.9999526145248 480.35652784904414C495.33328715006576 488.481528074458 512.6666209642822 378.82652503227155 555.9999554998232 382.07652512243715C599.3332900353641 385.3265252126027 616.6666238495803 506.68152857938526 659.9999583851215 495.95652828183887C703.3332929206626 485.2315279842925 720.6666267348788 330.27152368519785 763.9999612704199 330.59652369421445C807.3332958059609 330.921523703231 824.6666296201774 494.91652825298587 867.9999641557183 497.5165283251183C911.3332986912592 500.1165283972508 950.3332997732462 375.2515249330894 971.9999670410166 343.07652404045024 " transform="rotate(156, 400, 400)"></path><path d="M-161.00006477355947 468.101230175981C-139.75006418401532 433.3574792120763 -101.50006312283585 304.51872563767023 -59.00006194374757 301.3312255492386C-16.50006076465931 298.143725460807 0.4999397069760221 441.9637294508417 42.99994088606428 452.80122975150925C85.49994206515254 463.6387300521768 102.4999425367879 343.7887267271478 144.99994371587616 353.35122699244266C187.49994489496447 362.91372725773755 204.49994536659977 500.6137310779836 246.9999465456881 498.7012310249246C289.49994772477635 496.7887309718656 306.49994819641165 348.3149768527207 348.9999493754999 344.1712267377596C391.49995055458817 340.0274766227985 408.49995102622347 470.8424802520322 450.99995220531173 478.81123047311127C493.4999533844001 486.77998069419033 510.4999538560354 379.2337277105074 552.9999550351237 382.42122779893907C595.4999562142118 385.60872788737066 612.4999566858471 504.62998118940743 654.9999578649355 494.111230897583C697.4999590440239 483.59248060575874 714.4999595156592 331.612476389339 756.9999606947475 331.93122639818216C799.4999618738359 332.2499764070253 816.4999623454712 493.0912308692849 858.9999635245592 495.64123094003025C901.4999647036475 498.1912310107756 939.7499657648268 375.7274776132326 960.999966354371 344.1712267377596 " transform="rotate(153, 400, 400)"></path><path d="M-150.0000648498534 466.76591373238796C-129.16673093853564 432.7034127873834 -91.6667298981636 306.39090928306365 -50.000062075528035 303.26590919636595C-8.333394252892475 300.1409091096683 8.333272876161743 441.14091302146704 49.99994069879733 451.76591331623916C91.66660852143286 462.39091361101123 108.33327565048717 344.8909103511789 149.9999434731227 354.2659106112719C191.6666112957583 363.6409108713649 208.3332784248126 498.64091461670415 249.99994624744807 496.76591456468554C291.66661407008365 494.890914512667 308.3332811991379 349.32841047428957 349.9999490217733 345.26591036158266C391.66661684440896 341.2034102488757 408.33328397346327 469.4534138069479 449.9999517960988 477.2659140236921C491.66661961873433 485.07841424043625 508.33328674778863 379.640911315257 549.9999545704242 382.76591140195467C591.6666223930597 385.8909114886523 608.3332895221138 502.5784147259432 649.9999573447495 492.2659144398409C691.6666251673852 481.95341415373866 708.3332922964393 332.95341001999384 749.9999601190749 333.2659100286636C791.6666279417105 333.57841003733336 808.333295070765 491.2659144120977 849.9999628934002 493.7659144814558C891.6666307160358 496.26591455081393 929.1666317564079 376.2034112198895 949.9999656677255 345.26591036158266 " transform="rotate(150, 400, 400)"></path><path d="M-139.0000572967528 465.4305858447031C-118.5833900636614 432.04933491859856 -81.8333890440968 308.2630814843653 -41.00005457791394 305.2005813994015C-0.16672011173110945 302.13808131443784 16.166613674742024 440.3180851480006 56.99994814092486 450.7305854368773C97.83328260710772 461.14308572575385 114.16661639358091 345.9930825311182 154.99995085976377 355.1805827860094C195.83328532594663 364.3680830409005 212.16661911241982 496.668086711333 252.99995357860263 494.8305866603547C293.8332880447855 492.9930866093765 310.1666218312587 350.3418326517667 350.9999562974415 346.3605825413139C391.8332907636243 342.37933243086104 408.1666245500975 468.06433591777187 448.9999590162803 475.7205861301811C489.8332934824632 483.3768363425904 506.1666272689364 380.0480834759147 546.9999617351192 383.11058356087847C587.833296201302 386.17308364584215 604.1666299877751 500.5268368183872 644.999964453958 490.420586538007C685.8332989201409 480.31433625762674 702.166632706614 334.2943322065568 742.9999671727969 334.6005822150532C783.83330163898 334.9068322235496 800.166635425453 489.44058651081855 840.9999698916358 491.89058657878957C881.8333043578186 494.3405866467606 918.5833053773831 376.6793333824546 938.9999726104745 346.3605825413139 " transform="rotate(147, 400, 400)"></path><path d="M-128.0000573730468 464.09529610399085C-108.0000568181817 431.39529519678644 -72.00005581942455 310.13529183263955 -32.00005470969441 307.13529174940976C7.999946400035725 304.13529166618 23.999946843927773 439.4952954215068 63.99994795365791 449.695295704488C103.99994906338804 459.89529598746924 119.99994950728012 347.0952928580302 159.9999506170103 356.0952931077195C199.99995172674045 365.09529335740876 215.99995217063253 494.6952969529344 255.99995328036272 492.89529690299656C295.9999543900928 491.0952968530587 311.9999548339848 351.35529297621645 351.9999559437149 347.45529286801775C391.9999570534451 343.55529275981905 407.99995749733716 466.6752961755684 447.99995860706736 474.17529638364283C487.99995971679755 481.67529659171726 503.9999601606895 380.45529378354513 543.9999612704197 383.4552938667749C583.9999623801498 386.45529395000466 599.9999628240419 498.4752970578039 639.999963933772 488.57529678314575C679.9999650435022 478.6752965084875 695.9999654873943 335.6352925400925 735.9999665971245 335.9352925484155C775.9999677068547 336.23529255673844 791.9999681507467 487.6152967565122 831.9999692604767 490.01529682309604C871.9999703702067 492.41529688967984 907.9999713689638 377.15529369199237 927.999971923829 347.45529286801775 " transform="rotate(144, 400, 400)"></path><path d="M-117.00005744934072 462.7599644016087C-97.41672357270201 430.74121351330444 -62.16672259475229 312.0074602192439 -23.000054841474878 309.06996013774807C16.16661291180256 306.1324600562523 31.833280013113523 438.6724637333431 70.99994776639096 448.6599640104289C110.16661551966843 458.6474642875146 125.83328262097939 348.1974612232722 164.9999503742568 357.00996146775964C204.16661812753426 365.8224617122471 219.83328522884528 492.722465232866 258.99995298212264 490.9599651839685C298.16662073540016 489.197465135071 313.83328783671107 352.36871133899626 352.99995558998853 348.54996123305176C392.1666233432659 344.7312111271072 407.83329044457685 465.28621447169513 446.9999581978543 472.6299646754347C486.1666259511318 479.97371487917417 501.83329305244274 380.8624621295056 540.9999608057202 383.79996221100146C580.1666285589976 386.73746229249724 595.8332956603085 496.4237153355507 634.999963413586 486.72996506661457C674.1666311668635 477.0362147976784 689.8332982681744 336.9762109119583 728.9999660214519 337.26996092010785C768.1666337747295 337.5637109282574 783.8333008760403 485.7899650405359 822.9999686293178 488.13996510573253C862.1666363825952 490.48996517092917 897.4166373605449 377.6312120398602 916.9999712371834 348.54996123305176 " transform="rotate(141, 400, 400)"></path><path d="M-106.00002700805653 461.42462888452934C-86.83335980964418 430.08712801512513 -52.3333588525019 313.87962479115095 -14.000024455677192 311.0046247113891C24.33330994114752 308.1296246316273 39.6666436998774 437.8496282304821 77.99997809670211 447.6246285016724C116.33331249352682 457.3996287728628 131.66664625225678 349.299625773817 169.99998064908146 357.92462601310257C208.3333150459062 366.5496262523881 223.6666488046361 490.74962969810025 261.99998320146085 489.0246296502431C300.3333175982856 487.299629602386 315.6666513570154 353.38212588707887 353.99998575384006 349.64462578338845C392.3333201506648 345.907125679698 407.66665390939477 463.8971289531245 445.9999883062195 471.08462915252915C484.33332270304425 478.2721293519338 499.6666564617741 381.26962666076884 537.9999908585988 384.1446267405307C576.3333252554235 387.01962682029256 591.6666590141533 494.3721297986002 629.9999934109782 484.88462953538607C668.3333278078029 475.3971292721719 683.6666615665329 338.3171254691267 721.9999959633576 338.6046254771029C760.3333303601823 338.89212548507913 775.6666641189122 483.9646295098623 813.9999985157368 486.26462957367175C852.3333329125614 488.5646296374813 886.8333338697037 378.10712657303077 906.000001068116 349.64462578338845 " transform="rotate(138, 400, 400)"></path><path d="M-95.00002708435048 460.08931625563355C-76.25002656416449 429.4330654051294 -42.50002562782966 315.75181225124163 -5.000024587457631 312.93931217321375C32.499976452914325 310.12681209518587 47.49997686906315 437.0268156158047 84.99997790943516 446.5893158810996C122.4999789498072 456.1518161463945 137.49997936595605 350.4018132125454 174.999980406328 358.8393134466291C212.49998144670002 367.2768136807128 227.49998186284887 488.77681705151815 264.9999829032209 487.0893170047014C302.4999839435929 485.40181695788465 317.49998435974163 354.395563323345 354.9999854001137 350.73931322190873C392.4999864404856 347.0830631204725 407.49998685663445 462.50806632273753 444.99998789700646 469.53931651780726C482.4999889373785 476.57056671287705 497.4999893535273 381.67681408021565 534.9999903938993 384.48931415824353C572.4999914342714 387.30181423627147 587.49999185042 492.32056714983327 624.9999928907921 483.03931689234116C662.4999939311641 473.7580666348491 677.499994347313 339.6580629144788 714.9999953876851 339.9393129222816C752.4999964280571 340.2205629300844 767.499996844206 482.13931686737226 804.9999978845777 484.3893169297946C842.4999989249498 486.6393169922169 876.2499998612846 378.58306399438493 895.0000003814707 350.73931322190873 " transform="rotate(135, 400, 400)"></path><path d="M-84.00002716064444 458.754022700224C-65.66669331868479 428.77902186862 -32.6666924031574 317.62401878481865 3.999975280761902 314.8740187085247C40.66664296468119 312.1240186322308 55.333310038248925 436.20402207461365 91.99997772216821 445.5540223340131C128.66664540608747 454.90402259341255 143.3333124796552 351.5040197247601 179.99998016357455 359.75401995364194C216.66664784749383 368.0040201825238 231.33331492106157 486.8040234784223 267.9999826049809 485.15402343264594C304.66665028890014 483.50402338686956 319.3333173624679 355.4090198330975 355.99998504638717 351.8340197339154C392.6666527303064 348.25901963473325 407.33331980387425 461.1190227658368 443.99998748779353 467.9940229565717C480.6666551717128 474.8690231473066 495.33332224528056 382.0840205731488 531.9999899291998 384.8340206494427C568.666657613119 387.58402072573665 583.3333246866868 490.26902357455265 619.9999923706062 481.19402332278264C656.6666600545256 472.11902307101263 671.3333271280932 340.9990194333172 707.9999948120125 341.27401944094663C744.6666624959319 341.549019448576 759.3333295694996 480.3140232983686 795.9999972534189 482.5140233594037C832.6666649373379 484.71402342043893 865.6666658528653 379.0590204892254 883.999999694825 351.8340197339154 " transform="rotate(132, 400, 400)"></path><path d="M-72.99999671936025 457.4186948125392C-55.08332955562696 428.12494399983524 -22.83332866090703 319.49619098612027 13.00000566655956 316.8086909115603C48.83333999402612 314.1211908370003 63.1666737250128 435.3811942011472 99.00000805247936 444.5186944546512C134.83334237994598 453.6561947081552 149.1666761109326 352.6061919046994 185.00001043839922 360.6686921283794C220.83334476586577 368.7311923520594 235.16667849685246 484.8311955730511 271.000012824319 483.21869552831515C306.8333471517856 481.60619548357914 321.16668088277225 356.4224420105746 357.0000152102388 352.9286919136466C392.8333495377053 349.4349418167186 407.16668326869205 459.72994487666074 443.0000175961586 466.44869506306077C478.8333519236252 473.16744524946074 493.1666856546119 382.49119273380654 529.0000199820785 385.1786928083665C564.8333543095449 387.86619288292655 579.1666880405315 488.21744566699675 615.0000223679982 479.34869542094873C650.8333566954649 470.47994517490076 665.1666904264514 342.3399416198802 701.0000247539182 342.6086916273362C736.8333590813849 342.87744163479226 751.1666928123714 478.48869539708954 787.0000271398379 480.63869545673754C822.8333614673045 482.7886955163856 855.0833623620243 379.5349426517906 873.0000295257577 352.9286919136466 " transform="rotate(129, 400, 400)"></path><path d="M-61.9999967956542 456.0833707395516C-44.49999631014727 427.4708699457477 -12.999995436234755 321.36836700211916 22.00000553477912 318.74336692929313C57.00000650579298 316.1183668564671 71.00000689419855 434.55837014237807 106.00000786521241 443.4833703899866C141.00000883622624 452.4083706375951 155.00000922463187 353.708367899336 190.0000101956457 361.58336811781413C225.0000111666596 369.4583683362922 239.00001155506516 482.8583714823772 274.00001252607905 481.28337143868157C309.0000134970929 479.708371394986 323.0000138854984 357.435868002749 358.00001485651234 354.0233679080751C393.0000158275262 350.6108678134013 407.00001621593174 458.34087080218194 442.00001718694557 464.9033709842471C477.0000181579595 471.4658711663122 491.00001854636514 382.89836870916156 526.000019517379 385.52336878198764C561.0000204883927 388.14836885481367 575.0000208767983 486.165871574138 610.0000218478123 477.5033713338121C645.0000228188261 468.84087109348616 659.0000232072317 343.6808676211405 694.0000241782457 343.9433676284231C729.0000251492595 344.2058676357057 743.000025537665 476.6633713105077 778.0000265086788 478.7633713687686C813.0000274796927 480.86337142702945 844.5000283536051 380.01086862905294 862.0000288391121 354.0233679080751 " transform="rotate(126, 400, 400)"></path><path d="M-50.999996871948156 454.7480275930776C-33.916663064667574 426.8167768181739 -3.1666622115625103 323.2405239446317 31.000005402998653 320.67802387353964C65.16667301755979 318.11552380244757 78.83334006338427 433.7355270101225 113.00000767794543 442.44802725183564C147.16667529250662 451.1605274935488 160.83334233833114 354.81052482048625 195.00000995289224 362.4980250337625C229.1666775674534 370.18552524703875 242.83334461327792 480.885528318217 277.0000122278391 479.34802827556166C311.16667984240024 477.81052823290645 324.83334688822464 358.449274921437 359.0000145027858 355.11802482901726C393.166682117347 351.7867747365976 406.83334916317153 456.9517776542168 441.00001677773275 463.3580278319471C475.16668439229375 469.76427800967724 488.83335143811826 383.30552561103025 523.0000190526795 385.8680256821223C557.1666866672406 388.4305257532144 570.833353713065 484.114278407793 605.0000213276262 475.6580281731891C639.1666889421874 467.2017779385852 652.8333559880119 345.02177454891444 687.000023602573 345.2780245560237C721.1666912171344 345.5342745631329 734.8333582629588 474.83802815043964 769.0000258775199 476.88802820731325C803.166693492081 478.938028264187 833.9166943451861 380.486775532829 851.0000281524666 355.11802482901726 " transform="rotate(123, 400, 400)"></path><path d="M-39.9999969482421 453.4127340376682C-23.333329819187867 426.1627332816645 6.666671013109749 325.11273047820873 40.000005271218185 322.6127304088506C73.33333952932665 320.1127303394925 86.66667323257002 432.91273346893144 120.00000749067848 441.41273370474914C153.3333417487869 449.9127339405668 166.66667545203035 355.91273133270096 200.00000971013878 363.4127315407753C233.33334396824722 370.91273174884975 246.66667767149067 478.91273474512116 280.0000119295991 477.41273470350626C313.33334618770755 475.91273466189136 326.6666798909509 359.46273143118947 360.0000141490593 356.2127313410239C393.33334840716776 352.9627312508583 406.6666821104112 455.56273409731614 440.0000163685197 461.81273427071153C473.3333506266281 468.0627344441068 486.6666843298715 383.7127321039634 520.00001858798 386.2127321733215C553.3333528460884 388.71273224267964 566.6666865493316 482.0627348325124 600.0000208074403 473.81273460363053C633.3333550655487 465.56273437474874 646.666688768792 346.36273106775286 680.0000230269006 346.61273107468867C713.3333572850091 346.8627310816245 726.6666909882525 473.0127345814359 760.0000252463608 475.01273463692246C793.3333595044692 477.01273469240897 823.3333603367668 380.96273202766946 840.0000274658211 356.2127313410239 " transform="rotate(120, 400, 400)"></path><path d="M-28.999997024536043 452.0774061499833C-12.749996573708174 425.5086554128797 16.500004237782008 326.98490267951036 49.00000513943775 324.5474026118862C81.50000604109349 322.10990254426196 94.5000064017558 432.089905595465 127.00000730341151 440.3774058253872C159.50000820506722 448.6649060553094 172.50000856572956 357.0149035126403 205.00000946738533 364.3274037155128C237.50001036904104 371.63990391838536 250.50001072970338 476.93990683974994 283.00001163135914 475.47740679917547C315.50001253301485 474.0149067586009 328.50001289367714 360.4761536086666 361.00001379533285 357.30740352075514C393.50001469698856 354.13865343284374 406.5000150576509 454.1736562081401 439.00001595930667 460.26740637720053C471.50001686096243 466.361156546261 484.5000172216247 384.11990426462114 517.0000181232805 386.5574043322453C549.5000190249361 388.9949043998695 562.5000193855984 480.0111569249564 595.0000202872542 471.9674067017966C627.50002118891 463.9236564786368 640.5000215495722 347.7036532543159 673.0000224512281 347.9474032610783C705.5000233528839 348.1911532678407 718.5000237135462 471.18740668015687 751.0000246152017 473.13740673425616C783.5000255168574 475.08740678835557 812.7500263283475 381.43865419023456 829.0000267791755 357.30740352075514 " transform="rotate(117, 400, 400)"></path><path d="M-17.999997100829987 450.74208589169297C-2.1666633282284806 424.85458517348945 26.333337462454267 328.8570825102065 58.00000500765728 326.48208244431623C89.66667255286029 324.107082378426 102.33333957094152 431.2670853513931 134.00000711614456 439.3420855754199C165.66667466134757 447.4170857994467 178.33334167942883 358.1170833219741 210.00000922463187 365.2420835196448C241.66667676983485 372.3670837173155 254.33334378791608 474.9670865637733 286.0000113331191 473.54208652423915C317.66667887832216 472.11708648470506 330.33334589640333 361.4895834155382 362.00001344160637 358.40208332988095C393.66668098680935 355.3145832442236 406.33334800489064 452.78458594835854 438.0000155500936 458.7220861130842C469.66668309529666 464.6595862778097 482.33335011337795 384.5270840546734 514.000017658581 386.90208412056364C545.6666852037839 389.27708418645386 558.3333522218651 477.959586646795 590.0000197670682 470.12208642935724C621.6666873122713 462.2845862119195 634.3333543303524 349.0445830702734 666.0000218755555 349.2820830768625C697.6666894207586 349.5195830834515 710.3333564388398 469.3620864082724 742.0000239840429 471.26208646098456C773.6666915292458 473.16208651369675 802.1666923199285 381.9145839821942 818.00002609253 358.40208332988095 " transform="rotate(114, 400, 400)"></path><path d="M-6.999997177123944 449.40677707749444C8.416669917251212 424.20052637819106 36.166670687126526 330.72927378499446 67.00000487587684 328.41677372083814C97.83333906462715 326.10427365668187 110.16667274012727 430.44427655141294 141.00000692887758 438.3067767695443C171.8333411176279 446.16927698767563 184.16667479312804 359.2192745753997 215.0000089818784 366.15677476786857C245.83334317062872 373.0942749603374 258.16667684612884 472.9942777318884 289.00001103487915 471.60677769339463C319.83334522362946 470.2192776549009 332.1666788991296 362.50302466650163 363.0000130878799 359.4967745830985C393.8333472766302 356.4905244996953 406.1666809521303 451.3955271326688 437.0000151408807 457.1767772930595C467.833349329631 462.9580274534502 480.16668300513106 384.9342752888175 511.0000171938815 387.24677535297377C541.8333513826317 389.55927541713004 554.1666850581319 475.9080278127253 585.0000192468822 468.2767776010096C615.8333534356325 460.64552738929393 628.1666871111327 350.38552433032277 659.0000212998831 350.6167743367384C689.8333554886334 350.848024343154 702.1666891641336 467.5367775804796 733.0000233528838 469.38677763180465C763.833357541634 471.23677768312973 791.5833583115093 382.3905252182456 807.0000254058845 359.4967745830985 " transform="rotate(111, 400, 400)"></path><path d="M4.000002746582112 448.07145681920406C19.00000316273092 423.54645613880075 46.00000391179877 332.6014536156906 76.00000474409637 330.35145355326824C106.00000557639396 328.1014534908459 118.00000590931302 429.6214563073411 148.00000674161063 437.271456519577C178.00000757390825 444.92145673181284 190.0000079068273 360.32145438473356 220.00000873912495 367.07145457200056C250.00000957142254 373.8214547592675 262.0000099043416 471.0214574559118 292.0000107366392 469.6714574184584C322.00001156893677 468.32145738100496 334.00001190185577 363.5164544733733 364.0000127341534 360.59145439222425C394.000013566451 357.66645431107526 406.00001389937006 450.00645687288727 436.00001473166765 455.6314570289431C466.00001556396523 461.2564571849989 478.0000158968844 385.3414550788698 508.000016729182 387.5914551412921C538.0000175614796 389.8414552037144 550.0000178943985 473.8564575345639 580.0000187266962 466.4314573285702C610.0000195589939 459.00645712257653 622.0000198919129 351.72645414628033 652.0000207242106 351.95145415252256C682.0000215565082 352.1764541587648 694.0000218894272 465.7114573085951 724.0000227217247 467.51145735853294C754.0000235540223 469.3114574084708 781.0000243030902 382.86645501020524 796.0000247192389 360.59145439222425 " transform="rotate(108, 400, 400)"></path><path d="M15.000002670288168 446.73614419030827C29.583336408210613 422.8923935288051 55.83333713647103 334.4736410757813 85.00000461231593 332.2861410150929C114.16667208816082 330.0986409544045 125.83333907849877 428.79864369266363 155.00000655434366 436.2361438990041C184.16667403018857 443.6736441053446 195.83334102052655 361.42364182346194 225.00000849637144 367.98614200552703C254.16667597221635 374.5486421875922 265.8333429625543 469.04864480932963 295.0000104383992 467.73614477291665C324.16667791424413 466.4236447365036 335.833344904582 364.52989190963945 365.00001238042694 361.68614183074453C394.1666798562718 358.8423917518497 405.83334684660974 448.61739424250027 435.0000143224547 454.0861443942212C464.1666817982996 459.5548945459421 475.8333487886375 385.7486424983166 505.0000162644824 387.93614255900496C534.1666837403274 390.1236426196933 545.8333507306652 471.80489488579695 575.0000182065102 464.58614468552537C604.1666856823551 457.3673944852537 615.8333526726931 353.0673915916324 645.0000201485379 353.2861415977012C674.1666876243829 353.50489160377003 685.8333546147209 463.8861446661051 715.0000220905657 465.63614471465576C744.1666895664105 467.3861447632065 770.416690294671 383.3423924315594 785.0000240325934 361.68614183074453 " transform="rotate(105, 400, 400)"></path><path d="M26.00000259399421 445.4008201173207C40.166669653690306 422.2383194747175 65.66667036114329 336.34581709178013 94.00000448053547 334.2208170328257C122.33333859992763 332.0958169738713 133.66667224768452 427.9758196338945 162.0000063670767 435.2008198343395C190.33334048646887 442.4258200347845 201.6666741342258 362.5258178180985 230.00000825361798 368.90081799496176C258.33334237301017 375.275818171825 269.66667602076706 467.0758207186557 298.00001014015925 465.80082068328306C326.3333442595514 464.5258206479104 337.66667790730827 365.5433179018138 366.00001202670046 362.7808178251731C394.3333461460926 360.0183177485323 405.66667979384954 447.22832016802147 434.00001391324173 452.5408203154075C462.33334803263386 457.85332046279353 473.66668168039075 386.1558184736716 502.000015799783 388.28081853262603C530.3333499191751 390.40581859158044 541.666683566932 469.75332079293827 570.0000176863242 462.7408205983887C598.3333518057165 455.7283204038391 609.6666854534733 354.4083175928927 638.0000195728655 354.6208175987881C666.3333536922578 354.83331760468354 677.6666873400146 462.06082057952324 706.0000214594068 463.76082062668684C734.3333555787988 465.4608206738503 759.8333562862518 383.81831840882177 774.000023345948 362.7808178251731 " transform="rotate(102, 400, 400)"></path><path d="M37.00000251770027 444.06551130312215C50.75000289917 421.5842606794191 75.50000358581553 338.2180083665681 103.000004348755 336.1555083093476C130.50000511169446 334.09300825212716 141.5000054168703 427.1530108339143 169.00000617980973 434.1655110284639C196.5000069427492 441.1780112230135 207.50000724792503 363.62800907152416 235.00000801086446 369.81550924318555C262.500008773804 376.00300941484693 273.5000090789798 465.1030118867708 301.0000098419193 463.86551185243854C328.50001060485874 462.6280118181063 339.5000109100345 366.5567591527772 367.000011672974 363.8755090783906C394.50001243591345 361.19425900400404 405.5000127410893 445.83926135233173 433.0000135040287 450.99551149538286C460.5000142669682 456.15176163843404 471.50001457214404 386.5630097078157 499.0000153350834 388.62550976503616C526.5000160980228 390.6880098222566 537.5000164031987 467.7017619588686 565.0000171661382 460.8955117700411C592.5000179290777 454.0892615812136 603.5000182342535 355.74925885294203 631.000018997193 355.9555088586641C658.5000197601325 356.1617588643861 669.5000200653083 460.23551175173054 697.0000208282477 461.8855117975069C724.5000215911871 463.5355118432833 749.2500222778326 384.2942596448732 763.0000226593024 363.8755090783906 " transform="rotate(99, 400, 400)"></path><path d="M48.00000244140632 442.7301910448318C61.33333614464971 420.93019044002887 85.3333368104878 340.09018819726424 112.00000421697456 338.09018814177773C138.6666716234613 336.0901880862912 149.33333858605602 426.33019058984246 176.00000599254278 433.13019077849657C202.66667339902952 439.9301909671507 213.33334036162427 364.730188880858 240.000007768111 370.73018904731754C266.6666751745978 376.73018921377707 277.3333421371925 463.1301916107942 304.00000954367925 461.9301915775023C330.66667695016605 460.73019154421036 341.3333439127607 367.5701889596489 368.00001131924745 364.9701888875164C394.66667872573424 362.3701888153839 405.33334568832896 444.4501910925502 432.00001309481576 449.45019123126644C458.66668050130244 454.45019136998275 469.3333474638972 386.970189497868 496.0000148703839 388.9701895533545C522.6666822768707 390.970189608841 533.3333492394653 465.65019168070717 560.0000166459522 459.0501914976017C586.666684052439 452.45019131449624 597.3333510150337 357.09018866889954 624.0000184215204 357.2901886744482C650.6666858280073 357.4901886799969 661.3333527906019 458.41019147984605 688.0000201970887 460.0101915242352C714.6666876035754 461.61019156862443 738.6666882694134 384.7701894368328 752.0000219726569 364.9701888875164 " transform="rotate(96, 400, 400)"></path><path d="M59.00000236511238 441.3948631571469C71.9166693901294 420.2761125712441 95.16667003516005 341.96236039856586 121.00000408519412 340.0248603448133C146.83333813522813 338.08736029106075 157.1666717552418 425.507362716376 183.0000058052758 432.0948628991347C208.83333985530987 438.68236308189336 219.1666734753235 365.8323610607973 245.00000752535757 371.644861222055C270.8333415753916 377.4573613833127 281.1666751954052 461.157363705423 307.0000092454393 459.99486367317144C332.83334329547336 458.83236364091994 343.16667691548696 368.58361113712596 369.00001096552097 366.06486106724765C394.83334501555504 363.54611099736934 405.1666786355687 443.06111320337413 431.0000126856027 447.9048633377555C456.8333467356368 452.74861347213687 467.16668035565044 387.37736165852573 493.0000144056845 389.3148617122783C518.8333484557185 391.25236176603084 529.1666820757321 463.5986137731512 555.0000161257661 457.20486359576773C580.8333501758003 450.81111341838437 591.1666837958139 358.4311108554626 617.000017845848 358.6248608608378C642.8333518958821 358.8186108662131 653.1666855158957 456.5848635785669 679.0000195659296 458.134863621569C704.8333536159636 459.6848636645711 728.0833542609943 385.2461115993979 741.0000212860114 366.06486106724765 " transform="rotate(93, 400, 400)"></path><path d="M70.00000228881842 440.05954671355386C82.50000263560909 419.6220461465511 105.00000325983231 343.8345440439593 130.00000395341365 341.9595439919407C155.00000464699497 340.08454393992207 165.00000492442751 424.68454628700135 190.00000561800886 431.0595464638646C215.0000063115902 437.43454664072783 225.00000658902275 366.93454468482844 250.00000728260406 372.55954484088426C275.00000797618543 378.18454499694 285.000008253618 459.1845472441436 310.0000089471993 458.05954721293244C335.00000964078066 456.93454718172126 345.00000991821315 369.59704475869484 370.0000106117945 367.15954469107066C395.00001130537584 364.7220446234465 405.0000115828084 441.67204675828987 430.0000122763897 446.35954688833635C455.000012969971 451.04704701838284 465.0000132474036 387.7845452632753 490.00001394098496 389.6595453152939C515.0000146345662 391.5345453673125 525.0000149119987 461.54704730968706 550.0000156055801 455.3595471380256C575.0000162991615 449.1720469663643 585.000016576594 359.77204448611735 610.0000172701755 359.95954449131926C635.0000179637568 360.1470444965211 645.0000182411893 454.7595471213797 670.0000189347705 456.2595471629946C695.0000196283519 457.7595472046095 717.5000202525752 385.7220452060548 730.0000205993658 367.15954469107066 " transform="rotate(90, 400, 400)"></path><path d="M81.00000221252448 438.72423408465806C93.08333588108879 418.9679835365554 114.83333648450457 345.70673150404997 139.0000038216332 343.8942314537653C163.1666711587618 342.08173140348066 172.83333809361326 423.8617336723239 197.0000054307419 430.02423384329177C221.16667276787052 436.18673401425957 230.833339702722 368.0367321235568 255.00000703985063 373.4742322744108C279.16667437697924 378.9117324252647 288.83334131183074 457.2117345975615 313.00000864895935 456.12423456739066C337.16667598608797 455.0367345372199 346.8333429209394 370.61048219496104 371.000010258068 368.25423212959095C395.16667759519663 365.8979820642209 404.8333445300481 440.28298412790286 429.00001186717674 444.8142342536145C453.16667920430535 449.3454843793261 462.8333461391569 388.1917326827221 487.00001347628546 390.00423273300675C511.1666808134141 391.8167327832914 520.8333477482655 459.4954846609201 545.0000150853941 453.51423449498077C569.1666824225229 447.5329843290414 578.8333493573742 361.11298193146945 603.000016694503 361.2942319364979C627.1666840316316 361.47548194152637 636.8333509664831 452.9342344788897 661.0000183036116 454.3842345191174C685.1666856407402 455.83423455934513 706.9166862441559 386.197982627409 719.0000199127203 368.25423212959095 " transform="rotate(87, 400, 400)"></path><path d="M92.00000213623053 437.3889214557623C103.6666691265685 418.3139209265597 124.66666970917683 347.57891896414066 148.00000368985275 345.82891891558995C171.33333767052864 344.07891886703925 180.666671262799 423.0389210576466 204.00000524347493 428.9889212227189C227.33333922415085 434.9389213877913 236.66667281642125 369.1389195622852 260.00000679709717 374.38891970793725C283.33334077777306 379.63891985358936 292.66667437004344 455.2389219509793 316.0000083507193 454.18892192184893C339.3333423313953 453.1389218927185 348.66667592366565 371.6239196312272 372.00000990434154 369.3489195681113C395.3333438850174 367.0739195049954 404.6666774772878 438.89392149751586 428.00001145796375 443.2689216188926C451.3333454386397 447.6439217402693 460.6666790309101 388.5989201021689 484.000013011586 390.3489201507196C507.33334699226185 392.0989201992703 516.6666805845323 457.4439220121532 540.0000145652082 451.6689218519359C563.3333485458841 445.8939216917186 572.6666821381544 362.45391937682155 596.0000161188304 362.6289193816766C619.3333500995063 362.8039193865317 628.6666836917767 451.1089218363997 652.0000176724526 452.5089218752403C675.3333516531285 453.90892191408085 696.3333522357368 386.67392004876314 708.0000192260748 369.3489195681113 " transform="rotate(84, 400, 400)"></path><path d="M103.00000205993659 436.0535821239856C114.25000237204819 417.6598316136831 134.5000029338491 349.4510797213505 157.00000355807228 347.76357967453373C179.50000418229547 346.076079627717 188.5000044319848 422.2160817400883 211.00000505620795 427.95358189926526C233.50000568043117 433.69108205844213 242.50000593012047 370.2410802981327 265.0000065543437 375.3035804385829C287.5000071785669 380.36608057903317 296.5000074282562 453.26608260151636 319.0000080524794 452.2535825734263C341.5000086767026 451.24108254533627 350.50000892639184 372.63733036461247 373.00000955061506 370.4435803037507C395.5000101748383 368.24983024288895 404.5000104245276 437.504832164248 427.00001104875076 441.72358228128985C449.500011672974 445.9423323983317 458.5000119226633 389.00608081873486 481.00001254688647 390.6935808655516C503.50001317110963 392.38108091236836 512.5000134207988 455.3923326605054 535.0000140450221 449.8235825060102C557.5000146692455 444.25483235151495 566.5000149189347 363.7948301192928 589.0000155431579 363.96358012397445C611.5000161673811 364.1323301286561 620.5000164170704 449.2835824910288 643.0000170412935 450.63358252848224C665.5000176655168 451.98358256593565 685.7500182273176 387.14983076723644 697.0000185394292 370.4435803037507 " transform="rotate(81, 400, 400)"></path><path d="M114.00000198364263 434.71827330978704C124.83333561752788 417.0057728183847 144.33333615852135 351.3232709961384 166.0000034262918 349.69827095105563C187.6666706940623 348.07327090597283 196.3333376011705 421.3932729401082 218.000004868941 426.9182730933897C239.6666721367115 432.44327324667114 248.3333390438197 371.34327155155836 270.0000063115902 376.2182716868067C291.6666735793607 381.09327182205504 300.33334048646896 451.29327376963147 322.0000077542394 450.3182737425818C343.6666750220099 449.3432737155321 352.3333419291181 373.6507716155759 374.0000091968886 371.5382715569683C395.6666764646591 369.42577149836063 404.3333433717673 436.11577334855826 426.0000106395378 440.17827346126523C447.66667790730827 444.2407735739722 456.3333448144165 389.41327205287894 478.00001208218697 391.03827209796174C499.66667934995746 392.66327214304454 508.33334625706556 453.3407738264358 530.0000135248362 447.9782736776626C551.6666807926067 442.6157735288894 560.3333476997147 365.1357713793421 582.0000149674854 365.29827138385036C603.6666822352558 365.46077138835864 612.3333491423641 447.4582736632361 634.0000164101345 448.7582736993023C655.666683677905 450.0582737353686 675.1666842188985 387.62577200328786 686.0000178527837 371.5382715569683 " transform="rotate(78, 400, 400)"></path><path d="M125.00000190734869 433.382956866194C135.41666886300757 416.3517063936917 154.1666693831936 353.1954546415318 175.00000329451137 351.632954598183C195.83333720582914 350.07045455483416 204.16667077035626 420.5704565107335 225.00000468167406 425.8829566581196C245.83333859299182 431.1954568055056 254.16667215751897 372.4454551755895 275.00000606883674 377.13295530563596C295.8333399801545 381.82045543568245 304.16667354468166 449.32045730835205 325.0000074559994 448.3829572823428C345.8333413673172 447.4454572563335 354.16667493184434 374.6642052371448 375.00000884316205 372.6329551807913C395.8333427544799 370.60170512443784 404.166676319007 434.72670690347394 425.0000102303248 438.6329570118461C445.83334414164256 442.5392071202181 454.1666777061697 389.8204556576285 475.0000116174875 391.38295570097733C495.83334552880524 392.9454557443262 504.1666790933323 451.28920736297164 525.0000130046501 446.13295721992046C545.8333469159679 440.97670707686933 554.166680480495 366.4767050099969 575.0000143918128 366.6329550143318C595.8333483031306 366.7892050186667 604.1666818676579 445.63295720604884 625.0000157789755 446.88295724072793C645.8333496902933 448.13295727540697 664.5833502104794 388.10170560994476 675.0000171661382 372.6329551807913 " transform="rotate(75, 400, 400)"></path><path d="M136.00000183105476 432.04763660790366C146.00000210848728 415.69763615430145 164.00000260786584 355.06763447222795 184.00000316273093 353.5676344306131C204.00000371759597 352.0676343889982 212.000003939542 419.74763626666163 232.00000449440708 424.8476364081522C252.00000504927215 429.9476365496428 260.0000052712182 373.5476349849233 280.0000058260833 378.04763510976795C300.0000063809483 382.5476352346126 308.00000660289436 447.3476370323754 328.00000715775946 446.44763700740646C348.00000771262455 445.54763698243755 356.00000793457053 375.6776350440164 376.0000084894356 373.7276349899171C396.00000904430067 371.77763493581773 404.0000092662467 433.3376366436924 424.0000098211118 437.0876367477296C444.0000103759769 440.83763685176683 452.0000105979229 390.22763544768077 472.000011152788 391.72763548929566C492.000011707653 393.22763553091056 500.00001192959905 449.23763708481016 520.0000124844642 444.2876369474811C540.0000130393292 439.33763681015193 548.0000132612753 367.8176348259544 568.0000138161404 367.9676348301159C588.0000143710055 368.11763483427745 596.0000145929514 443.8076369341643 616.0000151478165 445.0076369674562C636.0000157026815 446.20763700074815 654.00001620206 388.5776354019044 664.0000164794926 373.7276349899171 " transform="rotate(72, 400, 400)"></path><path d="M146.9999864959717 430.7123239790078C156.5833200951779 415.04357354430573 173.83332057374906 356.93982193231864 192.9999877721614 355.50232189243775C212.16665497057375 354.0648218525568 219.8333218499387 418.92482365198424 238.99998904835104 423.8123237875794C258.1666562467634 428.69982392317456 265.8333231261284 374.6498224236517 284.9999903245407 378.9623225432945C304.1666575229531 383.27482266293725 311.83332440231806 445.3748243857933 330.9999916007304 444.5123243618647C350.1666587991428 443.64982433793614 357.83332567850766 376.69107248028257 376.99999287692003 374.82232242843736C396.1666600753324 372.9535723765922 403.8333269546974 431.9485740133054 422.99999415310975 435.54232411300774C442.1666613515221 439.13607421271007 449.83332823088705 390.6348228671276 468.9999954292994 392.0723229070085C488.16666262771173 393.5098229468894 495.83332950707666 447.18607443604327 514.9999967054891 442.44232430443617C534.1666639039015 437.6985741728291 541.8333307832664 369.1585722713065 560.9999979816788 369.3023222752946C580.1666651800912 369.4460722792827 587.8333320594561 441.98232429167433 606.9999992578685 443.13232432357904C626.1666664562807 444.2823243554838 643.4166669348518 389.05357282325855 653.000000534058 374.82232242843736 " transform="rotate(69, 400, 400)"></path><path d="M157.99998641967778 429.37700753541475C167.1666533406576 414.38950711961274 183.6666537984213 358.81200557771206 201.99998764038094 357.4370055395651C220.33332148234058 356.0620055014181 227.66665501912445 418.1020072226096 245.9999888610841 422.7770073523093C264.33332270304373 427.452007482009 271.6666562398276 375.7520060476828 289.99999008178725 379.87700616212373C308.3333239237469 384.0020062765646 315.6666574605308 443.4020079245139 333.99999130249046 442.57700790162573C352.3333251444501 441.7520078787375 359.6666586812339 377.7045061018515 377.99999252319355 375.91700605226043C396.3333263651532 374.12950600266936 403.6666599019371 430.55950756822114 421.99999374389677 433.9970076635886C440.3333275858564 437.43450775895604 447.6666611226403 391.04200647187713 465.9999949645999 392.4170065100241C484.3333288065595 393.79200654817106 491.6666623433434 445.13450797257906 509.9999961853031 440.59700784669405C528.3333300272627 436.05950772080905 535.6666635640465 370.49950590196136 553.9999974060063 370.63700590577605C572.3333312479659 370.77450590959074 579.6666647847499 440.15700783448705 597.9999986267094 441.2570078650046C616.3333324686689 442.3570078955222 632.8333329264326 389.52950642991544 641.9999998474125 375.91700605226043 " transform="rotate(66, 400, 400)"></path><path d="M168.99998634338385 428.04168346242716C177.7499865861373 413.7354330655252 193.49998702309355 360.68418159371095 210.9999875086005 359.3716815572979C228.4999879941074 358.0591815208849 235.49998818831023 417.2791831638404 252.99998867381714 421.74168328764466C270.49998915932406 426.2041834114489 277.49998935352687 376.85418204231934 294.9999898390338 380.7916821515584C312.4999903245407 384.7291822607975 319.4999905187435 441.42918383383994 336.99999100425043 440.64168381199215C354.49999148975735 439.85418379014436 361.49999168396016 378.71793209402585 378.9999921694671 377.0116820466889C396.49999265497405 375.305431999352 403.4999928491768 429.17043349374234 420.9999933346837 432.4516835847749C438.4999938201907 435.73293367580743 445.4999940143935 391.44918244723215 462.9999944999004 392.7616824836452C480.4999949854073 394.0741825200582 487.4999951796101 443.0829338797204 504.99999566511707 438.7516837595574C522.4999961506239 434.42043363939445 529.4999963448267 371.8404319032216 546.9999968303338 371.97168190686295C564.4999973158407 372.10293191050425 571.4999975100434 438.33168374790523 588.9999979955503 439.3816837770357C606.4999984810572 440.4316838061661 622.2499989180135 390.0054324071778 630.999999160767 377.0116820466889 " transform="rotate(63, 400, 400)"></path><path d="M179.9999862670899 426.70636320413684C188.33331983161702 413.081362826135 203.3333202477658 362.5563614244071 219.99998737682003 361.306361389728C236.66665450587425 360.056361355049 243.33332135749595 416.4563629197685 259.9999884865502 420.7063630376773C276.6666556156044 424.95636315558613 283.33332246722614 377.9563618516532 299.99998959628033 381.7063619556904C316.6666567253345 385.4563620597276 323.3333235769563 439.4563635578633 339.9999907060105 438.70636353705584C356.6666578350647 437.9563635162484 363.3333246866864 379.73136190089747 379.9999918157406 378.1063618558147C396.6666589447948 376.4813618107319 403.33332579641655 427.7813632339608 419.9999929254708 430.9063633206585C436.666660054525 434.03136340735614 443.3333269061467 391.85636223728443 459.9999940352009 393.1063622719635C476.6666611642551 394.35636230664255 483.33332801587676 441.03136360155895 499.99999514493106 436.906363487118C516.6666622739854 432.7813633726771 523.333329125607 373.18136171917916 539.9999962546613 373.30636172264707C556.6666633837156 373.431361726115 563.3333302353371 436.5063634760207 579.9999973643913 437.50636350376396C596.6666644934455 438.5063635315072 611.6666649095944 390.48136219913744 619.9999984741214 378.1063618558147 " transform="rotate(60, 400, 400)"></path><path d="M190.99998619079594 425.371035316452C198.9166530770967 412.4272849573502 213.16665347243807 364.4285336257087 228.99998724503956 363.2410335927636C244.83332101764108 362.0535335598185 251.1666545266817 415.63353504630203 266.99998829928325 419.6710351583154C282.8333220718847 423.7085352703288 289.16665558092535 379.0585340315925 304.99998935352687 382.62103413042786C320.83332312612833 386.1835342292632 327.166656635169 437.48353565249215 342.9999904077705 436.77103563272505C358.833324180372 436.058535612958 365.1666576894126 380.74478407837455 380.9999914620141 379.20103403554594C396.8333252346156 377.6572839927173 403.1666587436563 426.39228534478474 418.99999251625775 429.36103542714756C434.83332628885927 432.3297855095103 441.1666597978999 392.2635343979422 456.99999357050143 393.4510344308873C472.8333273431029 394.6385344638324 479.1666608521435 438.979785694003 494.99999462474506 435.0610355852841C510.8333283973466 431.14228547656523 517.1666619063872 374.5222839057422 532.9999956789886 374.6410339090367C548.8333294515903 374.7597839123312 555.1666629606309 434.68103557474166 570.9999967332324 435.6310356010978C586.8333305058338 436.58103562745384 601.0833309011753 390.95728436170253 608.9999977874759 379.20103403554594 " transform="rotate(57, 400, 400)"></path><path d="M201.999986114502 424.03574176104246C209.49998632257638 411.7732414208408 222.99998669711033 366.30074015928574 237.99998711325912 365.17574012807455C252.99998752940792 364.0507400968634 258.99998769586745 414.81074150511097 273.99998811201624 418.6357416112289C288.9999885281651 422.4607417173469 294.99998869462456 380.1607405438072 309.9999891107734 383.5357406374407C324.9999895269222 386.91074073107416 330.99998969338174 435.5107420793963 345.99999010953053 434.83574206066965C360.9999905256793 434.1607420419429 366.9999906921388 381.7582405881271 381.99999110828765 380.29574054755255C396.99999152443644 378.83324050697803 402.99999169089597 425.00324178788406 417.99999210704476 427.81574186591195C432.99999252319355 430.6282419439399 438.99999268965314 392.6707408908753 453.99999310580193 393.7957409220865C468.9999935219507 394.92074095329764 474.9999936884102 436.9282421187224 489.99999410455905 433.21574201572554C504.9999945207079 429.5032419127287 510.9999946871674 375.86324042458057 525.9999951033162 375.9757404277017C540.9999955194651 376.0882404308228 546.9999956859245 432.85574200573797 561.9999961020733 433.75574203070687C576.9999965182221 434.65574205567583 590.499996892756 391.433240856543 597.9999971008303 380.29574054755255 " transform="rotate(54, 400, 400)"></path><path d="M212.99998603820805 422.70041005866034C220.08331956805608 411.11915973735876 232.8333199217826 368.1729085458901 246.99998698147868 367.11040851641286C261.16665404117475 366.0479084869357 266.8333208650532 413.98790981694725 280.9999879247493 417.6004099171697C295.16665498444536 421.21291001739223 300.83332180832383 381.26290890904926 314.99998886801995 384.4504089974809C329.166655927716 387.6379090859125 334.83332275159444 433.53791035932784 348.99998981129056 432.90041034164153C363.1666568709866 432.2629103239552 368.83332369486504 382.7716589509069 382.99999075456117 381.3904089125865C397.16665781425723 380.0091588742662 402.8333246381357 423.61416008401073 416.9999916978318 426.27041015770374C431.1666587575279 428.9266602313968 436.8333255814063 393.0779092368358 450.99999264110244 394.140409266313C465.1666597007985 395.2029092957902 470.8333265246769 434.8766603964691 484.99999358437304 431.37041029919436C499.16666064406917 427.86416020191956 504.8333274679476 377.20415879644634 518.9999945276437 377.31040879939405C533.1666615873398 377.4166588023418 538.8333284112182 431.0304102897616 552.9999954709143 431.8804103133434C567.1666625306103 432.73041033692516 579.9166628843368 391.90915920441086 586.9999964141849 381.3904089125865 " transform="rotate(51, 400, 400)"></path><path d="M223.9999859619141 421.3651012444618C230.6666528135358 410.4651009420603 242.66665314645485 370.04509982067805 255.99998684969822 369.04509979293476C269.3333205529416 368.04509976519154 274.66665403423895 413.1651010169671 287.99998773748234 416.5651011112942C301.3333214407257 419.96510120562124 306.6666549220231 382.3651001624749 319.99998862526644 385.36510024570464C333.33332232850984 388.36510032893443 338.6666558098072 431.565101527443 351.99998951305054 430.965101510797C365.33332321629393 430.3651014941511 370.6666566975913 383.7851002018703 383.9999904008347 382.4851001658041C397.3333241040781 381.18510012973786 402.66665758537545 422.225101268321 415.99999128861884 424.7251013376791C429.3333249918621 427.22510140703724 434.66665847315954 393.4851004709799 447.9999921764029 394.4851004987231C461.3333258796463 395.4851005264664 466.6666593609436 432.8251015623995 479.99999306418704 429.5251014708467C493.33332676743044 426.225101379294 498.6666602487278 378.5451000564957 511.99999395197113 378.64510005927C525.3333276552146 378.74510006204434 530.666661136512 429.2051014619689 543.9999948397553 430.0051014841635C557.3333285429986 430.80510150635814 569.3333288759177 392.38510044046234 575.9999957275394 382.4851001658041 " transform="rotate(48, 400, 400)"></path><path d="M234.99998588562016 420.0297657273824C241.2499860590155 409.81101544388105 252.49998637112708 371.91726439258514 264.99998671791775 370.9797643665758C277.4999870647084 370.0422643405665 282.49998720342467 412.34226551410615 294.99998755021534 415.52976560253774C307.499987897006 418.7172656909694 312.4999880357223 383.4672647130197 324.999988382513 386.27976479104757C337.49998872930365 389.0922648690755 342.49998886801995 429.59226599267726 354.9999892148106 429.0297659770717C367.4999895616013 428.4672659614661 372.49998970031754 384.7985147499529 384.9999900471082 383.5797647161408C397.4999903938989 382.3610146823287 402.49999053261513 420.8360157497504 414.9999908794058 423.17976581477365C427.49999122619647 425.5235158797969 432.4999913649127 393.8922650022431 444.9999917117034 394.8297650282524C457.49999205849406 395.7672650542617 462.4999921972103 430.773516025449 474.999992544001 427.6797659396183C487.4999928907917 424.5860158537876 492.49999302950795 379.88601461366414 504.9999933762987 379.9797646162651C517.4999937230893 380.073514618866 522.4999938618056 427.3797659312953 534.9999942085963 428.12976595210273C547.4999945553868 428.8797659729102 558.7499948674986 392.8610149736329 564.9999950408939 383.5797647161408 " transform="rotate(45, 400, 400)"></path><path d="M245.9999858093262 418.6944550058352C251.83331930449518 409.15695474123396 262.33331959579937 373.7894537600244 273.9999865861373 372.9144537357491C285.66665357647526 372.0394537114737 290.33332037261044 411.5194548067774 301.9999873629484 414.49445488931354C313.6666543532864 417.46945497184976 318.3333211494216 384.5694540590967 329.9999881397595 387.1944541319227C341.66665513009747 389.8194542047488 346.33332192623266 427.6194552534438 357.9999889165706 427.09445523887854C369.66665590690855 426.56945522431334 374.3333227030438 385.8119540935677 385.99998969338174 384.6744540620097C397.6666566837197 383.5369540304518 402.3333234798548 419.44695502671203 413.9999904701928 421.6344550874004C425.6666574605308 423.82195514808876 430.33332425666595 394.29945432903855 441.99999124700395 395.1744543533139C453.66665823734184 396.04945437758926 458.3333250334771 428.7219552840307 469.999992023815 425.83445520392206C481.66665901415297 422.94695512381344 486.33332581028816 381.2269539663649 497.99999280062616 381.3144539687924C509.6666597909641 381.40195397121994 514.3333265870992 425.554455196154 525.9999935774372 426.25445521557424C537.6666605677751 426.9544552349945 548.1666608590793 393.3369543023357 553.9999943542483 384.6744540620097 " transform="rotate(42, 400, 400)"></path><path d="M256.99998573303225 417.3591404695908C262.41665254997486 408.5028902238896 272.1666528204716 375.66163931276645 282.9999864543569 374.8491392902251C293.8333200882421 374.03663926768365 298.1666535417962 410.69664028475137 308.99998717568144 413.4591403613921C319.83332080956666 416.22164043803286 324.1666542631208 385.67163959047645 334.999987897006 388.1091396581006C345.8333215308913 390.5466397257248 350.1666549844454 425.646640699513 360.99998861833063 425.1591406859882C371.8333222522159 424.67164067246335 376.16665570577 386.8253896224852 386.99998933965526 385.7691395931814C397.8333229735405 384.7128895638776 402.1666564270946 418.0578904889764 412.9999900609798 420.0891405453299C423.83332369486504 422.12039060168337 428.1666571484192 394.70663984113673 438.9999907823044 395.5191398636781C449.83332441618967 396.33163988621953 454.16665786974374 426.67039072791516 464.999991503629 423.9891406535286C475.8333251375143 421.30789057914194 480.1666585910683 382.56788950436834 490.99999222495364 382.6491395066225C501.83332585883886 382.7303895088766 506.166659312393 423.72914064631533 516.9999929462782 424.3791406643484C527.8333265801634 425.0291406823816 537.5833268506601 393.8128898163412 542.9999936676028 385.7691395931814 " transform="rotate(39, 400, 400)"></path><path d="M267.9999856567383 416.0238163966032C272.99998579545456 407.8488161698021 281.9999860451438 377.53381532876534 291.99998632257643 376.7838153079579C301.9999866000089 376.03381528715045 305.99998671098194 409.8738162259822 315.9999869884145 412.42381629672747C325.99998726584704 414.97381636747275 329.99998737682006 386.773815585113 339.99998765425255 389.02381564753534C349.9999879316851 391.27381570995766 353.9999880426581 423.67381660883905 363.99998832009067 423.2238165963546C373.9999885975232 422.77381658387014 377.9999887084962 387.83881561465955 387.9999889859287 386.8638155876099C397.9999892633613 385.88881556056026 401.9999893743343 416.6688164144976 411.99998965176684 418.5438164665162C421.9999899291994 420.41881651853475 425.9999900401724 395.11381581649175 435.9999903176049 395.86381583729917C445.99999059503745 396.61381585810665 449.99999070601046 424.6188166350565 459.999990983443 422.1438165663919C469.99999126087556 419.66881649772733 473.9999913718486 383.9088155056286 483.9999916492811 383.9838155077093C493.9999919267137 384.05881550979007 497.99999203768664 421.9038165597335 507.9999923151192 422.50381657637945C517.9999925925517 423.10381659302544 526.999992842241 394.2888157936036 531.9999929809572 386.8638155876099 " transform="rotate(36, 400, 400)"></path><path d="M279.0000008392334 414.68851139710193C283.58333429972333 407.1947611892009 291.8333345286052 379.40601041825056 301.000001449585 378.7185103991771C310.1666683705648 378.03101038010357 313.8333351389567 409.0510112406993 323.0000020599366 411.3885113055492C332.16666898091637 413.726011370399 335.83333574930833 387.87601065323594 345.00000267028815 389.9385107104564C354.166669591268 392.00101076767686 357.83333635965994 421.7010115916515 367.00000328063976 421.2885115802074C376.1666702016196 420.8760115687633 379.8333369700115 388.8522606803203 389.0000038909913 387.9585106555247C398.16667081197113 387.0647606307292 401.8333375803631 415.2797614135051 411.0000045013429 416.99851146118885C420.16667142232274 418.7172615088725 423.8333381907147 395.5210108653331 433.00000511169446 396.20851088440656C442.1666720326743 396.8960109034801 445.83333880106625 422.56726161568406 455.00000572204607 420.29851155274156C464.1666726430259 418.02976148979906 467.8333394114178 385.2497605803752 477.0000063323977 385.31851058228256C486.1666732533775 385.3872605841899 489.83334002176946 420.078511546638 499.0000069427492 420.62851156189686C508.166673863729 421.17851157715563 516.4166740926108 394.7647608443523 521.0000075531008 387.9585106555247 " transform="rotate(33, 400, 400)"></path><path d="M290.00000076293946 413.3531758800225C294.16666754520304 406.5406756910216 301.66666775327747 381.27817499015765 310.00000131780456 380.65317497281814C318.33333488233166 380.02817495547856 321.6666683081425 408.22817573783834 330.0000018726696 410.35317579679275C338.33333543719675 412.47817585574717 341.6666688630076 388.9781752037807 350.0000024275347 390.85317525579933C358.3333359920618 392.7281753078179 361.66666941787264 419.72817605688573 370.0000029823998 419.353176046482C378.3333365469269 418.9781760360783 381.66666997273774 389.86567522840284 390.00000353726483 389.05317520586146C398.3333371017919 388.24067518332004 401.66667052760283 413.89067589493453 410.0000040921299 415.4531759382833C418.333337656657 417.01567598163217 421.6666710824679 395.9281753965963 430.00000464699497 396.55317541393583C438.3333382115221 397.1781754312754 441.6666716373329 420.5156760787336 450.00000520186006 418.4531760215131C458.3333387663872 416.39067596429265 461.666672192198 386.5906751375437 470.00000575672516 386.65317513927766C478.3333393212523 386.7156751410116 481.6666727470631 418.25317601596447 490.0000063115902 418.7531760298361C498.3333398761173 419.2531760437077 505.8333400841917 395.24067537752285 510.00000686645524 389.05317520586146 " transform="rotate(30, 400, 400)"></path><path d="M301.00000068664554 412.01786706582396C304.75000079068275 405.88661689572314 311.5000009779497 383.1503662649456 319.00000118602406 382.58786624934004C326.5000013940985 382.0253662337344 329.5000014773283 407.4053669378582 337.00000168540265 409.3178669909172C344.5000018934771 411.2303670439762 347.5000019767068 390.08036645720637 355.00000218478124 391.76786650402306C362.50000239285566 393.4553665508398 365.5000024760854 417.7553672250009 373.00000268415977 417.41786721563756C380.5000028922342 417.0803672062742 383.50000297546393 390.87911647936625 391.00000318353835 390.147866459079C398.5000033916127 389.4166164387918 401.5000034748425 412.50161707924474 409.00000368291694 413.9078671182587C416.5000038909913 415.3141171572727 419.5000039742211 396.3353666307404 427.00000418229547 396.89786664634596C434.5000043903699 397.4603666619515 437.50000447359963 418.4641172446639 445.00000468167406 416.60786719316553C452.5000048897485 414.7516171416671 455.5000049729782 387.931616397593 463.00000518105264 387.9878663991536C470.50000538912707 388.04411640071413 473.5000054723568 416.4278671881717 481.0000056804312 416.87786720065617C488.5000058885056 417.3278672131406 495.25000607577255 395.7166166135743 499.0000061798097 390.147866459079 " transform="rotate(27, 400, 400)"></path><path d="M312.00000061035155 410.6825487148823C315.33333403616246 405.2325485636815 321.3333342026219 385.0225480029904 328.0000010542436 384.5225479891187C334.6666679058653 384.0225479752471 337.333334646514 406.58254860113493 344.0000014981357 408.2825486482985C350.6666683497574 409.982548695462 353.3333350904061 391.1825481738888 360.0000019420278 392.6825482155037C366.6666687936495 394.1825482571186 369.33333553429816 415.78254885637284 376.0000023859198 415.4825488480499C382.6666692375415 415.1825488397269 385.3333359781902 391.89254819358655 392.0000028298119 391.2425481755534C398.6666696814336 390.5925481575203 401.33333642208225 411.11254872681184 408.00000327370395 412.3625487614909C414.6666701253256 413.61254879617 417.3333368659743 396.7425483281413 424.000003717596 397.2425483420129C430.6666705692177 397.74254835588454 433.33333730986635 416.4125488738511 440.00000416148805 414.7625488280747C446.66667101310975 413.11254878229835 449.3333377537584 389.2725481208992 456.0000046053801 389.3225481222864C462.6666714570018 389.37254812367354 465.3333381976505 414.6025488236358 472.0000050492722 415.00254883473315C478.66667190089385 415.40254884583044 484.6666720673534 396.19254831288254 488.0000054931642 391.2425481755534 " transform="rotate(24, 400, 400)"></path><path d="M323.0000005340576 409.34722273454605C325.9166672816421 404.57847260224537 331.1666674272942 386.89472211164065 337.0000009224632 386.4572220995029C342.83333441763216 386.01972208736527 345.1666678156997 405.7597226350171 351.0000013108687 407.2472226762852C356.8333348060377 408.73472271755327 359.16666820410535 392.28472226117674 365.0000016992743 393.5972222975898C370.8333351944433 394.9097223340028 373.16666859251086 413.8097228583503 379.00000208767983 413.5472228510677C384.8333355828488 413.2847228437851 387.1666689809164 392.90597227841226 393.0000024760854 392.3372222626333C398.83333597125437 391.7684722468543 401.16666936932194 409.7234727449844 407.00000286449097 410.8172227753286C412.83333635965994 411.9109728056728 415.1666697577275 397.1497223961477 421.0000032528965 397.58722240828536C426.83333674806545 398.024722420423 429.1666701461331 414.3609728736438 435.00000364130204 412.91722283358945C440.833337136471 411.4734727935351 443.16667053453864 390.6134722148108 449.0000040297076 390.6572222160246C454.8333375248766 390.70097221723836 457.16667092294415 412.7772228297054 463.0000044181131 413.12722283941554C468.8333379132821 413.47722284912567 474.0833380589342 396.66847238279627 477.0000048065187 392.3372222626333 " transform="rotate(21, 400, 400)"></path><path d="M334.0000004577637 408.01191392034747C336.5000005271218 403.9244138069469 341.00000065196645 388.7669133864286 346.00000079068275 388.39191337602483C351.000000929399 388.0169133656211 353.0000009848855 404.936913835037 358.0000011236018 406.2119138704096C363.00000126231805 407.4869139057823 365.00000131780456 393.3869135146024 370.0000014565208 394.51191354581357C375.0000015952371 395.63691357702476 377.00000165072356 411.8369140264654 382.00000178943986 411.6119140202232C387.00000192815617 411.38691401398097 389.0000019836426 393.9194135293757 394.00000212235886 393.43191351585085C399.00000226107517 392.94441350232603 401.0000023165617 408.33441392929467 406.0000024552779 409.271913955304C411.0000025939942 410.2094139813133 413.00000264948073 397.5569136302918 418.000002788197 397.9319136406955C423.0000029269132 398.3069136510992 425.0000029823998 412.3094140395741 430.00000312111604 411.07191400524187C435.0000032598323 409.83441397090957 437.00000331531885 391.9544134748602 442.0000034540351 391.99191347590056C447.00000359275134 392.02941347694093 449.00000364823785 410.95191400191266 454.00000378695415 411.2519140102356C459.0000039256704 411.5519140185586 463.50000405051503 397.1444136188477 466.00000411987315 393.43191351585085 " transform="rotate(18, 400, 400)"></path><path d="M344.99999656677244 406.67659366205714C347.08332995790425 403.27034356755667 350.83333006194147 390.6390932171247 354.99999684420504 390.32659320845494C359.16666362646856 390.0140931997852 360.833330339374 404.11409359096507 364.99999712163753 405.1765936204423C369.1666639039011 406.2390936499195 370.8333306168065 394.48909332393623 374.9999973990701 395.42659334994556C379.16666418133366 396.36409337595484 380.83333089423905 409.8640937504888 384.99999767650263 409.67659374528694C389.16666445876615 409.4890937400851 390.8333311716716 394.9328433362473 394.9999979539351 394.5265933249766C399.1666647361987 394.1203433137059 400.83333144910415 406.94534366951314 404.9999982313677 407.7265936911876C409.16666501363125 408.507843712862 410.8333317265367 397.96409342034406 414.9999985088002 398.2765934290138C419.1666652910638 398.5890934376836 420.8333320039692 410.2578437614127 424.99999878623277 409.2265937328024C429.16666556849634 408.1953437041922 430.83333228140174 393.29534329081775 434.9999990636653 393.32659329168473C439.1666658459289 393.3578432925517 440.8333325588343 409.1265937300281 444.9999993410978 409.37659373696397C449.1666661233614 409.6265937438998 452.9166662273986 397.6203434108073 454.99999961853035 394.5265933249766 " transform="rotate(15, 400, 400)"></path><path d="M355.9999964904785 405.3412734037668C357.66666320338396 402.61627332816647 360.6666632866137 392.51127304782085 363.99999671242455 392.26127304088504C367.3333301382354 392.01127303394924 368.66666350855974 403.29127334689315 371.9999969343706 404.1412733704749C375.33333036018144 404.9912733940567 376.6666637305058 395.5912731332701 379.9999971563166 396.34127315407756C383.3333305821275 397.091273174885 384.6666639524518 407.8912734745121 387.9999973782626 407.7412734703506C391.3333308040735 407.59127346618914 392.66666417439785 395.94627314311896 395.99999760020864 395.6212731341024C399.33333102601955 395.2962731250858 400.6666643963439 405.5562734097316 403.9999978221547 406.1812734270711C407.33333124796553 406.8062734444107 408.6666646182899 398.37127321039634 411.9999980441007 398.62127321733215C415.33333146991157 398.87127322426795 416.6666648402359 408.20627348325127 419.99999826604676 407.38127346036305C423.3333316918576 406.5562734374749 424.66666506218195 394.63627310677526 427.9999984879928 394.66127310746884C431.33333191380365 394.6862731081625 432.666665284128 407.3012734581436 435.99999870993884 407.50127346369226C439.33333213574963 407.7012734692409 442.3333322189794 398.09627320276695 443.9999989318849 395.6212731341024 " transform="rotate(12, 400, 400)"></path><path d="M366.9999964141846 404.00595505282513C368.2499964488636 401.96220499612485 370.499996511286 394.38345478586564 372.9999965806441 394.1959547806638C375.49999665000223 394.0084547754619 376.49999667774546 402.46845501016986 378.99999674710364 403.10595502785617C381.49999681646176 403.74345504554253 382.49999684420504 396.69345484995256 384.9999969135631 397.2559548655581C387.4999969829213 397.81845488116375 388.4999970106645 405.9184551058841 390.9999970800227 405.80595510276294C393.4999971493808 405.6934550996418 394.49999717712404 396.9597048573392 396.99999724648217 396.7159548505768C399.49999731584035 396.4722048438144 400.4999973435836 404.1672050572987 402.9999974129417 404.63595507030334C405.4999974822998 405.10470508330803 406.4999975100431 398.77845490779725 408.9999975794012 398.9659549129991C411.49999764875935 399.15345491820096 412.49999767650263 406.1547051124384 414.99999774586075 405.5359550952723C417.4999978152189 404.9172050781061 418.49999784296216 395.97720483008146 420.9999979123203 395.99595483060165C423.4999979816784 396.01470483112183 424.4999980094217 405.4759550936077 426.9999980787798 405.6259550977692C429.49999814813793 405.77595510193066 431.74999821056025 398.5722049020752 432.99999824523934 396.7159548505768 " transform="rotate(9, 400, 400)"></path><path d="M378.0000001525879 402.6706367018834C378.8333335090406 401.30813666408324 380.3333335506555 396.2556365239104 382.0000002635609 396.1306365204425C383.66666697646633 396.0056365169746 384.3333336616285 401.6456366734466 386.0000003745339 402.07063668523745C387.66666708743935 402.4956366970283 388.3333337726015 397.79563656663504 390.0000004855069 398.17063657703875C391.66666719841237 398.54563658744246 392.33333388357454 403.94563673725605 394.00000059647994 403.8706367351753C395.6666673093854 403.79563673309457 396.33333399454756 397.97313657155945 398.00000070745295 397.8106365670512C399.6666674203584 397.6481365625429 400.3333341055206 402.7781367048658 402.000000818426 403.09063671353556C403.6666675313314 403.4031367222053 404.33333421649354 399.18563660519817 406.000000929399 399.3106366086661C407.66666764230445 399.435636612134 408.33333432746656 404.10313674162563 410.000001040372 403.6906367301815C411.66666775327747 403.2781367187374 412.3333344384396 397.31813655338766 414.00000115134503 397.33063655373445C415.6666678642505 397.34313655408124 416.3333345494126 403.6506367290718 418.00000126231805 403.7506367318461C419.66666797522345 403.8506367346205 421.16666801683834 399.0481366013835 422.00000137329107 397.8106365670512 " transform="rotate(6, 400, 400)"></path><path d="M389.00000007629393 401.3353183509417C389.4166667545203 400.6540683320416 390.1666667753277 398.1278182619552 391.00000013178044 398.06531826022126C391.83333348823317 398.0028182584873 392.1666668308143 400.8228183367233 393.00000018726695 401.0353183426187C393.8333335437197 401.24781834851416 394.16666688630073 398.8978182833175 395.00000024275346 399.0853182885194C395.8333335992062 399.27281829372123 396.1666669417873 401.97281836862805 397.00000029823997 401.9353183675877C397.8333336546927 401.8978183665473 398.16666699727375 398.98656828577975 399.0000003537265 398.9053182835256C399.8333337101792 398.8240682812715 400.16666705276026 401.3890683524329 401.000000409213 401.5453183567678C401.8333337656657 401.70156836110266 402.16666710824677 399.5928183025991 403.0000004646995 399.65531830433304C403.8333338211522 399.717818306067 404.1666671637333 402.0515683708128 405.000000520186 401.84531836509075C405.83333387663873 401.6390683593687 406.1666672192198 398.6590682766938 407.0000005756725 398.6653182768672C407.83333393212524 398.6715682770406 408.1666672747063 401.8253183645359 409.000000631159 401.8753183659231C409.8333339876117 401.92531836731024 410.5833340084192 399.52406830069174 411.00000068664554 398.9053182835256 " transform="rotate(3, 400, 400)"></path></g></svg>